 <svg  version="1.0" xmlns="http://www.w3.org/2000/svg"  width="900.000000pt" height="900.000000pt" viewBox="0 0 900.000000 900.000000"  preserveAspectRatio="xMidYMid meet">  <g transform="translate(0.000000,900.000000) scale(0.100000,-0.100000)" fill="#525459" stroke="none"> <path d="M4435 6309 c-4 -5 -17 -15 -28 -20 -12 -5 -31 -15 -42 -22 -11 -7 -63 -37 -115 -67 -52 -30 -104 -60 -115 -67 -11 -7 -27 -16 -35 -20 -8 -4 -58 -32 -110 -63 -52 -31 -102 -59 -110 -63 -8 -4 -28 -16 -45 -27 -16 -11 -37 -23 -45 -27 -8 -4 -46 -26 -85 -48 -38 -23 -77 -44 -85 -48 -8 -4 -28 -16 -45 -27 -16 -11 -37 -23 -45 -27 -8 -4 -58 -32 -110 -63 -52 -31 -102 -59 -110 -63 -8 -4 -28 -16 -45 -27 -16 -11 -37 -23 -45 -27 -17 -8 -158 -89 -180 -103 -8 -6 -24 -15 -35 -20 -11 -6 -38 -21 -60 -34 l-40 -24 0 -932 0 -932 40 -24 c22 -13 49 -28 60 -34 11 -5 27 -14 35 -20 22 -14 163 -95 180 -103 8 -4 29 -16 45 -27 17 -11 37 -23 45 -27 18 -8 208 -119 230 -133 8 -6 22 -13 30 -17 8 -4 58 -32 110 -63 52 -31 102 -59 110 -63 8 -4 29 -16 45 -27 17 -11 37 -23 45 -27 8 -4 47 -26 85 -48 39 -23 77 -44 85 -48 8 -4 29 -16 45 -27 17 -11 39 -24 50 -30 11 -6 29 -16 40 -23 11 -7 52 -30 90 -52 39 -22 79 -45 90 -52 11 -7 30 -17 42 -22 11 -5 24 -15 28 -20 13 -22 86 -12 134 17 25 16 53 31 61 35 8 4 29 16 45 27 17 11 37 23 45 27 8 4 47 25 85 48 39 22 77 44 85 48 8 4 29 16 45 27 17 11 37 23 45 27 8 4 47 26 85 48 39 23 77 44 85 48 8 4 29 16 45 27 17 11 37 23 45 27 8 4 58 32 110 63 52 31 102 59 110 63 8 4 29 16 45 27 17 11 37 23 45 27 8 4 47 25 85 48 39 22 77 44 85 48 8 4 29 16 45 27 17 11 37 23 45 27 8 4 47 25 85 48 39 22 77 44 85 48 8 4 29 16 45 27 17 11 36 23 43 26 9 5 12 201 12 931 0 870 -1 927 -17 940 -10 7 -27 18 -38 24 -11 5 -42 23 -70 40 -27 16 -63 37 -80 45 -16 8 -43 23 -60 34 -16 11 -37 23 -45 27 -8 4 -58 32 -110 63 -52 31 -102 59 -110 63 -8 4 -28 16 -45 27 -16 11 -37 23 -45 27 -18 8 -208 119 -230 133 -8 6 -22 13 -30 17 -8 4 -58 32 -110 63 -52 31 -102 59 -110 63 -8 4 -28 16 -45 27 -16 11 -37 23 -45 27 -8 4 -46 26 -85 48 -38 23 -77 44 -85 48 -8 4 -28 16 -45 27 -16 11 -37 23 -45 27 -8 4 -36 19 -61 35 -48 29 -121 39 -134 17z"/> </g> </svg> 