 <svg  version="1.0" xmlns="http://www.w3.org/2000/svg"  width="390.000000pt" height="390.000000pt" viewBox="0 0 390.000000 390.000000"  preserveAspectRatio="xMidYMid meet">  <g transform="translate(0.000000,390.000000) scale(0.100000,-0.100000)" fill="#e1e1e1" stroke="none"> <path d="M1477 3261 c-9 -16 -17 -38 -17 -48 0 -11 -7 -28 -15 -39 -8 -10 -15 -28 -15 -40 0 -11 -7 -29 -15 -40 -8 -10 -15 -28 -15 -40 0 -11 -7 -29 -15 -40 -8 -10 -15 -28 -15 -40 0 -11 -7 -29 -15 -40 -8 -10 -15 -28 -15 -39 0 -11 -7 -29 -15 -39 -8 -11 -15 -29 -15 -41 0 -12 -7 -30 -15 -41 -8 -10 -15 -28 -15 -40 0 -11 -7 -29 -15 -40 -8 -10 -15 -28 -15 -40 0 -11 -7 -29 -15 -40 -8 -10 -15 -31 -15 -45 0 -15 -7 -32 -15 -39 -8 -7 -15 -22 -15 -34 0 -12 -7 -31 -15 -42 -8 -10 -15 -28 -15 -39 0 -11 -7 -29 -15 -39 -8 -11 -15 -31 -15 -44 0 -13 -7 -30 -15 -38 -8 -9 -15 -28 -15 -43 0 -16 -7 -34 -15 -41 -8 -7 -15 -22 -15 -34 0 -12 -7 -31 -15 -42 -8 -10 -15 -28 -15 -40 0 -11 -7 -29 -15 -40 -8 -10 -15 -28 -15 -39 0 -11 -7 -29 -15 -39 -8 -11 -15 -28 -15 -39 0 -10 -9 -30 -20 -44 -11 -14 -20 -30 -20 -34 0 -5 101 -9 224 -9 139 0 227 -4 231 -10 3 -5 -1 -20 -9 -32 -9 -12 -16 -32 -16 -43 0 -11 -7 -29 -15 -39 -8 -11 -15 -29 -15 -40 0 -12 -7 -30 -15 -40 -8 -11 -15 -29 -15 -40 0 -12 -7 -30 -15 -40 -8 -11 -15 -31 -15 -45 0 -14 -7 -35 -15 -45 -8 -11 -15 -32 -15 -47 0 -14 -7 -32 -15 -39 -8 -7 -15 -24 -15 -39 0 -14 -7 -35 -15 -45 -8 -11 -15 -29 -15 -40 0 -12 -7 -30 -15 -40 -8 -11 -15 -29 -15 -41 0 -12 -7 -30 -15 -41 -8 -10 -15 -30 -15 -44 0 -14 -7 -34 -15 -44 -8 -11 -15 -29 -15 -41 0 -12 -7 -30 -15 -41 -8 -10 -15 -30 -15 -44 0 -14 -7 -34 -15 -44 -8 -11 -15 -29 -15 -41 0 -12 -7 -30 -15 -41 -8 -10 -15 -28 -15 -40 0 -11 -7 -29 -15 -40 -8 -10 -15 -29 -15 -40 0 -12 -7 -27 -15 -34 -20 -16 -19 -40 1 -40 18 0 1954 1932 1954 1949 0 8 -95 11 -298 11 -164 0 -301 2 -304 5 -7 7 20 86 33 99 5 6 9 19 9 31 0 12 7 30 15 41 8 10 15 28 15 39 0 11 7 29 15 39 8 11 15 29 15 40 0 12 7 30 15 40 8 11 15 29 15 41 0 12 7 30 15 41 8 10 15 28 15 40 0 11 7 29 15 40 8 10 15 28 15 40 0 11 7 29 15 40 8 10 15 27 15 36 0 9 8 29 17 46 9 16 14 36 10 45 -6 16 -51 17 -540 17 l-533 0 -17 -29z m824 -186 c-1 -16 -9 -38 -17 -49 -8 -11 -14 -30 -14 -42 0 -12 -7 -27 -15 -34 -8 -7 -15 -25 -15 -40 0 -15 -7 -33 -15 -40 -8 -7 -15 -24 -15 -39 0 -14 -7 -35 -15 -45 -8 -11 -15 -29 -15 -40 0 -12 -7 -30 -15 -40 -8 -11 -15 -28 -15 -37 0 -10 -6 -30 -14 -46 -28 -56 -46 -104 -46 -122 0 -10 -7 -24 -16 -31 -9 -9 -14 -26 -12 -48 l3 -34 208 1 c114 1 207 -2 207 -6 0 -5 -235 -244 -522 -532 -411 -411 -524 -518 -526 -502 -2 11 4 31 12 43 9 12 16 32 16 43 0 11 7 29 15 39 8 11 15 29 15 40 0 12 7 30 15 40 8 11 15 29 15 41 0 12 7 30 15 41 8 10 15 28 15 40 0 11 7 29 15 40 8 10 15 29 15 41 0 12 6 34 14 50 26 52 46 104 46 118 0 7 8 26 17 43 9 16 14 36 10 45 -6 15 -30 17 -227 17 l-220 0 0 23 c0 12 7 31 15 41 8 11 15 29 15 40 0 12 7 30 15 40 8 11 15 28 15 37 0 10 7 31 15 48 8 17 22 45 30 62 8 17 15 38 15 48 0 9 7 26 15 37 8 10 15 27 15 36 0 9 6 29 14 45 26 52 46 104 46 118 0 7 7 28 16 47 38 76 44 90 44 106 0 9 7 26 15 36 8 11 15 29 15 41 0 12 7 30 15 41 8 10 15 28 15 40 0 11 7 29 15 40 8 10 15 28 15 39 0 11 7 29 15 39 8 11 15 27 15 36 0 39 13 40 360 38 l335 -3 -4 -30z"/> </g> </svg> 