 <svg  version="1.0" xmlns="http://www.w3.org/2000/svg"  width="390.000000pt" height="390.000000pt" viewBox="0 0 390.000000 390.000000"  preserveAspectRatio="xMidYMid meet">  <g transform="translate(0.000000,390.000000) scale(0.100000,-0.100000)" fill="#e1e1e1" stroke="none"> <path d="M2028 3245 c-13 -15 -38 -43 -55 -63 -18 -21 -33 -41 -33 -46 0 -4 -13 -25 -30 -46 -16 -21 -30 -43 -30 -48 0 -6 -6 -15 -13 -19 -8 -4 -17 -15 -21 -23 -11 -23 -27 -48 -81 -128 -28 -40 -55 -81 -60 -90 -6 -9 -19 -29 -29 -45 l-18 -27 -47 42 c-59 54 -58 53 -66 123 -6 55 -5 62 19 88 42 45 35 64 -59 155 -77 74 -88 82 -123 82 -23 0 -49 8 -63 19 -28 21 -69 13 -69 -15 0 -9 -13 -35 -28 -58 -15 -22 -31 -48 -35 -56 -4 -8 -18 -33 -32 -55 -34 -55 -32 -89 5 -117 24 -17 30 -29 30 -59 0 -37 -12 -49 -49 -49 -22 0 -117 -102 -138 -148 -9 -20 -20 -71 -25 -112 -5 -41 -10 -84 -11 -95 -4 -34 -27 -65 -47 -65 -28 0 -41 -32 -34 -83 6 -41 4 -47 -30 -80 -40 -40 -43 -53 -22 -83 8 -11 24 -49 36 -85 38 -112 100 -198 171 -235 l30 -15 -30 -38 c-17 -21 -37 -44 -46 -51 -20 -16 -19 -74 1 -94 19 -20 33 -20 58 -1 29 22 31 20 60 -35 36 -69 36 -161 0 -237 -17 -38 -23 -63 -19 -83 5 -22 0 -35 -24 -63 -17 -19 -31 -42 -31 -50 0 -9 -4 -18 -9 -21 -14 -9 -51 -85 -51 -105 0 -10 -7 -24 -15 -31 -8 -7 -15 -23 -15 -36 0 -12 -4 -26 -10 -29 -5 -3 -10 -14 -10 -24 0 -11 -16 -51 -35 -89 -53 -109 -54 -181 -1 -202 13 -5 27 -14 31 -19 4 -7 49 -11 115 -11 93 0 114 3 144 21 21 12 36 29 36 40 0 22 -66 99 -85 99 -8 0 -23 14 -35 30 -25 35 -25 32 45 108 22 23 56 50 76 59 45 20 63 53 48 87 -15 33 15 75 86 121 30 19 59 43 64 54 16 28 13 66 -4 81 -19 16 -19 46 0 54 8 3 15 16 15 29 0 14 7 30 15 37 17 14 20 53 5 81 -13 22 3 59 25 59 16 0 75 -72 75 -93 0 -8 6 -20 13 -26 43 -35 48 -178 9 -231 -23 -30 -29 -84 -12 -95 6 -3 10 -12 10 -18 0 -8 -3 -8 -9 1 -15 25 -43 8 -57 -34 -7 -22 -27 -66 -44 -97 -36 -68 -38 -106 -7 -134 67 -61 114 -66 134 -16 l11 28 1 -27 c1 -14 -4 -28 -9 -30 -6 -2 -11 -20 -12 -41 -1 -44 11 -56 57 -57 17 0 39 -7 49 -15 28 -22 203 -21 234 1 12 8 22 22 22 30 0 17 -77 74 -101 74 -27 0 -69 57 -69 94 0 18 10 72 21 122 12 49 24 136 26 193 4 85 9 110 26 132 22 31 38 30 30 0 -9 -36 18 -34 58 5 44 43 46 54 22 95 -14 24 -15 33 -5 47 7 9 15 24 18 32 3 8 10 23 15 32 12 23 12 65 -1 88 -8 15 -6 21 11 30 17 10 25 8 45 -11 13 -12 27 -32 30 -43 4 -12 18 -38 30 -58 34 -54 33 -139 -1 -190 -29 -43 -31 -57 -10 -84 21 -28 21 -144 -1 -144 -23 0 -66 -101 -62 -147 2 -30 9 -41 32 -51 15 -8 37 -23 47 -33 10 -10 31 -19 47 -19 15 0 36 -7 46 -15 29 -22 199 -21 220 1 9 8 16 22 16 29 0 17 -39 48 -82 65 -56 22 -68 38 -68 90 0 26 4 60 9 76 5 16 12 45 15 65 6 32 9 35 35 31 33 -5 47 18 29 48 -10 15 -7 24 16 54 15 20 33 36 40 36 13 0 86 73 86 86 0 3 -7 18 -16 34 -16 26 -16 30 9 79 21 44 24 57 15 82 -14 40 -4 62 24 53 25 -7 57 -42 58 -62 0 -7 8 -25 18 -39 12 -19 17 -47 17 -94 0 -50 -5 -72 -17 -86 -22 -24 -23 -66 -2 -84 8 -7 13 -20 11 -29 -2 -10 0 -42 5 -71 13 -74 11 -139 -7 -181 -13 -32 -13 -37 3 -50 40 -35 209 -62 258 -43 17 7 35 18 38 24 11 18 -10 45 -51 65 -21 10 -45 22 -53 26 -8 4 -22 19 -30 33 -12 22 -12 32 -1 69 19 65 31 134 39 229 5 66 12 92 27 109 16 17 20 36 20 91 0 67 -1 69 -37 99 -32 27 -37 35 -31 61 4 23 -3 48 -30 102 -48 99 -67 152 -67 189 0 17 -11 50 -24 73 -29 49 -25 85 8 85 38 0 71 -24 82 -60 17 -52 48 -51 107 0 26 23 47 49 47 58 -1 36 -47 97 -91 122 -24 14 -61 41 -81 61 -53 50 -52 90 5 189 24 42 46 82 50 90 4 8 16 29 27 45 11 17 23 37 27 45 7 15 86 152 104 180 5 8 23 43 39 77 59 123 25 155 -52 50 -59 -79 -178 -256 -178 -264 0 -3 -12 -22 -27 -42 -16 -20 -33 -45 -39 -56 -18 -32 -40 -29 -78 12 -32 34 -35 44 -36 94 0 43 4 60 20 74 11 10 20 25 20 34 0 15 -100 121 -114 121 -14 0 -46 -41 -46 -59 0 -10 -7 -24 -15 -31 -8 -7 -15 -19 -15 -27 0 -7 -7 -16 -15 -19 -8 -4 -15 -15 -15 -25 0 -11 -7 -22 -15 -25 -8 -4 -15 -15 -15 -25 0 -11 -7 -22 -15 -25 -8 -4 -15 -14 -15 -24 0 -10 -7 -23 -15 -30 -8 -7 -15 -18 -15 -25 0 -7 -7 -18 -15 -25 -8 -7 -15 -20 -15 -30 0 -10 -7 -20 -15 -24 -8 -3 -15 -15 -15 -26 0 -11 -7 -23 -15 -26 -8 -4 -15 -14 -15 -24 0 -11 -5 -22 -10 -25 -16 -10 -24 24 -9 41 15 19 34 50 48 81 5 11 15 24 20 28 6 3 11 14 11 25 0 10 7 20 15 24 8 3 15 15 15 26 0 11 7 23 15 26 8 4 15 14 15 24 0 10 7 23 15 30 8 7 15 18 15 25 0 7 7 18 15 25 8 7 15 21 15 32 0 10 7 21 15 24 8 4 15 14 15 25 0 10 6 22 13 26 16 10 69 114 87 171 16 50 3 75 -26 52 -21 -18 -104 -126 -104 -137 0 -4 -14 -21 -30 -37 -17 -16 -30 -37 -30 -47 0 -10 -6 -22 -13 -26 -8 -4 -17 -15 -20 -23 -15 -33 -131 -203 -148 -217 -29 -24 -118 100 -119 166 0 7 14 30 30 51 17 21 30 44 30 51 0 12 -57 69 -70 69 -10 0 -46 -43 -53 -62 -4 -10 -11 -18 -17 -18 -5 0 -10 -11 -10 -24 0 -13 -7 -26 -15 -30 -8 -3 -15 -12 -15 -19 0 -8 -7 -20 -15 -27 -8 -7 -15 -20 -15 -30 0 -10 -7 -20 -15 -24 -8 -3 -15 -14 -15 -25 0 -10 -7 -21 -15 -25 -8 -3 -15 -15 -15 -26 0 -11 -7 -23 -15 -26 -8 -4 -15 -14 -15 -24 0 -10 -7 -23 -15 -30 -8 -7 -15 -18 -15 -25 0 -7 -7 -18 -15 -25 -8 -7 -15 -21 -15 -31 0 -10 -6 -22 -14 -26 -8 -4 -16 -18 -18 -31 -1 -12 -7 -24 -13 -25 -17 -3 -17 49 -1 63 9 7 16 19 16 27 0 7 7 16 15 19 8 4 15 14 15 24 0 10 7 23 15 30 8 7 15 19 15 27 0 7 7 16 15 19 8 4 15 17 15 30 0 14 7 27 15 30 8 4 15 14 15 24 0 10 7 23 15 30 8 7 15 19 15 27 0 7 7 16 15 19 8 4 15 17 15 30 0 13 4 24 9 24 5 0 13 10 17 22 3 12 13 28 20 36 8 7 14 20 14 27 0 8 6 18 14 22 7 4 27 37 44 73 52 112 52 195 0 135z m-238 -899 c0 -24 -13 -19 -40 14 -14 16 -29 29 -35 30 -17 1 -45 48 -39 64 4 11 19 2 60 -39 30 -29 54 -60 54 -69z m465 83 c39 -36 58 -69 39 -69 -7 0 -70 63 -93 93 -26 33 9 18 54 -24z m115 -88 c0 -5 9 -12 19 -16 21 -6 34 -31 25 -46 -3 -5 -15 5 -27 23 -12 18 -33 35 -47 39 l-25 7 28 1 c15 1 27 -3 27 -8z m-535 -21 c18 -8 17 -9 -7 -9 -16 -1 -28 4 -28 9 0 12 8 12 35 0z m75 -42 c6 -13 15 -30 22 -39 13 -18 3 -54 -12 -44 -5 3 -10 16 -10 28 0 13 -9 30 -20 40 -24 20 -26 37 -5 37 9 0 20 -10 25 -22z m295 -78 c11 -5 16 -9 10 -9 -5 -1 -20 -4 -32 -7 -17 -5 -23 -2 -23 10 0 17 14 19 45 6z m-532 -34 c7 -16 -1 -26 -20 -26 -7 0 -13 9 -13 20 0 23 25 27 33 6z m592 -4 c0 -18 -20 -15 -23 4 -3 10 1 15 10 12 7 -3 13 -10 13 -16z m175 11 c-1 -14 -34 -50 -63 -68 -21 -13 -31 -15 -39 -7 -8 8 -6 13 8 18 10 4 32 20 48 36 29 28 46 35 46 21z m-260 -38 c0 -8 -7 -15 -15 -15 -8 0 -15 7 -15 15 0 8 7 15 15 15 8 0 15 -7 15 -15z m-426 -21 c8 -22 -4 -40 -15 -23 -11 18 -11 39 0 39 5 0 12 -7 15 -16z m186 1 c0 -8 -9 -24 -20 -35 -11 -11 -27 -20 -35 -20 -8 0 -15 -4 -15 -10 0 -5 -12 -10 -27 -9 l-28 0 25 12 c14 6 38 26 54 44 32 36 46 41 46 18z m-275 -43 c0 -18 -20 -15 -23 4 -3 10 1 15 10 12 7 -3 13 -10 13 -16z m545 -74 c0 -5 -4 -8 -10 -8 -5 0 -10 10 -10 23 0 18 2 19 10 7 5 -8 10 -18 10 -22z m-510 -68 c0 -10 5 -22 10 -25 6 -3 10 -23 9 -43 l-1 -37 -8 34 c-5 19 -15 38 -24 43 -16 9 -22 39 -10 51 11 10 24 -3 24 -23z m574 -72 c9 -17 16 -38 15 -47 0 -10 -5 -7 -12 9 -6 14 -17 29 -24 33 -15 9 -18 37 -4 37 5 0 17 -14 25 -32z m-514 -76 c0 -8 8 -21 18 -28 13 -10 14 -15 5 -25 -10 -10 -14 -8 -19 7 -4 10 -13 23 -21 27 -7 4 -13 20 -13 34 0 21 2 24 15 13 8 -7 15 -19 15 -28z m582 -112 c14 0 37 -31 37 -50 0 -12 -2 -12 -13 3 -7 9 -17 17 -22 17 -16 0 -45 40 -38 52 4 7 10 5 16 -6 5 -9 14 -16 20 -16z m-489 -114 c30 -22 35 -36 12 -36 -8 0 -15 6 -15 14 0 8 -10 16 -22 18 -13 2 -24 11 -26 22 -4 20 1 18 51 -18z m521 -130 c-19 -25 -44 -35 -44 -17 0 5 10 21 23 35 28 32 46 17 21 -18z m-259 -476 c-5 -8 -11 -8 -17 -2 -6 6 -7 16 -3 22 5 8 11 8 17 2 6 -6 7 -16 3 -22z m-518 -47 c-3 -10 -5 -2 -5 17 0 19 2 27 5 18 2 -10 2 -26 0 -35z"/> <path d="M1807 3172 c-10 -10 -17 -26 -17 -35 0 -9 -4 -18 -9 -22 -6 -3 -16 -18 -24 -33 -7 -15 -27 -52 -44 -82 -24 -44 -28 -59 -20 -77 11 -25 60 -32 71 -10 3 6 15 26 26 42 11 17 23 38 26 47 3 9 12 19 20 22 8 3 14 15 14 26 0 11 7 23 15 26 8 4 15 12 15 20 0 8 5 14 10 14 19 0 10 31 -16 55 -32 30 -45 31 -67 7z"/> </g> </svg> 