 <svg  version="1.0" xmlns="http://www.w3.org/2000/svg"  width="390.000000pt" height="390.000000pt" viewBox="0 0 390.000000 390.000000"  preserveAspectRatio="xMidYMid meet">  <g transform="translate(0.000000,390.000000) scale(0.100000,-0.100000)" fill="#e1e1e1" stroke="none"> <path d="M1899 2866 c-14 -19 -126 -138 -249 -263 -273 -278 -945 -965 -1098 -1123 -67 -69 -112 -123 -112 -135 1 -12 57 -78 148 -170 81 -82 151 -159 157 -170 23 -44 50 -31 142 66 120 127 134 142 584 600 218 222 409 419 424 437 16 19 35 31 48 31 14 -1 67 -49 147 -133 69 -72 304 -313 522 -536 356 -364 424 -435 459 -478 17 -21 57 -14 71 12 7 13 77 90 156 171 126 128 143 150 140 175 -2 23 -80 108 -373 407 -203 207 -483 492 -621 632 -137 141 -304 312 -369 381 -65 69 -126 126 -135 128 -9 2 -27 -12 -41 -32z"/> </g> </svg> 