 <svg  version="1.0" xmlns="http://www.w3.org/2000/svg"  width="390.000000pt" height="390.000000pt" viewBox="0 0 390.000000 390.000000"  preserveAspectRatio="xMidYMid meet">  <g transform="translate(0.000000,390.000000) scale(0.100000,-0.100000)" fill="#e1e1e1" stroke="none"> <path d="M720 3171 c-59 -38 -91 -74 -129 -145 -26 -49 -31 -70 -31 -127 0 -58 5 -78 32 -130 32 -61 100 -139 122 -139 7 0 17 -5 24 -12 16 -16 97 -37 146 -38 34 0 48 -9 141 -97 56 -54 103 -102 104 -106 0 -5 -32 -41 -73 -80 -89 -87 -106 -118 -106 -194 1 -46 6 -66 28 -98 28 -41 117 -95 158 -95 32 0 107 36 134 64 13 15 31 26 40 26 21 0 182 -160 178 -177 -2 -7 -143 -153 -314 -325 -172 -172 -319 -327 -328 -345 -9 -18 -16 -45 -16 -60 0 -15 -6 -57 -14 -93 -25 -107 -45 -212 -51 -266 -6 -48 -4 -55 23 -85 l30 -34 36 18 c20 9 49 17 63 17 14 0 49 6 77 14 60 17 142 34 211 45 28 4 64 14 80 23 17 9 167 156 335 327 168 171 311 311 319 311 8 0 155 -141 325 -314 171 -173 325 -321 343 -330 18 -9 47 -16 66 -16 19 0 51 -7 70 -15 20 -8 52 -15 70 -15 19 0 54 -7 77 -15 23 -8 55 -15 71 -15 16 0 45 -8 65 -17 l36 -18 30 34 c28 31 30 38 24 85 -7 53 -26 152 -52 266 -8 36 -14 78 -14 93 0 15 -7 42 -16 60 -9 18 -156 173 -328 345 -171 172 -312 318 -314 325 -4 17 157 177 178 177 9 0 27 -11 40 -26 28 -28 102 -64 134 -64 41 0 130 53 158 95 22 32 27 52 28 98 0 76 -17 107 -106 194 -41 39 -73 75 -73 80 1 4 48 52 104 106 93 88 107 97 141 97 49 1 130 22 146 38 7 7 17 12 22 12 26 1 126 113 126 141 0 8 7 23 15 33 10 13 15 44 15 92 0 60 -5 80 -31 130 -36 69 -68 105 -127 145 -42 28 -47 29 -161 29 -93 0 -121 -3 -131 -15 -7 -8 -18 -15 -24 -15 -29 -1 -110 -96 -135 -159 -8 -20 -16 -64 -18 -99 l-5 -62 -95 -95 c-52 -52 -102 -95 -112 -95 -10 0 -52 33 -93 73 -89 87 -140 108 -213 86 -42 -13 -115 -68 -115 -87 0 -5 -7 -15 -15 -22 -22 -18 -20 -111 4 -155 10 -20 31 -47 46 -61 14 -13 25 -28 23 -33 -6 -16 -168 -181 -178 -181 -10 0 -172 165 -178 181 -2 5 9 20 23 33 15 14 36 41 46 61 24 44 26 137 4 155 -8 7 -15 17 -15 22 0 19 -73 74 -115 87 -73 22 -124 1 -213 -86 -41 -40 -83 -73 -93 -73 -10 0 -61 43 -113 96 l-96 95 0 55 c0 39 -8 71 -30 118 -30 64 -101 146 -125 146 -7 0 -18 7 -25 15 -10 12 -37 15 -129 15 -110 0 -118 -2 -161 -29z m238 -115 c80 -51 113 -126 90 -201 -46 -148 -228 -183 -319 -62 -21 27 -24 43 -24 109 0 68 3 79 25 103 71 77 157 96 228 51z m2130 0 c53 -34 78 -65 90 -113 28 -116 -57 -223 -176 -223 -111 0 -199 112 -171 220 30 116 163 176 257 116z m-1865 -423 c42 -42 77 -79 77 -83 0 -14 -61 -70 -77 -70 -16 0 -136 113 -157 148 -5 8 5 25 29 47 20 19 40 35 44 35 4 0 42 -35 84 -77z m1562 42 c24 -22 34 -39 29 -47 -22 -36 -141 -148 -157 -148 -16 0 -77 55 -77 71 0 10 145 156 157 157 6 1 28 -14 48 -33z m-1084 -6 c26 -49 8 -72 -265 -345 -235 -235 -268 -264 -296 -264 -30 0 -69 30 -70 54 0 5 127 136 282 292 234 236 287 284 310 284 18 0 31 -7 39 -21z m827 -263 c155 -156 282 -287 282 -292 -1 -24 -40 -54 -71 -54 -30 0 -58 26 -296 267 -145 147 -266 278 -270 291 -9 38 12 72 45 72 24 0 73 -46 310 -284z m-775 -134 c48 -48 87 -92 87 -97 0 -5 -14 -24 -32 -42 -24 -25 -35 -30 -49 -22 -18 9 -179 167 -179 174 0 6 74 74 80 75 3 0 45 -39 93 -88z m510 50 l37 -38 -550 -555 c-303 -304 -553 -564 -557 -577 -7 -28 40 -82 71 -82 13 0 100 81 245 228 125 125 372 374 550 555 179 180 330 327 336 327 6 0 26 -16 45 -35 30 -30 32 -36 19 -52 -12 -16 -1075 -1089 -1184 -1195 -40 -39 -111 -68 -165 -68 -15 0 -49 -7 -76 -15 -27 -8 -64 -15 -81 -15 -32 0 -33 2 -33 39 0 21 7 55 15 74 8 20 15 51 15 68 0 29 8 62 29 122 6 18 1229 1257 1241 1257 3 0 23 -17 43 -38z m-679 -229 c69 -70 83 -90 75 -104 -10 -20 -57 -59 -71 -59 -8 0 -141 128 -167 163 -13 16 -10 22 19 52 19 19 39 35 46 35 7 0 51 -39 98 -87z m1027 -687 c269 -270 289 -292 304 -341 8 -29 15 -67 15 -84 0 -18 7 -48 15 -68 8 -19 15 -53 15 -74 0 -37 -1 -39 -32 -39 -18 0 -55 7 -82 15 -27 8 -63 15 -80 15 -17 1 -53 9 -79 18 -42 15 -91 59 -353 322 l-304 305 37 37 c21 21 40 38 44 38 3 0 114 -108 245 -240 148 -148 247 -240 259 -240 25 0 75 49 75 74 0 13 -86 106 -240 261 -132 132 -240 244 -240 248 0 4 17 22 38 41 35 33 38 34 56 18 11 -9 149 -147 307 -306z"/> </g> </svg> 