 <svg  version="1.0" xmlns="http://www.w3.org/2000/svg"  width="390.000000pt" height="390.000000pt" viewBox="0 0 390.000000 390.000000"  preserveAspectRatio="xMidYMid meet">  <g transform="translate(0.000000,390.000000) scale(0.100000,-0.100000)" fill="#e1e1e1" stroke="none"> <path d="M1795 3435 c-5 -1 -44 -8 -85 -15 -320 -50 -604 -194 -830 -420 -69 -68 -186 -213 -203 -250 -4 -8 -16 -28 -27 -45 -24 -38 -81 -155 -105 -215 -9 -25 -23 -60 -31 -78 -8 -18 -14 -42 -14 -53 0 -11 -4 -28 -9 -38 -6 -10 -19 -73 -30 -142 -39 -234 -21 -486 51 -694 5 -16 13 -44 17 -60 4 -17 12 -39 18 -50 5 -11 18 -38 28 -60 9 -22 21 -47 26 -55 5 -8 14 -26 19 -39 14 -32 118 -189 149 -226 33 -38 187 -192 226 -226 30 -26 163 -119 170 -119 2 0 26 -13 52 -28 44 -25 156 -75 243 -107 237 -88 602 -101 855 -30 28 7 65 16 82 20 18 4 35 11 38 16 4 5 15 9 27 9 11 0 32 6 46 14 15 7 59 28 97 46 39 19 89 46 113 62 24 15 45 28 48 28 14 0 178 133 239 195 65 64 182 209 198 245 4 8 16 29 27 45 10 17 35 64 55 105 20 41 43 87 51 102 8 14 14 33 14 42 0 8 6 30 14 48 19 44 41 133 62 241 18 101 16 417 -4 497 -6 25 -16 65 -22 90 -6 25 -15 61 -20 80 -4 19 -18 60 -30 90 -12 30 -24 65 -27 77 -3 12 -11 28 -19 34 -8 6 -14 19 -14 29 0 10 -7 23 -15 30 -8 7 -15 20 -15 30 0 10 -7 23 -15 30 -8 7 -15 17 -15 22 0 6 -13 27 -29 47 -15 20 -30 41 -32 48 -10 31 -203 236 -284 303 -111 91 -311 201 -455 249 -147 50 -340 81 -500 80 -69 0 -129 -2 -135 -4z m224 -611 c36 -8 82 -23 101 -32 68 -33 161 -113 181 -157 5 -11 13 -27 18 -35 32 -55 41 -96 41 -190 0 -94 -9 -135 -41 -190 -5 -8 -13 -25 -18 -36 -12 -27 -87 -105 -126 -129 -195 -125 -433 -83 -571 102 -56 75 -84 159 -84 254 0 74 24 167 49 192 6 6 11 16 11 22 0 23 100 122 151 149 51 28 163 64 203 65 11 1 49 -6 85 -15z m145 -1080 c250 -57 455 -168 636 -346 97 -94 106 -114 101 -214 -3 -74 -231 -261 -441 -362 -83 -40 -148 -63 -280 -98 -93 -25 -386 -25 -485 0 -221 55 -340 109 -491 222 -84 63 -194 166 -194 181 0 6 -7 16 -15 23 -10 8 -15 31 -15 70 0 47 5 64 29 96 58 79 238 230 336 283 22 12 47 26 55 31 62 37 193 84 315 113 87 22 356 22 449 1z"/> </g> </svg> 