 <svg  version="1.0" xmlns="http://www.w3.org/2000/svg"  width="390.000000pt" height="390.000000pt" viewBox="0 0 390.000000 390.000000"  preserveAspectRatio="xMidYMid meet">  <g transform="translate(0.000000,390.000000) scale(0.100000,-0.100000)" fill="#e1e1e1" stroke="none"> <path d="M1048 3257 c-31 -18 -65 -43 -75 -57 -26 -36 -42 -63 -49 -80 -3 -8 -10 -23 -15 -32 -5 -11 -9 -472 -9 -1147 0 -975 2 -1133 15 -1164 8 -20 19 -38 25 -42 5 -3 10 -14 10 -23 0 -18 78 -92 96 -92 6 0 17 -7 24 -15 11 -13 119 -15 864 -15 795 0 854 1 886 18 56 28 99 72 136 138 l34 61 0 875 0 876 -366 366 -366 366 -576 0 -577 -1 -57 -32z m1074 -172 c4 -5 8 -100 8 -210 1 -217 10 -272 50 -319 44 -50 74 -76 91 -76 9 0 22 -7 29 -15 10 -13 51 -15 246 -15 l234 0 0 -813 0 -813 -28 -27 -28 -27 -781 0 -781 0 -31 35 -31 36 0 1095 c0 729 3 1102 10 1114 24 44 35 45 532 45 304 0 476 -4 480 -10z m379 -281 c88 -87 159 -162 159 -166 0 -4 -74 -8 -163 -8 l-164 0 -11 39 c-7 21 -12 100 -12 175 0 124 2 136 16 128 9 -5 88 -81 175 -168z"/> <path d="M1660 2945 c-14 -8 -32 -14 -41 -15 -18 0 -57 -41 -82 -87 -22 -41 -24 -175 -2 -217 8 -15 15 -36 15 -46 0 -10 7 -23 15 -30 8 -7 15 -18 15 -24 1 -6 14 -22 30 -36 17 -13 30 -31 30 -40 0 -20 -43 -60 -64 -60 -9 0 -19 -7 -22 -15 -4 -8 -14 -15 -23 -15 -49 0 -131 -67 -131 -108 0 -11 -6 -33 -14 -49 -24 -48 -46 -129 -46 -166 0 -69 -10 -67 399 -67 l368 0 23 25 c23 25 24 25 7 78 -9 30 -17 62 -17 73 0 10 -7 28 -15 38 -8 11 -15 28 -15 38 0 45 -87 138 -129 138 -7 0 -34 15 -62 32 -57 38 -63 66 -23 103 32 30 64 88 64 116 0 11 7 42 16 70 33 101 -20 213 -123 259 -53 23 -136 26 -173 5z"/> <path d="M1333 1766 c-13 -13 -23 -30 -23 -38 0 -16 34 -50 67 -67 15 -8 183 -11 570 -11 527 0 549 1 580 20 44 26 52 64 22 96 l-22 24 -586 0 -586 0 -22 -24z"/> <path d="M1365 1468 c-27 -16 -54 -50 -54 -68 -1 -8 10 -25 23 -37 l24 -23 584 0 585 0 22 24 c30 32 22 70 -22 96 -31 19 -53 20 -587 20 -400 -1 -561 -4 -575 -12z"/> <path d="M1345 1129 c-43 -38 -44 -52 -6 -90 l29 -29 574 0 574 0 27 28 c35 36 34 57 -2 93 l-29 29 -566 0 -565 0 -36 -31z"/> </g> </svg> 