 <svg  version="1.0" xmlns="http://www.w3.org/2000/svg"  width="390.000000pt" height="390.000000pt" viewBox="0 0 390.000000 390.000000"  preserveAspectRatio="xMidYMid meet">  <g transform="translate(0.000000,390.000000) scale(0.100000,-0.100000)" fill="#5bd065" stroke="none"> <path d="M2232 2330 c-427 -429 -782 -779 -790 -778 -7 2 -135 125 -285 275 -150 149 -285 276 -300 282 -19 7 -35 7 -55 0 -15 -6 -102 -86 -195 -178 -159 -160 -167 -170 -167 -207 0 -39 10 -49 489 -528 483 -483 490 -489 523 -483 27 6 197 172 1011 988 974 979 977 982 977 1022 0 40 -6 47 -173 214 -170 170 -174 173 -216 173 l-43 0 -776 -780z"/> </g> </svg>
