 <svg  version="1.0" xmlns="http://www.w3.org/2000/svg"  width="390.000000pt" height="390.000000pt" viewBox="0 0 390.000000 390.000000"  preserveAspectRatio="xMidYMid meet">  <g transform="translate(0.000000,390.000000) scale(0.100000,-0.100000)" fill="#525459" stroke="none"> <path d="M742 3481 c-4 -11 -73 -87 -154 -170 -119 -121 -148 -156 -148 -178 0 -23 48 -77 261 -293 516 -525 864 -882 872 -895 5 -9 -20 -41 -74 -97 -45 -46 -251 -256 -459 -468 -585 -598 -600 -613 -599 -635 0 -12 57 -78 147 -170 81 -82 152 -159 157 -170 23 -44 50 -31 142 66 120 127 134 142 584 600 218 222 409 419 424 437 16 19 35 31 48 31 14 -1 67 -49 147 -133 69 -72 304 -313 522 -536 356 -364 424 -435 459 -477 15 -20 59 -16 67 6 4 11 73 87 155 170 118 121 147 156 147 178 0 23 -48 77 -261 293 -507 516 -864 882 -871 895 -8 14 0 22 531 565 583 594 601 613 601 635 -1 12 -57 78 -148 170 -81 83 -151 159 -157 170 -23 44 -50 31 -142 -66 -120 -127 -134 -142 -584 -600 -218 -222 -409 -419 -424 -436 -16 -20 -35 -32 -48 -32 -14 1 -67 49 -147 133 -69 72 -304 313 -522 536 -356 364 -424 435 -459 478 -15 19 -59 15 -67 -7z"/> </g> </svg>
