 <svg  version="1.0" xmlns="http://www.w3.org/2000/svg"  width="390.000000pt" height="390.000000pt" viewBox="0 0 390.000000 390.000000"  preserveAspectRatio="xMidYMid meet">  <g transform="translate(0.000000,390.000000) scale(0.100000,-0.100000)" fill="#e1e1e1" stroke="none"> <path d="M466 3189 l-26 -31 0 -1220 c0 -1217 0 -1220 21 -1249 l20 -29 1233 0 1233 0 21 23 22 23 0 582 c0 407 -3 582 -11 582 -12 0 -1 12 -167 -167 l-132 -143 0 -290 0 -290 -957 2 -958 3 0 955 0 955 984 3 c922 2 986 3 1001 20 10 9 67 64 129 121 61 56 111 111 111 120 0 10 -10 27 -23 39 l-23 22 -1226 0 -1226 0 -26 -31z"/> <path d="M3130 2963 c-8 -3 -268 -260 -577 -569 -309 -310 -566 -564 -571 -564 -5 0 -100 92 -213 205 -176 176 -208 205 -234 205 -26 0 -50 -20 -158 -129 -99 -100 -127 -134 -127 -155 0 -22 63 -90 337 -365 186 -186 350 -345 365 -355 24 -16 29 -16 55 -2 15 8 344 331 731 718 617 618 702 707 702 733 0 25 -20 50 -122 152 -118 117 -152 140 -188 126z"/> </g> </svg> 