<?xml version="1.0" standalone="no"?>
<!DOCTYPE svg PUBLIC "-//W3C//DTD SVG 20010904//EN"
 "http://www.w3.org/TR/2001/REC-SVG-20010904/DTD/svg10.dtd">
<svg version="1.0" xmlns="http://www.w3.org/2000/svg"
 width="390.000000pt" height="390.000000pt" viewBox="0 0 390.000000 390.000000"
 preserveAspectRatio="xMidYMid meet">
<metadata>
Created by potrace 1.10, written by Peter Selinger 2001-2011
</metadata>
<g transform="translate(0.000000,390.000000) scale(0.100000,-0.100000)"
fill="#e1e1e1" stroke="none">
<path d="M1048 3257 c-31 -18 -65 -43 -75 -57 -26 -36 -42 -63 -49 -80 -3 -8
-10 -23 -15 -32 -5 -11 -9 -472 -9 -1147 0 -975 2 -1133 15 -1164 8 -20 19
-38 25 -42 5 -3 10 -14 10 -23 0 -18 78 -92 96 -92 6 0 17 -7 24 -15 11 -13
119 -15 864 -15 795 0 854 1 886 18 56 28 99 72 136 138 l34 61 0 875 0 876
-366 366 -366 366 -576 0 -577 -1 -57 -32z m1074 -172 c4 -5 8 -100 8 -210 1
-217 10 -272 50 -319 44 -50 74 -76 91 -76 9 0 22 -7 29 -15 10 -13 51 -15
246 -15 l234 0 0 -813 0 -813 -28 -27 -28 -27 -781 0 -781 0 -31 35 -31 36 0
1095 c0 729 3 1102 10 1114 24 44 35 45 532 45 304 0 476 -4 480 -10z m379
-281 c88 -87 159 -162 159 -166 0 -4 -74 -8 -163 -8 l-164 0 -11 39 c-7 21
-12 100 -12 175 0 124 2 136 16 128 9 -5 88 -81 175 -168z"/>
<path d="M2080 1704 c-179 -179 -333 -330 -344 -336 -15 -8 -36 8 -140 111
-68 67 -129 121 -137 121 -15 0 -179 -159 -179 -173 0 -14 428 -437 442 -437
13 0 870 850 876 870 6 17 -149 170 -172 170 -14 0 -127 -106 -346 -326z"/>
</g>
</svg>
