 <svg  version="1.0" xmlns="http://www.w3.org/2000/svg"  width="390.000000pt" height="390.000000pt" viewBox="0 0 390.000000 390.000000"  preserveAspectRatio="xMidYMid meet">  <g transform="translate(0.000000,390.000000) scale(0.100000,-0.100000)" fill="#e1e1e1" stroke="none"> <path d="M2422 3007 c-150 -150 -270 -276 -266 -280 11 -11 1104 -9 1104 2 0 13 -542 551 -555 551 -5 0 -133 -123 -283 -273z"/> <path d="M1622 3189 c-46 -4 -97 -12 -115 -18 -18 -5 -79 -15 -137 -21 -58 -7 -130 -16 -160 -22 -30 -5 -80 -13 -112 -17 -31 -5 -62 -12 -69 -17 -7 -4 -31 -11 -54 -15 -41 -7 -87 -22 -140 -44 -98 -42 -134 -64 -172 -103 -59 -60 -60 -102 -3 -161 23 -23 51 -46 63 -51 12 -6 29 -14 37 -19 48 -27 80 -41 97 -41 10 0 27 -7 37 -15 11 -8 34 -15 51 -15 17 0 35 -4 40 -9 10 -10 65 -21 220 -45 233 -36 274 -38 638 -38 321 0 393 3 527 21 151 20 198 29 290 52 25 6 62 14 83 17 21 4 38 12 37 17 0 6 -113 11 -312 13 -304 2 -313 3 -335 24 -14 13 -23 33 -23 52 0 27 23 54 170 198 94 92 170 174 170 182 0 18 -11 21 -145 36 -55 7 -110 16 -123 21 -63 25 -385 35 -560 18z"/> <path d="M617 2663 c-2 -5 -1 -70 2 -147 l6 -138 41 -37 c44 -38 154 -101 178 -101 8 0 27 -6 43 -14 41 -20 93 -37 138 -45 22 -4 50 -13 62 -19 12 -7 34 -12 50 -12 15 0 57 -6 93 -15 170 -38 300 -49 600 -49 291 1 376 7 595 46 33 5 83 13 110 17 28 4 60 12 72 19 12 7 35 12 50 12 16 0 38 7 49 15 10 8 29 15 41 15 12 0 34 6 50 14 15 7 59 28 98 46 83 38 140 81 161 121 10 20 15 65 16 146 2 114 1 118 -20 121 -12 2 -37 -8 -56 -23 -37 -28 -104 -65 -119 -65 -5 0 -22 -9 -38 -21 -28 -20 -29 -23 -29 -104 0 -76 -2 -85 -22 -96 -33 -18 -51 13 -44 75 6 55 -6 86 -34 86 -40 0 -50 -25 -50 -134 0 -87 -3 -105 -18 -119 -24 -22 -35 -21 -55 1 -12 13 -17 42 -19 112 l-3 95 -35 -2 c-51 -3 -195 -21 -270 -32 -107 -18 -758 -14 -860 4 -47 8 -108 15 -137 15 -28 0 -64 5 -79 10 -15 6 -52 15 -83 20 -85 14 -175 36 -199 49 -11 6 -28 11 -36 11 -29 0 -162 70 -191 100 -28 29 -50 38 -58 23z"/> <path d="M3090 2290 c-7 -17 -28 -43 -46 -60 -40 -34 -173 -99 -259 -125 -33 -10 -80 -24 -104 -31 -25 -8 -60 -14 -78 -14 -19 0 -50 -7 -70 -15 -19 -8 -59 -15 -89 -15 -29 0 -65 -5 -81 -12 -15 -6 -84 -15 -153 -19 -69 -4 -156 -13 -195 -18 -103 -15 -317 -13 -420 4 -49 8 -115 15 -146 15 -31 0 -76 7 -99 15 -23 8 -59 15 -80 15 -21 0 -54 7 -73 15 -20 8 -48 15 -63 15 -27 0 -76 14 -194 57 -79 28 -80 28 -80 3 0 -22 15 -39 75 -86 45 -34 181 -94 217 -94 13 -1 34 -7 48 -15 14 -8 41 -15 60 -15 19 0 46 -7 60 -15 14 -8 49 -14 78 -15 29 0 63 -5 75 -12 12 -7 74 -15 137 -19 63 -4 158 -12 210 -18 121 -13 375 -13 505 0 55 5 150 14 210 18 61 4 123 13 138 20 16 6 52 11 80 11 29 1 63 7 77 15 14 8 41 14 61 15 19 0 44 7 55 15 10 8 30 15 44 15 59 0 194 65 256 122 40 37 44 45 44 88 0 45 -3 51 -51 94 -28 26 -62 49 -75 52 -13 3 -24 10 -24 15 0 23 -39 7 -50 -21z"/> <path d="M3235 1950 c-16 -17 -63 -47 -105 -68 -41 -20 -78 -41 -83 -47 -4 -5 -6 -44 -5 -87 3 -97 -18 -130 -57 -91 -13 13 -16 31 -13 81 2 54 0 66 -15 76 -15 9 -22 6 -41 -16 -22 -24 -23 -33 -18 -117 4 -78 2 -94 -13 -111 -24 -26 -61 -26 -75 1 -6 11 -10 55 -9 100 2 62 0 82 -11 90 -17 10 -79 5 -215 -17 -69 -12 -186 -15 -499 -16 -420 0 -529 7 -706 47 -36 9 -74 15 -85 15 -11 0 -40 6 -65 14 -25 8 -76 24 -115 36 -90 28 -162 64 -200 101 -17 16 -39 29 -48 29 -15 0 -17 -14 -17 -120 0 -74 5 -130 13 -147 16 -36 71 -88 122 -114 22 -11 47 -24 55 -29 26 -15 88 -40 98 -40 6 0 53 -13 104 -29 105 -32 186 -50 273 -61 33 -4 85 -12 115 -18 166 -32 725 -32 890 0 30 6 84 14 120 18 36 4 85 13 110 19 25 6 68 17 95 23 101 22 219 61 265 89 8 5 22 12 30 15 8 3 22 10 30 15 8 5 24 13 36 18 11 5 37 25 57 45 l38 36 -3 142 c-2 87 -7 143 -13 145 -6 2 -24 -10 -40 -27z"/> <path d="M704 1602 c-70 -46 -114 -100 -114 -141 0 -30 64 -109 95 -117 13 -3 26 -12 29 -20 3 -8 16 -14 29 -14 13 0 28 -5 35 -12 14 -14 76 -38 117 -45 17 -3 35 -9 40 -13 11 -9 186 -43 310 -61 114 -16 382 -31 575 -31 293 0 506 18 770 65 92 17 197 50 263 83 16 8 33 14 38 14 28 0 139 97 139 121 0 26 -19 33 -39 15 -10 -9 -29 -16 -42 -16 -14 0 -34 -7 -45 -15 -10 -8 -32 -15 -49 -15 -16 0 -39 -7 -49 -15 -11 -8 -33 -15 -50 -15 -16 0 -52 -7 -80 -14 -138 -40 -281 -51 -631 -50 -211 0 -372 5 -425 12 -47 7 -119 17 -160 22 -41 4 -88 13 -103 19 -16 6 -45 11 -65 11 -20 1 -48 7 -62 15 -14 8 -38 15 -55 15 -16 0 -41 7 -55 15 -14 8 -37 14 -51 15 -15 0 -32 7 -39 15 -7 8 -23 15 -36 15 -12 0 -25 4 -28 9 -4 5 -25 19 -49 30 -50 24 -105 75 -118 108 -11 31 -43 29 -95 -5z"/> <path d="M597 1304 c-4 -4 -7 -71 -7 -149 l0 -141 48 -45 c26 -25 79 -60 117 -78 39 -18 83 -39 98 -47 16 -8 38 -14 50 -14 12 -1 33 -7 47 -15 14 -8 39 -14 56 -15 16 0 35 -5 41 -11 6 -6 35 -14 64 -19 30 -4 79 -12 109 -18 30 -6 91 -16 135 -22 44 -7 105 -20 135 -29 81 -24 604 -24 670 0 25 10 81 22 125 29 44 6 103 16 130 22 28 5 73 13 100 17 28 4 60 12 72 19 12 7 35 12 50 12 16 0 38 7 49 15 10 8 30 15 42 15 13 0 36 6 50 13 15 8 45 22 67 32 22 9 47 21 55 26 8 5 24 13 35 18 29 13 77 62 98 98 13 25 17 55 17 151 0 77 -4 123 -11 128 -6 3 -30 -12 -53 -35 -23 -22 -50 -41 -59 -41 -10 0 -20 -7 -23 -15 -4 -8 -14 -15 -24 -15 -10 0 -31 -6 -47 -14 -43 -21 -93 -37 -145 -46 -26 -5 -56 -13 -67 -19 -11 -6 -35 -11 -53 -11 -18 0 -55 -7 -82 -15 -27 -8 -70 -15 -95 -15 -25 0 -82 -7 -126 -15 -96 -17 -761 -21 -865 -4 -78 12 -232 30 -280 32 l-35 2 -2 -91 c-1 -98 -13 -134 -42 -134 -36 0 -51 42 -51 140 0 102 -10 130 -44 130 -31 0 -37 -18 -29 -89 5 -54 4 -60 -17 -71 -39 -21 -54 6 -54 101 l-1 81 -40 21 c-22 11 -47 24 -55 28 -67 35 -94 53 -118 80 -15 17 -31 27 -35 23z"/> </g> </svg> 