 <svg  version="1.0" xmlns="http://www.w3.org/2000/svg"  width="390.000000pt" height="390.000000pt" viewBox="0 0 390.000000 390.000000"  preserveAspectRatio="xMidYMid meet">  <g transform="translate(0.000000,390.000000) scale(0.100000,-0.100000)" fill="#e1e1e1" stroke="none"> <path d="M1691 3425 c-18 -8 -52 -15 -75 -15 -23 0 -51 -7 -62 -15 -10 -8 -32 -15 -49 -15 -16 0 -39 -7 -49 -15 -11 -8 -30 -15 -42 -15 -12 0 -27 -7 -34 -15 -7 -8 -23 -15 -35 -15 -12 0 -28 -7 -35 -15 -7 -8 -20 -15 -30 -15 -10 0 -23 -7 -30 -15 -7 -8 -20 -15 -30 -15 -10 0 -23 -7 -30 -15 -7 -8 -17 -15 -22 -15 -6 0 -27 -13 -47 -29 -20 -15 -41 -30 -48 -32 -29 -10 -218 -187 -304 -285 -38 -44 -149 -214 -149 -228 0 -8 -7 -19 -15 -26 -8 -7 -15 -20 -15 -30 0 -10 -7 -23 -15 -30 -8 -7 -15 -23 -15 -35 0 -12 -7 -28 -15 -35 -8 -7 -15 -22 -15 -34 0 -12 -7 -31 -15 -42 -8 -10 -15 -32 -15 -49 0 -16 -7 -39 -15 -49 -8 -11 -15 -39 -15 -62 0 -23 -7 -58 -16 -79 -13 -31 -15 -76 -12 -266 2 -165 6 -231 16 -241 6 -6 12 -33 12 -58 0 -25 7 -55 15 -66 8 -10 15 -33 15 -50 0 -16 7 -39 15 -50 8 -10 15 -27 15 -37 0 -11 6 -31 14 -45 8 -15 31 -61 51 -102 20 -41 45 -88 56 -105 11 -16 22 -38 25 -47 4 -10 10 -18 15 -18 6 0 13 -9 17 -19 13 -36 165 -211 231 -267 36 -31 77 -66 91 -77 30 -26 58 -44 83 -53 9 -3 17 -10 17 -14 0 -4 17 -17 37 -27 36 -18 135 -68 196 -99 16 -8 36 -14 45 -14 9 0 26 -7 36 -15 11 -8 30 -15 42 -15 12 0 35 -7 50 -15 16 -8 43 -15 59 -15 17 0 48 -7 70 -15 59 -21 501 -21 552 0 19 8 52 15 72 15 21 0 46 7 57 15 10 8 33 15 50 15 17 0 37 7 44 15 7 8 21 15 32 15 11 0 32 6 46 14 15 7 62 31 105 52 43 22 86 44 95 49 66 40 108 69 117 79 6 6 30 27 55 45 68 52 157 139 208 206 25 33 51 65 57 70 10 9 56 76 80 117 5 10 27 53 49 95 21 43 45 90 52 105 8 14 14 34 14 45 0 10 7 27 15 37 8 11 15 31 15 45 0 14 7 35 15 45 8 11 15 36 15 57 0 20 7 53 15 72 22 53 22 509 0 551 -8 15 -15 45 -15 65 -1 20 -7 47 -15 61 -8 14 -14 37 -15 51 0 14 -7 34 -15 45 -8 10 -15 29 -15 40 0 12 -7 27 -15 34 -8 7 -15 23 -15 35 0 12 -7 28 -15 35 -8 7 -15 20 -15 30 0 10 -7 23 -15 30 -8 7 -15 18 -15 25 0 7 -7 18 -15 25 -8 7 -15 21 -15 32 0 10 -7 21 -15 24 -8 4 -15 11 -15 16 0 18 -120 167 -195 243 -69 69 -208 182 -245 198 -8 4 -28 16 -45 27 -16 10 -64 35 -105 56 -41 20 -82 40 -90 45 -8 5 -19 11 -25 13 -5 1 -26 9 -45 15 -19 7 -51 16 -70 20 -19 4 -45 13 -57 19 -12 7 -41 12 -65 12 -24 0 -50 6 -56 13 -21 20 -466 22 -511 2z m538 -150 c24 -8 54 -15 66 -15 13 0 36 -7 51 -15 16 -8 37 -15 46 -15 9 0 29 -7 45 -14 15 -8 62 -31 103 -51 41 -20 89 -45 105 -55 17 -11 37 -23 45 -27 63 -29 242 -190 314 -283 67 -86 136 -190 136 -204 0 -8 7 -19 15 -26 8 -7 15 -20 15 -30 0 -10 7 -23 15 -30 8 -7 15 -21 15 -32 0 -11 6 -32 14 -46 21 -42 37 -93 47 -146 4 -26 14 -64 20 -85 16 -48 17 -477 1 -507 -6 -12 -16 -46 -21 -75 -10 -58 -25 -107 -47 -152 -8 -16 -14 -34 -14 -40 0 -12 -62 -137 -91 -182 -10 -16 -23 -39 -28 -50 -16 -35 -136 -178 -193 -230 -72 -67 -147 -129 -162 -134 -6 -2 -27 -17 -47 -32 -20 -16 -41 -29 -47 -29 -5 0 -15 -7 -22 -15 -7 -8 -20 -15 -30 -15 -10 0 -23 -7 -30 -15 -7 -8 -20 -15 -30 -15 -10 0 -23 -7 -30 -15 -7 -8 -25 -15 -40 -15 -27 0 -28 2 -34 73 -3 39 -10 97 -15 127 -5 30 -10 94 -10 141 -1 47 -8 108 -16 135 -8 27 -15 83 -15 125 l0 75 295 292 c162 160 295 298 295 306 0 8 -4 18 -10 21 -5 3 -10 19 -10 34 0 15 -7 36 -15 47 -8 10 -15 33 -15 50 0 16 -7 39 -15 50 -8 10 -15 31 -15 45 0 14 -7 34 -15 45 -8 10 -15 30 -15 44 0 14 -7 34 -15 44 -8 11 -15 32 -15 47 0 14 -7 32 -15 39 -8 7 -15 25 -15 39 0 15 -7 36 -15 47 -8 10 -15 31 -15 45 0 14 -7 34 -15 45 -8 10 -15 26 -15 35 0 38 -117 96 -142 71 -7 -7 -24 -12 -38 -12 -14 0 -35 -7 -46 -15 -10 -8 -35 -15 -54 -15 -19 0 -44 -7 -54 -15 -11 -8 -34 -15 -51 -15 -17 0 -40 -7 -51 -15 -10 -8 -35 -15 -54 -15 -19 0 -46 -7 -60 -15 -14 -8 -39 -14 -56 -15 -16 0 -39 -7 -50 -15 -10 -8 -32 -15 -47 -15 -15 0 -46 -9 -67 -20 l-40 -20 0 -76 c0 -82 10 -110 43 -124 12 -6 29 -14 37 -19 101 -60 289 -93 320 -56 7 8 18 15 24 15 7 0 23 13 36 30 14 16 29 29 34 30 5 0 14 7 21 17 8 11 14 13 19 4 4 -6 0 -14 -8 -17 -9 -3 -16 -16 -16 -29 0 -12 -7 -28 -15 -35 -8 -7 -15 -27 -15 -44 0 -31 17 -53 59 -76 34 -18 15 -30 -47 -30 -34 -1 -65 -7 -76 -15 -11 -8 -30 -15 -42 -15 -12 0 -27 -7 -34 -15 -7 -8 -19 -15 -27 -15 -8 0 -32 -13 -53 -30 -21 -16 -41 -30 -45 -30 -11 0 -135 -98 -193 -154 -57 -54 -142 -158 -142 -174 0 -5 -7 -15 -15 -22 -8 -7 -15 -20 -15 -30 0 -10 -7 -23 -15 -30 -8 -7 -15 -24 -15 -39 0 -14 -7 -35 -15 -45 -8 -11 -15 -31 -15 -46 0 -41 43 -60 134 -60 l76 0 0 -29 c0 -16 -7 -34 -15 -41 -8 -7 -15 -25 -15 -40 0 -15 -7 -33 -15 -40 -8 -7 -15 -22 -15 -34 0 -11 -7 -30 -15 -40 -8 -11 -15 -32 -15 -47 0 -14 -7 -32 -15 -39 -8 -7 -15 -28 -15 -46 0 -19 -4 -34 -10 -34 -5 0 -13 -14 -18 -32 -4 -17 -13 -33 -20 -36 -17 -5 -15 57 3 88 8 14 14 40 15 58 0 18 5 43 11 54 7 12 15 47 20 77 4 31 11 71 15 88 l6 33 -83 0 c-109 0 -115 8 -98 118 6 42 17 91 25 107 7 17 15 37 18 45 4 8 15 29 26 45 11 17 24 39 29 50 10 24 250 265 263 265 15 0 68 43 68 55 0 16 -165 7 -209 -11 -18 -8 -61 -14 -95 -14 -40 0 -74 -6 -96 -18 -60 -31 -140 -83 -140 -91 0 -4 -20 -18 -45 -30 -25 -12 -45 -27 -45 -32 0 -20 -48 -7 -76 20 -16 15 -43 37 -61 48 -18 11 -55 40 -83 66 -28 26 -64 54 -80 62 -17 9 -30 20 -30 26 0 6 -12 9 -27 7 l-28 -3 0 -82 c1 -51 5 -87 13 -95 7 -7 12 -30 12 -53 0 -23 7 -50 15 -61 8 -10 15 -33 15 -50 0 -16 7 -39 15 -50 8 -10 15 -29 15 -40 1 -67 70 -157 213 -278 l57 -48 0 -67 c0 -38 -7 -90 -15 -117 -10 -34 -15 -96 -15 -206 0 -173 1 -171 -60 -138 -19 10 -46 24 -60 30 -57 26 -182 130 -298 247 -67 68 -122 129 -122 135 0 5 -14 27 -30 48 -17 21 -30 45 -30 53 0 8 -6 20 -14 26 -8 7 -17 23 -20 36 -4 14 -11 25 -16 25 -6 0 -10 11 -10 24 0 13 -7 29 -15 36 -8 7 -15 22 -15 34 0 12 -7 31 -15 42 -8 10 -15 30 -15 44 0 14 -7 38 -15 54 -8 15 -15 43 -15 61 0 17 -7 54 -15 81 -21 70 -21 414 0 474 8 23 15 57 15 74 1 17 7 42 15 56 8 14 15 36 15 50 0 14 7 34 15 44 8 11 15 27 15 35 0 22 92 204 107 214 7 4 13 16 13 26 0 9 13 30 28 47 15 16 43 49 62 74 44 58 123 137 180 180 25 18 50 38 55 44 14 14 44 34 73 46 12 5 22 14 22 20 0 5 9 10 19 10 11 0 22 4 25 9 6 9 130 70 191 93 196 74 290 88 551 82 127 -2 193 -8 223 -19z"/> <path d="M2320 3065 c-14 -8 -38 -15 -55 -15 -16 0 -39 -7 -49 -15 -11 -8 -32 -15 -46 -15 -14 0 -35 -7 -46 -15 -10 -8 -29 -15 -41 -15 -12 0 -34 -10 -48 -22 -25 -22 -26 -24 -11 -60 9 -20 20 -39 26 -43 5 -3 10 -14 10 -24 0 -10 7 -24 15 -31 8 -7 15 -21 15 -32 0 -10 7 -21 15 -24 8 -4 15 -14 15 -24 0 -10 7 -23 15 -30 8 -7 15 -20 15 -30 0 -10 7 -23 16 -31 13 -10 21 -10 47 0 18 7 50 16 72 20 22 4 50 13 62 19 12 7 34 12 48 12 15 0 41 6 58 14 18 8 43 16 57 18 20 2 26 9 28 34 2 19 -3 36 -12 44 -9 7 -16 23 -16 35 0 12 -7 28 -15 35 -8 7 -15 20 -15 30 0 10 -7 23 -15 30 -8 7 -15 23 -15 35 0 12 -7 28 -15 35 -8 7 -15 20 -15 30 0 22 -31 50 -56 50 -10 -1 -30 -7 -44 -15z"/> <path d="M1854 2915 c-10 -8 -27 -15 -36 -15 -26 0 -112 -47 -168 -91 -58 -46 -60 -59 -14 -126 14 -21 30 -48 35 -60 5 -13 12 -23 17 -23 5 0 19 -20 31 -45 12 -25 26 -45 31 -45 4 0 11 -8 14 -17 7 -19 19 -39 50 -85 21 -32 64 -40 50 -10 -15 31 -11 124 6 132 8 4 29 15 47 24 17 9 42 16 55 16 13 0 33 7 44 15 10 8 34 15 52 15 51 0 52 22 3 110 -29 52 -41 80 -41 93 0 8 -7 20 -15 27 -8 7 -15 19 -15 27 0 7 -10 27 -22 43 -18 25 -29 30 -63 30 -23 0 -50 -7 -61 -15z"/> <path d="M1515 2730 c-3 -5 -15 -10 -25 -10 -28 0 -134 -66 -190 -119 -42 -39 -50 -53 -50 -83 0 -19 7 -41 15 -48 8 -7 15 -16 15 -21 0 -11 54 -91 125 -182 33 -43 74 -97 90 -121 17 -23 52 -66 79 -94 56 -59 72 -62 169 -37 32 8 75 15 96 15 39 0 99 16 115 31 5 5 -2 23 -17 43 -15 19 -27 41 -27 50 0 8 -5 18 -11 21 -5 4 -15 17 -20 28 -5 12 -18 36 -29 52 -11 17 -24 39 -30 50 -6 11 -19 34 -30 50 -11 17 -24 39 -30 50 -11 23 -19 35 -77 123 -24 35 -43 66 -43 69 0 3 -13 22 -30 43 -16 21 -30 45 -30 53 0 8 -11 22 -25 31 -29 19 -32 19 -40 6z"/> <path d="M1129 2433 c-8 -10 -29 -29 -45 -43 -60 -49 -105 -108 -111 -144 -5 -33 -1 -39 65 -104 38 -38 101 -94 138 -124 38 -31 80 -66 94 -80 61 -58 108 -88 143 -88 19 0 40 7 47 15 7 8 18 15 24 15 18 0 96 74 96 92 0 9 -6 21 -13 25 -7 4 -30 31 -50 58 -40 55 -38 52 -85 111 -17 23 -32 47 -32 52 0 6 -6 15 -13 19 -18 11 -77 89 -77 101 0 6 -6 15 -13 19 -7 4 -27 27 -46 51 -28 36 -38 42 -70 42 -22 0 -43 -7 -52 -17z"/> </g> </svg> 