 <svg  version="1.0" xmlns="http://www.w3.org/2000/svg"  width="390.000000pt" height="390.000000pt" viewBox="0 0 390.000000 390.000000"  preserveAspectRatio="xMidYMid meet">  <g transform="translate(0.000000,390.000000) scale(0.100000,-0.100000)" fill="#e1e1e1" stroke="none"> <path d="M747 3402 l-37 -38 0 -886 c0 -761 2 -891 15 -928 8 -23 15 -54 15 -69 0 -14 7 -35 15 -45 8 -11 15 -28 15 -37 0 -10 14 -41 30 -69 16 -28 30 -55 30 -61 0 -5 7 -12 15 -15 8 -4 15 -11 15 -16 0 -39 358 -408 395 -408 6 0 18 -9 27 -19 14 -17 117 -90 176 -126 9 -6 36 -23 59 -38 24 -15 47 -27 52 -27 5 0 11 -7 15 -15 3 -8 14 -15 24 -15 10 0 23 -5 29 -11 15 -15 97 -59 153 -83 8 -3 35 -17 59 -31 52 -30 150 -35 171 -10 7 8 20 15 30 15 10 0 23 7 30 15 7 8 21 15 31 15 10 0 21 4 24 10 3 5 30 21 58 36 29 14 66 34 82 44 17 11 37 23 45 27 8 3 31 19 51 35 20 15 44 28 53 28 9 0 19 7 22 15 4 8 12 15 19 15 7 0 15 7 19 15 3 8 14 15 25 15 11 0 24 6 28 13 4 7 44 40 88 74 44 33 116 93 159 134 82 76 236 247 236 261 0 5 14 27 30 50 17 22 30 47 30 53 0 7 7 18 15 25 8 7 15 22 15 34 0 11 7 30 15 40 8 11 15 31 15 45 1 14 7 37 15 51 12 21 14 165 15 937 l0 912 -31 36 -31 35 -1162 0 -1162 0 -37 -38z m2190 -183 c11 -9 13 -150 13 -780 0 -781 -3 -867 -38 -954 -54 -134 -217 -330 -372 -446 -30 -23 -57 -45 -60 -49 -6 -8 -217 -152 -240 -163 -8 -4 -28 -16 -45 -27 -16 -11 -40 -24 -52 -29 -11 -5 -24 -15 -28 -20 -3 -6 -15 -11 -26 -11 -11 0 -22 -7 -25 -15 -4 -8 -14 -15 -24 -15 -10 0 -23 -7 -30 -15 -25 -30 -87 -29 -140 4 -8 5 -22 12 -30 15 -8 4 -28 15 -45 26 -16 10 -50 29 -75 42 -25 13 -49 29 -53 35 -4 7 -15 13 -24 13 -8 0 -32 14 -53 30 -21 17 -41 30 -44 30 -4 0 -52 35 -108 78 -55 42 -110 84 -123 92 -41 28 -157 145 -203 205 -25 33 -50 65 -56 70 -13 13 -51 82 -92 170 -18 38 -19 82 -22 859 -2 451 -1 830 3 843 l5 23 987 0 c709 0 990 -3 1000 -11z"/> <path d="M1215 3030 c-3 -5 -15 -10 -25 -10 -13 0 -27 -14 -40 -40 -19 -38 -20 -57 -20 -692 0 -560 2 -657 15 -682 8 -15 15 -36 15 -46 0 -10 7 -23 15 -30 8 -7 15 -17 15 -22 0 -42 326 -378 367 -378 5 0 23 -13 39 -30 16 -16 34 -30 41 -30 7 0 31 -12 55 -27 74 -48 82 -53 105 -62 11 -6 24 -15 28 -20 3 -6 14 -11 24 -11 10 0 24 -7 31 -15 17 -20 113 -20 130 0 7 8 18 15 25 15 7 0 18 7 25 15 7 8 20 15 30 15 10 0 23 7 30 15 7 8 19 15 26 15 8 0 43 20 80 45 36 25 67 45 70 45 11 0 162 121 215 171 56 54 179 210 179 227 0 5 7 15 15 22 8 7 15 21 15 32 0 10 7 30 16 43 14 21 16 101 15 715 -1 381 -3 695 -6 700 -3 4 -22 11 -42 15 -60 13 -1481 17 -1488 5z m1355 -110 c0 -17 -35 -46 -70 -58 -23 -9 -195 -12 -584 -12 -303 0 -557 -4 -563 -8 -10 -6 -13 -151 -15 -648 -2 -421 -6 -637 -13 -634 -17 7 -37 71 -45 145 -5 39 -13 90 -19 115 -12 50 -16 1092 -4 1103 11 12 1313 8 1313 -3z"/> </g> </svg> 