 <svg  version="1.0" xmlns="http://www.w3.org/2000/svg"  width="390.000000pt" height="390.000000pt" viewBox="0 0 390.000000 390.000000"  preserveAspectRatio="xMidYMid meet">  <g transform="translate(0.000000,390.000000) scale(0.100000,-0.100000)" fill="#e1e1e1" stroke="none"> <path d="M1687 3412 l-27 -28 0 -615 c0 -337 -4 -619 -8 -626 -5 -8 -67 -13 -209 -15 -197 -3 -202 -3 -227 -27 -20 -19 -26 -34 -26 -69 0 -47 4 -53 103 -152 26 -26 47 -53 47 -59 0 -7 40 -54 90 -104 49 -51 90 -96 90 -100 0 -5 42 -55 93 -112 50 -56 134 -151 185 -209 l94 -106 48 0 c48 0 48 0 137 96 48 53 93 104 98 115 6 11 50 59 98 109 48 49 87 94 87 101 0 7 15 26 33 44 61 61 142 150 152 167 6 9 40 50 78 91 62 68 67 78 67 119 0 35 -6 50 -26 69 -25 23 -30 24 -217 26 -105 1 -197 5 -204 7 -10 4 -13 125 -13 616 0 441 -3 617 -11 633 -30 55 -36 56 -280 57 l-225 0 -27 -28z"/> <path d="M542 1378 c-9 -9 -12 -112 -12 -403 0 -368 1 -393 20 -429 23 -46 49 -76 65 -76 7 0 18 -7 25 -15 11 -13 167 -15 1296 -15 l1284 0 40 25 c22 14 51 43 65 65 l25 40 0 398 c0 296 -3 401 -12 410 -15 15 -314 17 -352 2 l-26 -10 0 -270 0 -270 -1020 0 -1020 0 0 270 0 270 -26 10 c-38 15 -337 13 -352 -2z"/> </g> </svg> 