 <svg  version="1.0" xmlns="http://www.w3.org/2000/svg"  width="390.000000pt" height="390.000000pt" viewBox="0 0 390.000000 390.000000"  preserveAspectRatio="xMidYMid meet">  <g transform="translate(0.000000,390.000000) scale(0.100000,-0.100000)" fill="#e1e1e1" stroke="none"> <path d="M2100 3385 c-166 -27 -303 -87 -405 -178 -63 -57 -175 -197 -175 -220 0 -8 -7 -20 -15 -27 -8 -7 -15 -18 -15 -26 0 -7 -6 -28 -14 -46 -42 -96 -51 -152 -50 -303 0 -118 4 -158 17 -189 9 -21 17 -45 17 -52 0 -19 63 -152 94 -197 14 -21 26 -40 26 -44 0 -3 13 -22 28 -42 16 -20 32 -43 35 -51 4 -8 16 -28 27 -45 11 -16 22 -37 26 -45 3 -8 10 -22 15 -30 5 -8 11 -19 13 -25 1 -5 9 -26 16 -45 34 -96 36 -296 3 -390 -53 -153 -169 -300 -280 -355 -108 -54 -151 -64 -264 -65 -112 0 -179 18 -267 71 -49 31 -141 125 -158 163 -8 17 -18 38 -23 46 -15 26 -41 125 -41 159 0 41 30 152 47 172 7 8 13 20 13 25 0 19 70 84 124 114 49 28 67 32 129 33 128 0 195 -52 221 -175 11 -51 -33 -118 -77 -118 -13 0 -38 15 -57 35 -41 43 -68 44 -105 5 -24 -25 -28 -37 -28 -84 0 -70 33 -123 95 -156 59 -32 184 -33 243 -2 65 33 116 84 141 142 3 8 13 31 22 50 12 25 16 65 16 145 0 102 -2 114 -28 164 -57 109 -165 197 -295 242 -111 39 -303 19 -402 -40 -19 -11 -43 -25 -54 -30 -59 -27 -190 -192 -223 -281 -71 -187 -66 -356 14 -527 53 -112 170 -243 279 -310 53 -33 155 -77 219 -94 80 -21 273 -26 341 -8 22 6 56 14 75 18 19 4 44 12 55 18 11 5 38 18 60 29 87 40 184 110 258 185 43 44 82 90 88 102 5 12 25 49 44 82 19 33 37 67 41 75 16 38 47 98 65 125 10 17 23 39 28 50 11 23 159 175 172 175 4 0 28 14 52 30 25 17 51 30 59 30 8 0 18 4 24 10 13 13 179 50 227 50 58 0 215 -38 271 -66 226 -113 352 -369 290 -583 -25 -84 -44 -117 -105 -185 -41 -44 -77 -72 -125 -95 -63 -31 -77 -34 -159 -34 -93 0 -150 17 -201 60 -74 64 -117 177 -94 249 18 55 57 103 98 120 44 18 67 18 97 -2 19 -13 25 -25 25 -55 0 -21 -4 -41 -10 -44 -17 -11 -11 -41 13 -63 49 -46 144 -18 187 55 30 51 30 146 0 208 -21 44 -113 135 -136 135 -7 0 -25 7 -40 15 -39 20 -179 20 -218 0 -15 -8 -32 -15 -37 -15 -18 0 -100 -63 -138 -107 -23 -25 -55 -75 -73 -112 -31 -64 -32 -70 -32 -196 -1 -105 3 -136 17 -162 9 -18 25 -48 34 -65 106 -207 397 -348 608 -295 103 26 219 74 276 115 56 40 169 163 200 218 149 263 128 577 -55 829 -102 140 -240 241 -401 293 -155 50 -224 56 -394 37 -137 -16 -150 -16 -240 1 -255 47 -450 203 -531 424 -32 87 -33 266 -3 345 52 137 96 199 193 272 95 71 149 88 270 87 98 0 109 -3 170 -33 177 -88 261 -272 198 -434 -27 -69 -105 -134 -168 -138 -72 -5 -99 1 -133 31 -63 55 -56 121 15 141 59 17 68 26 68 69 0 31 -7 44 -35 69 -19 16 -52 35 -74 42 -80 24 -186 -39 -232 -139 -29 -64 -31 -210 -3 -262 54 -100 135 -164 252 -200 148 -46 314 -4 434 108 52 48 108 124 108 146 0 6 4 16 10 22 26 26 50 139 50 238 0 115 -22 193 -85 306 -82 145 -306 283 -495 305 -30 4 -62 8 -70 10 -8 1 -49 -3 -90 -10z"/> </g> </svg> 