 <svg  version="1.0" xmlns="http://www.w3.org/2000/svg"  width="390.000000pt" height="390.000000pt" viewBox="0 0 390.000000 390.000000"  preserveAspectRatio="xMidYMid meet">  <g transform="translate(0.000000,390.000000) scale(0.100000,-0.100000)" fill="#e1e1e1" stroke="none"> <path d="M1197 3433 c-4 -3 -7 -113 -7 -244 0 -179 3 -240 13 -246 6 -4 400 -10 875 -13 l862 -5 0 -983 c0 -541 -2 -988 -5 -993 -4 -5 -347 -9 -864 -9 -716 0 -860 -2 -870 -14 -8 -9 -11 -83 -9 -247 l3 -234 1120 0 1120 0 0 1495 0 1495 -1116 3 c-613 1 -1119 -1 -1122 -5z"/> <path d="M813 2314 c-205 -205 -373 -375 -373 -378 0 -3 168 -173 373 -378 l372 -373 369 -3 c206 -1 373 1 378 6 5 5 -90 107 -227 244 -129 129 -232 238 -228 241 3 4 277 7 609 7 540 0 602 2 608 16 8 20 8 458 0 478 -6 14 -69 16 -615 16 -335 0 -609 4 -609 8 0 4 105 113 234 242 129 129 233 237 230 242 -3 4 -173 8 -377 7 l-372 -1 -372 -374z"/> </g> </svg> 