 <svg  version="1.0" xmlns="http://www.w3.org/2000/svg"  width="390.000000pt" height="390.000000pt" viewBox="0 0 390.000000 390.000000"  preserveAspectRatio="xMidYMid meet">  <g transform="translate(0.000000,390.000000) scale(0.100000,-0.100000)" fill="#e1e1e1" stroke="none"> <path d="M661 3089 c-45 -24 -101 -79 -101 -99 0 -8 -7 -25 -15 -37 -13 -19 -15 -138 -13 -975 3 -1006 1 -960 47 -1057 18 -37 108 -121 131 -121 8 0 24 -7 34 -15 30 -22 1942 -22 1972 0 10 8 29 15 40 15 12 0 27 7 34 15 7 8 18 15 24 15 23 0 115 106 145 167 17 34 31 67 31 73 0 7 6 24 13 38 8 15 21 42 30 60 9 19 17 40 17 47 0 8 7 31 16 52 9 21 24 54 32 73 8 19 21 48 28 63 8 16 14 35 14 44 0 8 6 27 14 41 8 15 21 47 31 72 9 25 23 58 31 73 8 16 14 37 14 47 0 9 7 23 15 30 8 7 15 22 15 34 0 12 7 31 15 42 8 10 15 27 15 36 0 9 8 31 17 50 9 18 22 45 30 60 7 14 13 59 13 101 0 66 -3 78 -30 115 -16 23 -48 51 -69 62 -39 20 -56 20 -877 20 -615 0 -847 -3 -876 -12 -43 -13 -128 -99 -128 -130 0 -10 -7 -34 -16 -55 -9 -21 -24 -54 -32 -73 -8 -19 -21 -48 -28 -63 -8 -16 -14 -36 -14 -46 0 -9 -7 -26 -15 -37 -8 -10 -15 -27 -15 -36 0 -9 -7 -30 -15 -47 -8 -17 -22 -45 -30 -62 -8 -17 -15 -37 -15 -46 0 -8 -6 -27 -14 -41 -8 -15 -21 -47 -31 -72 -21 -56 -43 -107 -61 -142 -8 -14 -14 -37 -14 -51 0 -13 -7 -30 -15 -37 -8 -7 -15 -23 -15 -35 0 -12 -7 -28 -15 -35 -8 -7 -15 -22 -15 -34 0 -11 -7 -30 -15 -40 -8 -11 -15 -28 -15 -37 0 -10 -23 -41 -50 -69 -45 -44 -56 -50 -92 -50 -32 0 -49 7 -70 27 l-28 27 0 933 0 933 380 0 c334 0 385 -2 413 -16 18 -9 77 -62 132 -118 104 -104 176 -166 193 -166 5 0 15 -7 22 -15 7 -8 20 -15 30 -15 10 0 23 -7 30 -15 7 -8 25 -15 41 -15 15 0 40 -6 56 -12 19 -9 120 -14 328 -18 l300 -5 3 -87 c3 -103 1 -101 122 -96 l75 3 3 122 c2 102 0 127 -15 150 -28 47 -66 84 -105 104 -34 17 -62 19 -350 19 -280 0 -319 2 -366 19 -29 10 -58 23 -65 30 -6 6 -15 11 -21 11 -5 0 -70 60 -145 133 -210 204 -188 197 -706 196 -366 -1 -403 -3 -434 -20z"/> </g> </svg> 