 <svg  version="1.0" xmlns="http://www.w3.org/2000/svg"  width="390.000000pt" height="390.000000pt" viewBox="0 0 390.000000 390.000000"  preserveAspectRatio="xMidYMid meet">  <g transform="translate(0.000000,390.000000) scale(0.100000,-0.100000)" fill="#e1e1e1" stroke="none"> <path d="M2315 3061 c-62 -21 -99 -41 -148 -79 -58 -47 -121 -137 -141 -204 -5 -16 -52 -18 -687 -20 l-681 -3 -34 -40 c-39 -46 -42 -65 -14 -110 41 -67 17 -65 749 -65 621 0 662 -1 667 -17 3 -10 10 -25 15 -33 5 -8 15 -28 22 -45 31 -67 125 -150 217 -190 63 -28 256 -27 315 1 102 48 184 131 234 237 l23 47 176 0 c154 0 181 2 205 18 42 28 56 53 57 98 0 32 -6 46 -31 70 l-30 29 -192 5 c-182 5 -192 6 -195 25 -2 11 -9 27 -16 35 -6 8 -19 31 -29 51 -40 79 -145 161 -248 192 -69 21 -168 20 -234 -2z m187 -207 c63 -25 115 -79 135 -141 14 -46 15 -59 3 -109 -40 -164 -237 -219 -355 -98 -109 112 -71 286 75 345 57 23 89 23 142 3z"/> <path d="M1285 2339 c-98 -41 -188 -124 -229 -214 -11 -22 -22 -47 -26 -55 -6 -12 -40 -16 -182 -20 -194 -6 -209 -10 -243 -74 -19 -36 -19 -36 0 -72 34 -64 49 -68 243 -74 142 -4 176 -8 182 -20 4 -8 18 -37 31 -65 30 -67 120 -154 194 -191 56 -27 67 -29 180 -29 127 1 154 7 230 57 60 39 155 149 155 179 0 6 8 24 17 40 l17 29 674 0 c700 0 692 -1 740 43 27 25 30 91 6 126 -37 52 -33 51 -751 51 l-666 -1 -18 28 c-11 15 -19 33 -19 40 0 20 -57 98 -103 140 -23 22 -70 53 -102 69 -54 26 -72 29 -170 31 -92 2 -118 -1 -160 -18z m250 -212 c21 -12 54 -42 72 -65 31 -41 33 -49 33 -122 0 -73 -2 -81 -33 -122 -47 -61 -98 -88 -170 -88 -91 0 -161 45 -198 129 -26 58 -24 109 6 168 42 85 99 122 190 122 44 1 70 -5 100 -22z"/> <path d="M2340 1644 c-46 -9 -105 -38 -160 -80 -69 -52 -94 -83 -132 -161 l-29 -63 -661 0 c-731 0 -707 2 -748 -65 -28 -45 -25 -64 14 -110 l34 -40 681 -3 c636 -2 682 -4 687 -20 29 -94 114 -199 199 -245 162 -87 336 -72 478 41 45 36 107 114 107 135 0 8 6 20 14 27 8 6 16 21 18 33 3 22 7 22 198 28 107 3 196 6 197 7 1 1 14 14 28 29 50 55 24 145 -50 173 -15 6 -105 10 -201 10 -148 0 -174 2 -174 15 0 42 -89 166 -154 213 -82 60 -121 73 -226 77 -52 2 -106 1 -120 -1z m200 -231 c83 -53 124 -152 100 -239 -25 -87 -122 -164 -205 -164 -48 0 -117 33 -157 74 -105 108 -49 310 97 347 43 11 135 1 165 -18z"/> </g> </svg> 