 <svg  version="1.0" xmlns="http://www.w3.org/2000/svg"  width="390.000000pt" height="390.000000pt" viewBox="0 0 390.000000 390.000000"  preserveAspectRatio="xMidYMid meet">  <g transform="translate(0.000000,390.000000) scale(0.100000,-0.100000)" fill="#e1e1e1" stroke="none"> <path d="M1455 3241 c-169 -50 -323 -165 -423 -314 l-25 -38 17 -57 c24 -77 40 -134 61 -212 10 -36 24 -87 31 -115 8 -27 21 -75 30 -105 8 -30 22 -80 30 -110 9 -30 20 -68 26 -85 5 -16 13 -48 17 -70 4 -23 11 -47 16 -55 5 -8 12 -32 16 -55 4 -22 11 -53 17 -70 6 -16 18 -57 27 -90 9 -33 23 -82 31 -110 7 -27 20 -74 27 -104 13 -57 33 -76 43 -44 28 85 123 225 196 288 81 69 266 135 381 135 37 0 222 -33 277 -50 60 -18 285 -12 366 9 146 39 296 127 400 233 55 58 124 155 124 177 0 5 6 22 14 38 27 53 44 98 62 158 9 33 21 71 25 85 5 14 13 45 18 70 5 25 15 59 22 76 7 17 9 40 5 50 -7 17 -10 16 -37 -16 -118 -140 -176 -172 -314 -172 -134 -1 -276 49 -480 167 -38 23 -77 44 -85 48 -8 4 -27 15 -41 25 -15 9 -70 44 -123 77 -54 33 -108 67 -120 75 -53 34 -144 87 -181 104 -22 10 -48 23 -57 27 -10 5 -34 13 -55 18 -21 6 -56 15 -78 20 -61 16 -192 12 -260 -8z"/> <path d="M668 3050 c-73 -39 -94 -113 -62 -221 8 -30 22 -79 30 -109 8 -30 22 -76 30 -101 7 -26 14 -55 14 -65 0 -11 6 -39 14 -64 8 -25 22 -72 31 -105 9 -33 23 -81 31 -106 7 -26 14 -54 14 -64 0 -10 7 -38 15 -64 8 -25 21 -71 29 -101 13 -51 24 -91 63 -240 24 -93 43 -163 59 -211 7 -26 14 -57 14 -70 1 -13 7 -35 15 -49 8 -14 14 -36 15 -50 0 -14 6 -45 14 -70 16 -51 36 -124 61 -220 37 -141 44 -167 60 -230 10 -36 24 -90 32 -120 22 -82 43 -120 82 -146 72 -49 171 -22 211 57 24 46 25 75 5 143 -8 28 -21 78 -30 111 -9 33 -22 83 -30 110 -7 28 -21 79 -30 115 -9 36 -21 79 -27 95 -5 17 -13 48 -17 70 -4 22 -12 56 -18 75 -14 45 -37 128 -58 210 -9 36 -23 88 -30 115 -8 28 -21 79 -31 115 -9 36 -23 88 -30 115 -7 28 -20 77 -29 110 -28 104 -46 168 -61 216 -7 26 -14 55 -14 65 0 11 -6 39 -14 64 -8 25 -22 71 -30 103 -9 31 -23 81 -31 110 -8 28 -16 63 -19 77 -3 14 -15 59 -26 100 -12 41 -25 92 -29 112 -5 21 -20 53 -35 73 -50 65 -118 82 -188 45z"/> </g> </svg> 