 <svg  version="1.0" xmlns="http://www.w3.org/2000/svg"  width="390.000000pt" height="390.000000pt" viewBox="0 0 390.000000 390.000000"  preserveAspectRatio="xMidYMid meet">  <g transform="translate(0.000000,390.000000) scale(0.100000,-0.100000)" fill="#e1e1e1" stroke="none"> <path d="M1735 3429 c-22 -4 -65 -13 -95 -18 -204 -39 -427 -139 -600 -271 -221 -168 -402 -407 -495 -650 -9 -25 -23 -60 -31 -78 -8 -18 -14 -40 -14 -48 0 -9 -7 -37 -15 -63 -61 -195 -61 -548 1 -726 8 -23 14 -48 14 -57 0 -10 6 -32 14 -50 8 -18 22 -53 31 -78 9 -25 23 -58 30 -75 7 -16 16 -37 19 -45 3 -8 15 -28 25 -45 11 -16 29 -47 41 -69 65 -118 236 -306 376 -413 177 -134 400 -236 599 -272 28 -5 70 -14 95 -20 70 -16 346 -14 442 4 97 19 189 42 238 60 19 8 46 17 60 20 26 7 176 79 246 119 165 92 408 335 507 506 36 63 92 177 112 230 9 25 23 60 31 78 8 18 14 40 14 50 0 9 6 34 14 57 35 102 48 218 45 404 -4 167 -6 184 -24 197 -16 12 -125 14 -715 12 l-695 -3 0 -250 0 -250 428 -3 c373 -2 428 -4 434 -17 3 -9 -2 -24 -11 -34 -9 -10 -16 -27 -16 -38 0 -11 -7 -26 -15 -33 -8 -7 -15 -20 -15 -30 0 -10 -7 -23 -15 -30 -8 -7 -15 -19 -15 -26 0 -18 -100 -154 -152 -208 -55 -56 -177 -146 -243 -180 -280 -142 -610 -142 -890 0 -66 34 -188 124 -243 180 -52 54 -152 190 -152 208 0 7 -7 19 -15 26 -8 7 -15 20 -15 29 0 9 -4 21 -9 27 -16 15 -41 93 -61 189 -34 156 -21 370 31 515 83 231 268 440 481 542 319 153 705 124 982 -74 55 -41 59 -42 72 -24 7 11 53 60 101 110 191 199 233 246 233 264 0 28 -131 122 -285 202 -89 47 -267 111 -355 127 -14 3 -57 11 -97 19 -79 15 -360 18 -428 3z"/> </g> </svg> 