 <svg  version="1.0" xmlns="http://www.w3.org/2000/svg"  width="390.000000pt" height="390.000000pt" viewBox="0 0 390.000000 390.000000"  preserveAspectRatio="xMidYMid meet">  <g transform="translate(0.000000,390.000000) scale(0.100000,-0.100000)" fill="#e1e1e1" stroke="none"> <path d="M2562 2662 c-187 -189 -279 -289 -272 -296 5 -5 52 -9 105 -7 53 1 120 -1 150 -4 l55 -7 2 -712 3 -711 250 0 250 0 5 710 5 709 40 9 c22 5 95 7 163 5 83 -3 122 0 122 7 0 14 -566 580 -583 582 -6 0 -139 -128 -295 -285z"/> <path d="M1694 2336 c-156 -155 -284 -288 -284 -294 0 -8 49 -12 158 -14 l157 -3 5 -550 5 -550 250 0 250 0 5 550 5 550 158 0 c134 0 157 2 157 15 0 15 -559 580 -574 580 -4 0 -135 -128 -292 -284z"/> <path d="M718 2049 c-152 -154 -275 -285 -272 -292 3 -9 45 -11 159 -9 85 1 156 1 157 0 1 -2 5 -187 8 -413 l5 -410 250 0 250 0 5 410 c3 226 7 412 8 414 1 2 72 2 157 -1 120 -3 156 -1 159 9 3 7 -113 132 -273 293 -239 239 -283 280 -308 279 -23 0 -76 -49 -305 -280z"/> </g> </svg> 