 <svg  version="1.0" xmlns="http://www.w3.org/2000/svg"  width="390.000000pt" height="390.000000pt" viewBox="0 0 390.000000 390.000000"  preserveAspectRatio="xMidYMid meet">  <g transform="translate(0.000000,390.000000) scale(0.100000,-0.100000)" fill="#e1e1e1" stroke="none"> <path d="M1227 3402 l-37 -38 -2 -349 -3 -350 -335 -3 -334 -2 -38 -37 -38 -37 0 -661 0 -661 38 -37 38 -37 334 -2 335 -3 3 -335 2 -334 37 -38 37 -38 661 0 661 0 37 38 37 38 2 334 3 335 350 3 349 2 38 37 38 37 0 661 0 661 -38 37 -38 37 -349 2 -350 3 -3 350 -2 349 -37 38 -37 38 -661 0 -661 0 -37 -38z m1131 -631 c2 -358 3 -365 24 -388 l21 -23 366 -2 366 -3 0 -430 0 -430 -364 -3 c-358 -2 -365 -3 -388 -24 l-23 -21 -2 -351 -3 -351 -430 0 -430 0 -3 351 -2 351 -23 21 c-23 21 -30 22 -373 24 l-349 3 0 430 0 430 349 3 c343 2 350 3 373 24 l23 21 0 362 c0 199 3 365 7 368 3 4 198 6 432 5 l426 -3 3 -364z"/> </g> </svg> 