 <svg  version="1.0" xmlns="http://www.w3.org/2000/svg"  width="390.000000pt" height="390.000000pt" viewBox="0 0 390.000000 390.000000"  preserveAspectRatio="xMidYMid meet">  <g transform="translate(0.000000,390.000000) scale(0.100000,-0.100000)" fill="#e1e1e1" stroke="none"> <path d="M1755 3315 c-176 -29 -303 -68 -435 -134 -106 -53 -146 -80 -221 -149 -129 -120 -203 -242 -246 -407 -34 -132 -14 -605 29 -675 7 -11 37 -39 65 -61 43 -32 53 -45 53 -69 0 -19 -5 -30 -14 -30 -8 0 -17 -4 -21 -9 -7 -13 23 -279 35 -309 6 -12 21 -27 35 -32 14 -5 25 -15 25 -22 0 -20 -37 -76 -57 -87 -11 -5 -41 -51 -68 -101 -58 -106 -141 -204 -194 -226 -20 -9 -58 -22 -86 -29 -193 -51 -215 -71 -215 -193 0 -84 19 -130 77 -188 l36 -36 226 4 c238 5 223 3 408 65 120 41 192 84 303 182 41 36 77 68 80 71 33 35 145 121 178 138 52 27 87 28 139 4 59 -26 101 -60 145 -115 72 -92 176 -165 308 -218 50 -20 145 -17 215 6 44 15 73 34 112 73 29 29 53 60 53 70 0 9 7 26 15 36 32 43 15 65 -95 122 -30 16 -66 39 -80 51 -14 13 -29 23 -35 23 -6 0 -32 20 -59 45 -27 25 -51 45 -53 45 -4 0 -58 44 -161 130 -13 11 -26 20 -28 20 -3 0 -34 29 -70 64 -47 47 -78 90 -114 160 -28 53 -50 104 -50 113 0 8 -12 37 -26 64 -15 26 -24 55 -20 64 3 9 23 23 43 31 64 26 142 65 156 78 22 22 84 56 101 56 9 0 27 7 39 15 27 18 108 24 114 9 3 -9 -75 -61 -161 -108 -80 -43 -106 -79 -106 -149 0 -61 19 -158 36 -184 8 -12 14 -27 14 -32 0 -6 17 -46 38 -89 38 -80 42 -84 178 -197 92 -76 211 -165 221 -165 6 0 16 -7 23 -15 9 -11 35 -15 105 -15 91 0 92 0 147 40 56 40 97 94 137 183 26 57 26 68 2 99 -19 24 -19 25 0 54 13 21 19 47 19 91 0 70 14 88 80 99 43 8 80 40 80 70 0 36 -53 140 -112 221 -21 28 -38 58 -38 66 0 44 111 87 265 102 107 10 115 19 115 118 0 72 -4 88 -30 133 -27 49 -85 99 -155 137 -48 26 -123 57 -137 57 -7 0 -32 7 -56 17 -45 17 -60 13 -154 -38 -10 -5 -57 -15 -105 -23 -49 -8 -110 -22 -138 -31 -53 -16 -241 -64 -360 -91 -86 -19 -149 -36 -285 -79 -58 -18 -149 -45 -203 -59 -54 -15 -128 -40 -164 -56 -79 -36 -84 -36 -111 -7 -24 26 -27 38 -13 65 5 9 22 44 36 77 22 48 55 87 166 198 136 135 141 139 255 193 64 30 158 72 209 94 51 22 146 67 211 102 66 34 146 76 178 93 33 16 62 36 64 44 2 7 -24 40 -58 72 -149 142 -328 228 -549 265 -103 16 -178 16 -286 -1z m940 -1241 c109 -14 98 -66 -17 -77 -95 -10 -166 12 -155 48 6 18 71 45 97 40 14 -3 48 -8 75 -11z"/> <path d="M2645 2878 c-117 -75 -292 -164 -499 -252 -176 -76 -259 -130 -368 -241 -90 -92 -153 -173 -143 -183 6 -7 174 38 330 88 146 48 235 71 391 105 65 14 160 39 209 55 50 16 135 37 190 46 95 15 170 38 181 55 2 5 -15 37 -39 72 -35 51 -46 77 -52 123 -19 157 -89 203 -200 132z"/> </g> </svg> 