 <svg  version="1.0" xmlns="http://www.w3.org/2000/svg"  width="390.000000pt" height="390.000000pt" viewBox="0 0 390.000000 390.000000"  preserveAspectRatio="xMidYMid meet">  <g transform="translate(0.000000,390.000000) scale(0.100000,-0.100000)" fill="#e1e1e1" stroke="none"> <path d="M1648 3098 c-149 -150 -482 -485 -739 -744 -442 -443 -469 -473 -469 -506 0 -30 8 -43 51 -83 47 -44 53 -47 92 -42 40 5 72 36 699 666 361 364 659 661 661 661 2 0 303 -299 668 -665 642 -644 665 -665 701 -665 31 0 46 8 83 43 39 38 45 49 45 85 0 41 -4 46 -221 265 l-221 222 0 199 1 198 26 23 c22 21 25 32 25 94 0 68 -1 70 -34 90 -32 20 -47 21 -337 21 l-304 0 -205 205 c-149 149 -211 205 -228 205 -17 0 -95 -72 -294 -272z"/> <path d="M1386 2374 c-292 -295 -534 -542 -539 -550 -4 -7 -7 -291 -7 -631 0 -569 1 -621 17 -650 l18 -33 342 0 c240 0 344 3 349 11 3 6 6 217 5 468 -1 285 2 467 8 483 5 14 19 29 31 33 11 4 165 7 341 6 290 0 323 -1 340 -17 18 -16 19 -38 19 -489 0 -353 3 -474 12 -483 9 -9 100 -12 349 -12 l338 0 20 29 c21 29 21 38 21 657 l0 627 -202 206 c-693 703 -876 881 -904 881 -23 0 -114 -87 -558 -536z"/> </g> </svg> 