 <svg  version="1.0" xmlns="http://www.w3.org/2000/svg"  width="390.000000pt" height="390.000000pt" viewBox="0 0 390.000000 390.000000"  preserveAspectRatio="xMidYMid meet">  <g transform="translate(0.000000,390.000000) scale(0.100000,-0.100000)" fill="#e1e1e1" stroke="none"> <path d="M529 3423 c-14 -8 -40 -36 -57 -62 l-32 -46 0 -725 1 -725 23 -40 c12 -22 40 -52 62 -67 l39 -27 944 -1 c929 0 944 0 976 20 18 11 45 36 59 54 l26 35 0 751 0 751 -22 30 c-13 17 -37 39 -54 50 -30 18 -59 19 -985 19 -858 -1 -957 -2 -980 -17z m1676 -838 l0 -490 -700 0 -700 0 -3 480 c-1 264 0 486 3 493 3 10 149 12 702 10 l698 -3 0 -490z"/> <path d="M2782 3273 l3 -168 260 -3 c143 -2 275 0 293 3 18 3 48 21 67 41 35 34 35 35 35 123 l0 89 -38 41 -38 41 -292 0 -292 0 2 -167z"/> <path d="M2787 2773 c-9 -8 -9 -306 -1 -327 5 -14 37 -16 256 -16 279 0 313 5 365 57 32 33 33 35 33 121 -1 75 -4 91 -23 113 -47 57 -62 59 -355 59 -148 0 -272 -3 -275 -7z"/> <path d="M2784 2107 c-2 -7 -3 -87 -2 -177 l3 -165 287 0 287 0 41 40 40 39 0 102 0 103 -44 35 -43 36 -282 0 c-221 0 -283 -3 -287 -13z"/> <path d="M1440 1450 c-663 -4 -892 -8 -912 -17 -15 -7 -41 -31 -58 -54 -25 -36 -30 -51 -30 -102 0 -51 4 -64 32 -99 17 -23 50 -49 72 -59 39 -18 101 -19 1406 -19 1307 0 1367 1 1406 19 69 31 84 60 84 160 -1 95 -14 123 -75 154 -38 19 -641 24 -1925 17z"/> <path d="M1450 790 c-1001 -6 -932 0 -985 -77 -20 -30 -25 -50 -25 -100 0 -60 1 -63 51 -117 l51 -56 1408 0 1407 0 42 45 41 45 0 89 0 89 -39 35 c-22 20 -54 38 -73 41 -55 9 -929 11 -1878 6z"/> </g> </svg> 