 <svg  version="1.0" xmlns="http://www.w3.org/2000/svg"  width="390.000000pt" height="390.000000pt" viewBox="0 0 390.000000 390.000000"  preserveAspectRatio="xMidYMid meet">  <g transform="translate(0.000000,390.000000) scale(0.100000,-0.100000)" fill="#e1e1e1" stroke="none"> <path d="M1790 3424 c-19 -9 -42 -20 -50 -25 -8 -5 -24 -13 -35 -18 -42 -19 -112 -110 -139 -182 -21 -55 -18 -202 5 -260 24 -59 89 -140 134 -166 78 -45 108 -53 202 -53 85 0 100 3 156 31 72 35 97 57 141 119 136 196 47 473 -178 552 -64 23 -187 24 -236 2z"/> <path d="M1260 2513 c-8 -3 -25 -15 -37 -26 -22 -20 -23 -26 -23 -223 l0 -203 33 -30 32 -31 173 0 172 0 -2 -517 -3 -518 -167 -2 c-167 -2 -168 -2 -203 -30 l-35 -28 0 -206 0 -205 28 -27 28 -27 684 0 684 0 28 27 28 27 0 205 0 206 -35 28 c-35 28 -36 28 -203 30 l-167 2 -5 762 c-4 606 -8 765 -18 775 -10 10 -115 13 -495 15 -265 1 -489 -1 -497 -4z"/> </g> </svg> 