 <svg  version="1.0" xmlns="http://www.w3.org/2000/svg"  width="390.000000pt" height="390.000000pt" viewBox="0 0 390.000000 390.000000"  preserveAspectRatio="xMidYMid meet">  <g transform="translate(0.000000,390.000000) scale(0.100000,-0.100000)" fill="#e1e1e1" stroke="none"> <path d="M1691 3425 c-18 -8 -52 -15 -75 -15 -23 0 -51 -7 -62 -15 -10 -8 -32 -15 -49 -15 -16 0 -39 -7 -49 -15 -11 -8 -30 -15 -42 -15 -12 0 -27 -7 -34 -15 -7 -8 -23 -15 -35 -15 -12 0 -28 -7 -35 -15 -7 -8 -20 -15 -30 -15 -10 0 -23 -7 -30 -15 -7 -8 -20 -15 -30 -15 -10 0 -23 -7 -30 -15 -7 -8 -17 -15 -22 -15 -6 0 -27 -13 -47 -29 -20 -15 -41 -30 -48 -32 -29 -10 -218 -187 -304 -285 -38 -44 -149 -214 -149 -228 0 -8 -7 -19 -15 -26 -8 -7 -15 -20 -15 -30 0 -10 -7 -23 -15 -30 -8 -7 -15 -23 -15 -35 0 -12 -7 -28 -15 -35 -8 -7 -15 -22 -15 -34 0 -12 -7 -31 -15 -42 -8 -10 -15 -32 -15 -49 0 -16 -7 -39 -15 -49 -8 -11 -15 -39 -15 -62 0 -23 -7 -58 -16 -79 -13 -31 -15 -76 -12 -266 2 -165 6 -231 16 -241 6 -6 12 -33 12 -58 0 -25 7 -55 15 -66 8 -10 15 -33 15 -50 0 -16 7 -39 15 -50 8 -10 15 -27 15 -37 0 -11 6 -31 14 -45 8 -15 24 -47 36 -72 11 -25 25 -52 30 -60 5 -8 11 -22 14 -30 4 -8 15 -28 26 -45 11 -16 23 -38 26 -47 4 -10 10 -18 15 -18 6 0 13 -9 17 -19 13 -36 165 -211 231 -267 36 -31 77 -66 91 -77 30 -26 58 -44 83 -53 9 -3 17 -10 17 -14 0 -4 17 -17 37 -27 36 -18 135 -68 196 -99 16 -8 36 -14 45 -14 9 0 26 -7 36 -15 11 -8 31 -15 45 -15 14 -1 37 -7 51 -15 14 -8 43 -14 65 -15 23 0 47 -6 53 -13 10 -9 80 -13 266 -15 212 -3 260 -1 291 12 21 9 54 16 74 16 21 0 46 7 57 15 10 8 33 15 50 15 17 0 37 7 44 15 7 8 21 15 32 15 11 0 32 6 46 14 15 7 62 31 105 52 43 22 86 44 95 49 66 40 108 69 117 79 6 6 30 27 55 45 68 52 157 139 208 206 25 33 51 65 57 70 11 10 57 78 81 120 7 11 28 54 49 95 20 41 43 87 51 102 8 14 14 34 14 45 0 10 7 27 15 37 8 11 15 31 15 45 0 14 7 35 15 45 8 11 15 36 15 57 0 20 7 53 15 72 22 53 22 509 0 551 -8 15 -15 45 -15 65 -1 20 -7 47 -15 61 -8 14 -14 37 -15 51 0 14 -7 34 -15 45 -8 10 -15 29 -15 40 0 12 -7 27 -15 34 -8 7 -15 23 -15 35 0 12 -7 28 -15 35 -8 7 -15 20 -15 30 0 10 -7 23 -15 30 -8 7 -15 18 -15 25 0 7 -7 18 -15 25 -8 7 -15 21 -15 32 0 10 -7 21 -15 24 -8 4 -15 11 -15 16 0 18 -120 167 -195 243 -69 69 -208 182 -245 198 -8 4 -28 16 -45 26 -51 33 -166 91 -180 91 -7 0 -18 7 -25 15 -7 8 -24 15 -39 15 -14 0 -35 7 -45 15 -11 8 -31 15 -45 15 -14 1 -37 7 -51 15 -14 8 -45 14 -71 15 -25 0 -51 6 -57 13 -21 20 -466 22 -511 2z m419 -120 c30 -8 72 -15 93 -15 21 0 48 -5 60 -12 12 -6 38 -15 57 -19 37 -7 85 -23 135 -45 17 -7 37 -15 45 -18 8 -3 23 -10 33 -16 45 -26 53 -31 72 -40 11 -6 34 -19 50 -30 17 -11 38 -23 48 -26 9 -4 17 -10 17 -15 0 -5 13 -15 30 -24 39 -20 135 -108 224 -205 47 -51 166 -226 166 -244 0 -8 7 -19 15 -26 8 -7 15 -20 15 -30 0 -10 7 -23 15 -30 8 -7 15 -21 15 -30 0 -10 6 -31 14 -47 21 -42 37 -93 46 -143 5 -25 13 -58 18 -75 12 -35 25 -257 16 -278 -4 -12 -16 -14 -52 -10 -26 3 -84 8 -129 10 -57 3 -83 9 -87 18 -8 23 12 28 118 29 94 1 101 2 101 21 0 20 -6 20 -483 18 -337 -2 -488 -6 -497 -13 -10 -9 -20 -7 -38 5 -19 12 -46 15 -118 13 -91 -3 -94 -4 -107 -30 -7 -15 -22 -30 -34 -34 -21 -6 -34 4 -57 45 -6 10 -37 13 -127 13 -110 0 -120 -2 -136 -22 -10 -12 -18 -28 -18 -35 0 -19 28 -38 46 -31 31 12 54 -3 54 -35 0 -34 -12 -37 -32 -7 -12 18 -23 21 -66 19 -54 -2 -67 10 -32 29 15 8 18 17 13 43 -3 17 -7 33 -8 35 -1 1 -152 3 -336 4 l-334 1 -55 -28 c-30 -16 -56 -33 -58 -37 -2 -4 -8 -8 -13 -8 -5 0 -2 11 7 25 29 44 16 50 -97 48 -80 -1 -106 -5 -115 -17 -13 -18 -8 -106 8 -148 12 -33 65 -68 102 -68 15 0 25 -4 21 -9 -10 -18 -64 -39 -84 -34 -28 7 -35 -13 -17 -49 9 -17 16 -38 16 -48 0 -43 74 -58 89 -17 7 16 5 25 -7 35 -53 41 -64 54 -53 65 8 8 18 4 38 -15 16 -14 38 -31 50 -37 19 -9 21 -17 16 -43 -6 -29 -5 -31 18 -24 13 4 56 9 94 11 60 4 66 3 43 -7 -40 -17 -45 -45 -14 -77 14 -15 26 -34 26 -43 0 -32 26 -39 131 -36 97 3 104 4 107 24 2 12 14 26 27 32 15 7 28 24 33 44 10 38 26 40 30 4 2 -17 -4 -29 -17 -38 -28 -17 -27 -56 2 -67 36 -13 298 -21 321 -9 38 20 68 61 60 83 -11 33 -6 93 12 119 8 14 14 35 12 48 l-3 23 -240 0 c-132 0 -257 -4 -277 -8 -36 -7 -38 -7 -38 17 0 18 -15 36 -55 68 -49 38 -55 46 -49 71 3 16 1 34 -6 43 -10 11 -9 18 5 34 29 32 59 26 74 -15 13 -37 9 -55 -14 -55 -8 0 -16 -4 -20 -10 -7 -11 16 -50 30 -50 6 0 23 -14 38 -31 34 -39 70 -37 75 4 2 16 10 31 18 34 8 3 14 18 14 33 0 15 7 33 15 40 13 11 15 8 15 -18 0 -17 -7 -38 -16 -46 -8 -9 -14 -28 -12 -43 l3 -28 160 0 160 0 3 28 c4 32 25 32 30 0 5 -33 107 -48 118 -18 3 8 21 24 39 35 26 16 31 25 27 45 -4 22 -1 25 27 25 17 0 31 5 31 10 0 6 8 10 18 10 12 0 7 -9 -21 -34 -41 -37 -42 -62 -1 -72 28 -7 112 -1 137 10 13 6 17 3 17 -13 0 -24 16 -29 115 -34 39 -2 102 -9 140 -15 85 -14 273 -40 335 -46 25 -3 62 -8 82 -12 33 -6 41 -3 68 24 16 17 30 35 30 41 0 6 -24 14 -52 18 l-53 7 70 8 c75 9 69 4 150 104 65 80 85 98 97 86 7 -7 -3 -28 -34 -69 -24 -32 -58 -79 -75 -105 -17 -26 -42 -61 -55 -79 l-23 -31 25 -17 c14 -9 41 -32 60 -52 l35 -36 157 1 c172 1 182 5 184 59 1 18 10 53 19 79 25 70 17 81 -50 73 -60 -8 -109 0 -100 15 3 6 28 10 55 10 43 0 52 4 72 30 13 19 31 30 46 30 23 0 23 0 19 -97 -4 -91 -13 -141 -39 -218 -5 -16 -12 -41 -15 -55 -2 -14 -11 -38 -18 -55 -36 -78 -88 -183 -105 -210 -11 -16 -24 -39 -29 -50 -17 -36 -155 -201 -202 -241 -122 -103 -142 -119 -153 -123 -6 -2 -27 -17 -47 -32 -20 -16 -41 -29 -47 -29 -5 0 -15 -7 -22 -15 -7 -8 -20 -15 -30 -15 -10 0 -23 -7 -30 -15 -7 -8 -20 -15 -30 -15 -10 0 -23 -7 -30 -15 -8 -10 -30 -15 -62 -15 -28 0 -64 -6 -81 -14 -49 -20 -115 -37 -192 -46 -38 -5 -91 -14 -118 -20 -62 -13 -162 -13 -224 0 -27 6 -80 15 -118 20 -70 8 -142 25 -180 41 -43 18 -112 41 -145 48 -35 8 -122 52 -151 77 -8 8 -19 14 -23 14 -12 0 -158 115 -217 171 -30 30 -71 74 -89 99 -19 25 -45 56 -58 70 -14 14 -28 34 -33 45 -5 11 -18 34 -29 50 -11 17 -24 39 -30 50 -5 11 -14 27 -19 35 -5 8 -17 33 -26 55 -10 22 -24 52 -32 67 -7 14 -13 34 -13 45 0 10 -7 27 -15 37 -8 11 -15 34 -15 50 -1 17 -7 42 -15 56 -8 14 -15 45 -15 70 0 25 -7 70 -15 100 -19 71 -19 239 0 310 8 30 15 75 15 101 0 25 4 49 10 55 5 5 14 30 19 54 14 70 38 133 91 240 123 248 362 488 610 610 36 17 78 38 93 46 16 8 36 14 46 14 9 0 26 7 37 15 10 8 33 15 49 15 17 0 41 7 55 15 14 8 43 15 65 15 22 1 63 7 90 15 69 19 284 19 355 0z m-20 -1361 c0 -16 -16 -19 -25 -4 -8 13 4 32 16 25 5 -4 9 -13 9 -21z m50 -49 c-6 -12 -41 -8 -55 6 -7 7 1 9 25 7 19 -2 33 -7 30 -13z m280 6 c0 -12 -28 -22 -34 -12 -3 5 -3 11 1 15 9 9 33 7 33 -3z m-190 -31 c10 -6 11 -12 5 -19 -13 -12 -59 5 -50 19 8 12 25 13 45 0z m144 -15 c15 -24 15 -25 -2 -25 -26 0 -56 25 -48 38 12 19 33 14 50 -13z m-1396 -17 c-5 -15 -88 -24 -88 -10 0 16 13 22 53 22 26 0 37 -4 35 -12z m-100 -30 c-5 -15 -108 -24 -108 -9 0 12 24 18 73 20 27 1 37 -3 35 -11z m1571 3 c8 -5 9 -11 3 -15 -14 -8 -43 4 -36 15 7 11 15 11 33 0z m66 -30 c7 -12 -12 -24 -25 -16 -11 7 -4 25 10 25 5 0 11 -4 15 -9z m-1435 -132 c0 -16 -5 -20 -27 -17 -17 2 -29 10 -31 21 -3 13 3 17 27 17 25 0 31 -4 31 -21z m71 -24 c0 -5 -7 -12 -16 -13 -23 -5 -47 6 -40 19 8 13 56 8 56 -6z"/> <path d="M1746 1721 c-9 -10 -16 -25 -16 -35 0 -9 -7 -27 -16 -41 -8 -13 -14 -38 -12 -57 3 -29 7 -33 34 -36 19 -2 36 3 44 12 13 17 75 22 84 7 7 -11 -17 -21 -49 -21 -24 0 -46 -16 -150 -111 -34 -31 -72 -62 -84 -69 -46 -24 -10 -57 65 -59 18 -1 45 -8 60 -16 16 -8 43 -15 59 -15 17 0 51 -7 77 -17 44 -15 51 -15 116 0 39 9 88 17 111 17 23 0 58 7 78 15 19 8 44 15 54 15 17 0 130 55 187 91 12 8 25 22 28 32 7 24 -22 57 -51 57 -23 0 -65 38 -65 59 0 7 -6 27 -14 44 -8 18 -16 41 -18 51 -4 24 -100 56 -169 56 -26 0 -80 6 -120 14 -41 8 -106 17 -146 20 -59 4 -74 2 -87 -13z"/> <path d="M2333 1654 c-3 -8 2 -33 12 -55 18 -40 40 -54 140 -92 22 -8 47 -18 55 -21 8 -4 31 -16 50 -27 76 -47 194 -63 223 -31 23 26 20 48 -16 117 l-32 60 -73 14 c-59 12 -79 13 -105 3 -27 -10 -34 -10 -43 3 -6 8 -22 15 -35 15 -13 0 -49 7 -79 15 -70 19 -89 19 -97 -1z"/> <path d="M750 1553 c-67 -5 -77 -13 -57 -50 9 -15 32 -62 52 -103 20 -41 45 -88 55 -105 11 -16 24 -39 30 -50 16 -33 34 -52 58 -59 14 -5 22 -15 22 -30 0 -23 130 -168 161 -179 11 -3 28 10 53 44 26 34 43 49 60 49 13 0 29 7 36 15 7 8 20 15 29 15 19 0 39 22 106 110 27 36 55 69 62 73 7 4 13 14 13 21 0 8 7 19 16 26 8 8 14 25 12 39 l-3 26 -240 6 c-132 4 -250 7 -262 8 -15 1 -28 15 -43 46 -12 26 -34 52 -50 60 -15 8 -30 21 -33 30 -4 8 -10 14 -14 13 -4 -1 -33 -3 -63 -5z m221 -348 c0 -5 -9 -11 -21 -13 -20 -3 -27 8 -13 22 10 9 34 3 34 -9z"/> <path d="M3041 1509 c-17 -14 -39 -19 -82 -19 l-59 0 0 -31 c0 -17 4 -39 10 -49 10 -19 142 -120 157 -120 11 0 73 106 73 125 0 7 7 18 15 25 35 29 6 73 -55 83 -26 4 -42 0 -59 -14z"/> <path d="M2500 1368 c-66 -42 -75 -47 -97 -57 -11 -5 -24 -15 -28 -20 -3 -6 -16 -11 -29 -11 -12 0 -31 -7 -42 -15 -10 -8 -29 -15 -41 -15 -34 0 -30 -41 7 -68 16 -12 33 -22 38 -22 6 0 17 -11 26 -25 10 -14 27 -30 39 -36 12 -5 49 -25 82 -44 87 -50 104 -56 139 -50 37 7 60 23 69 48 7 18 42 23 52 7 4 -6 -7 -15 -24 -21 -17 -6 -31 -18 -31 -27 0 -8 -7 -23 -16 -33 -29 -32 -15 -119 18 -119 11 0 42 26 99 83 21 20 43 37 50 37 15 0 59 42 59 57 0 6 -6 14 -12 17 -7 3 -3 3 9 1 32 -8 93 58 93 100 0 18 -7 38 -15 45 -8 7 -15 18 -15 24 0 12 -24 36 -87 84 -36 28 -55 34 -149 47 -60 9 -113 20 -118 25 -15 15 -38 12 -76 -12z m315 -289 c-4 -5 -19 -9 -36 -9 -21 0 -29 5 -29 18 0 10 3 21 6 24 8 9 65 -23 59 -33z"/> <path d="M1459 1247 c-18 -18 -60 -64 -92 -103 -45 -56 -72 -79 -125 -106 -37 -19 -72 -44 -77 -55 -6 -11 -17 -28 -25 -37 -12 -15 -10 -20 9 -39 20 -20 30 -22 117 -19 53 2 107 7 120 13 14 5 58 11 97 14 88 7 168 23 187 39 23 17 60 73 60 89 0 8 7 20 15 27 8 7 15 17 15 23 0 6 9 30 21 54 11 23 19 48 17 54 -4 12 -71 34 -138 45 -19 4 -54 12 -78 20 -63 21 -84 17 -123 -19z"/> <path d="M2051 1220 c-45 -5 -57 -11 -82 -40 -16 -19 -29 -39 -29 -44 0 -4 -13 -27 -28 -50 -15 -22 -31 -48 -35 -56 -4 -8 -16 -28 -27 -45 -11 -16 -24 -40 -29 -52 -5 -11 -15 -24 -20 -28 -15 -9 -14 -68 2 -86 6 -9 32 -31 57 -50 25 -18 50 -39 55 -45 6 -6 29 -25 53 -44 42 -31 46 -33 110 -27 123 10 269 50 405 111 55 24 63 42 54 118 -7 57 -19 75 -62 95 -44 21 -75 39 -88 52 -16 16 -68 13 -91 -4 -26 -20 -180 -22 -173 -2 2 7 22 12 48 13 72 2 77 3 99 27 l22 22 -59 52 c-32 29 -63 53 -69 53 -7 0 -14 6 -17 14 -7 18 -32 23 -96 16z m69 -233 c0 -21 -20 -35 -41 -30 -17 5 -17 6 4 24 26 22 37 24 37 6z"/> <path d="M1555 838 c-22 -5 -65 -16 -95 -25 -30 -8 -61 -17 -67 -19 -17 -4 -16 -19 0 -32 14 -12 89 -41 127 -49 14 -3 30 -9 35 -14 6 -4 35 -13 65 -18 30 -6 67 -13 81 -16 46 -12 44 20 -5 70 -28 28 -46 57 -50 80 -8 39 -16 41 -91 23z"/> </g> </svg> 