 <svg  version="1.0" xmlns="http://www.w3.org/2000/svg"  width="390.000000pt" height="390.000000pt" viewBox="0 0 390.000000 390.000000"  preserveAspectRatio="xMidYMid meet">  <g transform="translate(0.000000,390.000000) scale(0.100000,-0.100000)" fill="#e1e1e1" stroke="none"> <path d="M1216 3245 c-11 -8 -29 -15 -41 -15 -12 0 -30 -7 -41 -15 -10 -8 -27 -15 -37 -15 -10 0 -20 -7 -23 -15 -4 -8 -11 -15 -16 -15 -16 0 -87 -58 -159 -129 -58 -58 -119 -137 -155 -202 -7 -12 -17 -26 -23 -32 -6 -6 -11 -19 -11 -28 0 -9 -7 -22 -15 -29 -8 -7 -15 -20 -15 -30 0 -10 -7 -23 -15 -30 -8 -7 -15 -22 -15 -34 0 -11 -7 -30 -15 -40 -8 -11 -15 -32 -15 -47 0 -14 -7 -43 -15 -62 -22 -52 -20 -136 3 -143 9 -3 30 -12 45 -20 16 -7 38 -14 50 -14 12 0 31 -7 41 -15 11 -8 34 -15 51 -15 27 0 32 5 48 49 9 27 17 66 17 87 1 22 7 50 15 64 8 14 14 37 15 51 0 15 7 32 15 39 8 7 15 23 15 35 0 12 7 28 15 35 8 7 15 21 15 31 0 10 5 21 11 24 5 4 15 17 20 28 5 12 18 36 29 52 11 17 24 40 30 53 12 28 245 262 260 262 6 0 26 11 44 25 17 13 50 30 71 37 29 9 41 19 43 36 3 17 -2 22 -20 22 -13 0 -32 7 -42 15 -27 20 -154 20 -180 0z"/> <path d="M1550 3125 c-14 -8 -35 -14 -46 -15 -12 0 -27 -7 -34 -15 -7 -8 -19 -15 -27 -15 -17 0 -119 -76 -182 -134 -42 -40 -150 -175 -164 -206 -4 -8 -16 -28 -26 -45 -46 -71 -106 -215 -121 -290 -5 -22 -13 -58 -19 -80 -16 -62 10 -85 128 -115 18 -5 38 -13 44 -19 6 -6 25 -11 43 -11 17 0 37 -6 43 -14 6 -8 24 -16 39 -19 29 -5 76 -21 130 -43 18 -8 43 -14 55 -14 12 0 31 -7 41 -15 11 -8 29 -15 41 -15 12 0 30 -7 41 -15 10 -8 30 -15 44 -15 14 0 34 -7 44 -15 11 -8 31 -15 45 -15 14 0 35 -7 45 -15 11 -8 32 -15 46 -15 14 0 31 -5 38 -12 22 -22 39 10 47 90 4 42 13 89 21 104 8 15 14 37 14 50 0 13 7 32 15 42 8 11 15 30 15 42 0 12 7 27 15 34 8 7 15 20 15 30 0 10 7 23 15 30 8 7 15 18 15 25 0 7 20 40 45 74 25 34 45 64 45 69 0 14 155 167 215 212 69 52 109 75 146 84 45 10 50 56 6 56 -12 0 -31 7 -41 15 -11 8 -31 15 -46 15 -14 0 -34 6 -45 14 -11 7 -33 16 -50 18 -36 7 -89 25 -128 44 -16 8 -39 14 -51 14 -12 0 -31 7 -42 15 -10 8 -30 15 -44 15 -15 0 -31 5 -37 11 -6 6 -29 15 -50 19 -45 10 -97 27 -136 46 -38 19 -174 18 -207 -1z"/> <path d="M2530 2793 c-19 -8 -42 -19 -50 -24 -8 -5 -19 -11 -25 -13 -46 -18 -69 -32 -110 -65 -50 -41 -217 -214 -227 -236 -9 -21 -26 -49 -58 -100 -10 -16 -28 -50 -40 -75 -12 -25 -28 -57 -36 -72 -8 -14 -14 -37 -14 -50 0 -13 -5 -29 -12 -36 -7 -7 -16 -38 -20 -70 -4 -31 -10 -73 -13 -92 -6 -33 -4 -36 37 -57 24 -12 54 -23 68 -26 28 -6 86 -25 112 -38 27 -14 55 -11 62 7 3 9 6 43 6 77 1 39 6 69 15 81 8 11 15 34 15 52 0 17 7 37 15 44 8 7 15 22 15 34 0 12 7 31 15 42 8 10 15 26 15 35 0 9 7 22 15 29 8 7 15 18 15 26 0 26 116 186 191 264 24 25 65 61 92 80 26 18 47 37 47 41 0 3 8 9 18 13 9 3 31 15 47 26 36 24 42 27 78 35 22 4 28 11 25 28 -2 16 -12 23 -38 28 -19 3 -45 11 -57 17 -31 17 -161 14 -203 -5z"/> <path d="M2930 2675 c-14 -8 -35 -14 -46 -15 -12 0 -27 -7 -34 -15 -7 -8 -21 -15 -31 -15 -10 0 -21 -5 -24 -11 -4 -5 -17 -15 -28 -20 -47 -21 -68 -38 -144 -114 -83 -84 -143 -156 -143 -173 0 -5 -7 -12 -15 -16 -8 -3 -15 -12 -15 -20 0 -8 -13 -35 -30 -59 -16 -25 -30 -51 -30 -59 0 -8 -5 -19 -12 -26 -14 -14 -37 -73 -47 -122 -4 -19 -13 -45 -19 -57 -7 -12 -12 -47 -12 -77 0 -48 3 -56 19 -56 10 0 24 7 31 15 7 8 19 15 28 15 8 0 44 14 79 30 34 17 69 30 77 30 7 0 19 7 26 15 7 8 23 15 35 15 12 0 28 7 35 15 7 8 21 15 30 15 10 0 31 6 47 14 15 7 45 21 66 30 75 32 103 44 137 59 48 20 98 41 143 61 21 9 44 16 51 16 8 0 19 7 26 15 7 8 23 15 35 15 12 0 28 7 35 15 7 8 22 15 35 15 40 0 55 30 55 111 0 149 -72 294 -172 344 -57 29 -147 34 -188 10z"/> <path d="M595 2258 c-3 -7 -4 -249 -3 -537 l3 -523 35 -18 c46 -24 94 -40 180 -61 13 -4 15 61 18 526 l2 530 -21 18 c-12 9 -33 17 -48 17 -15 0 -36 7 -47 15 -10 8 -27 15 -37 15 -10 0 -31 7 -48 15 -23 13 -30 13 -34 3z"/> <path d="M938 2139 c-17 -9 -18 -45 -18 -527 0 -284 4 -521 8 -527 12 -16 72 -45 95 -45 12 0 31 -7 41 -15 11 -8 31 -15 45 -15 14 0 35 -7 45 -15 11 -8 29 -15 40 -15 12 0 30 -7 40 -15 11 -8 30 -15 42 -15 12 0 35 -6 51 -14 42 -21 94 -38 130 -43 18 -3 38 -11 44 -19 6 -8 24 -14 39 -14 15 0 33 -7 40 -15 7 -8 19 -15 27 -15 20 0 110 -29 146 -46 16 -8 37 -14 48 -14 18 0 19 14 19 538 l-1 537 -38 18 c-20 9 -46 17 -57 17 -11 0 -25 5 -31 11 -7 7 -19 9 -27 6 -14 -6 -16 -46 -16 -333 l0 -326 -42 7 c-24 4 -55 14 -70 21 -15 8 -38 14 -51 14 -14 0 -30 6 -36 14 -6 8 -26 16 -44 19 -31 4 -69 16 -132 42 -56 23 -100 37 -130 42 -55 9 -55 9 -55 363 0 304 -1 328 -18 343 -10 10 -30 17 -43 17 -14 0 -34 7 -45 15 -23 17 -24 17 -46 4z"/> <path d="M3230 2105 c-7 -8 -19 -15 -26 -15 -8 0 -43 -13 -77 -30 -35 -16 -71 -30 -79 -30 -9 0 -21 -7 -28 -15 -7 -8 -21 -15 -30 -15 -10 0 -31 -6 -47 -14 -28 -14 -70 -33 -138 -61 -37 -16 -91 -39 -140 -60 -16 -7 -55 -23 -85 -35 -30 -12 -59 -26 -64 -31 -6 -5 -20 -9 -32 -9 -12 0 -27 -7 -34 -15 -7 -8 -19 -15 -28 -15 -8 0 -39 -11 -69 -25 l-53 -26 0 -539 c0 -358 3 -540 10 -540 10 0 20 4 78 33 19 9 42 17 52 17 9 0 23 7 30 15 7 8 23 15 35 15 12 0 28 7 35 15 7 8 22 15 34 15 11 0 30 7 40 15 11 8 27 15 37 15 9 0 22 7 29 15 7 8 21 15 32 15 11 0 32 6 46 13 15 8 42 21 60 30 19 9 39 17 47 17 7 0 18 7 25 15 7 8 21 15 32 15 11 0 32 6 46 13 15 8 42 21 60 30 19 9 42 17 52 17 9 0 23 7 30 15 7 8 19 15 27 15 15 0 30 7 108 47 l40 21 0 533 c0 534 0 534 -21 537 -11 2 -27 -4 -34 -13z"/> <path d="M1190 1776 c0 -283 0 -284 23 -298 12 -8 33 -17 47 -20 14 -3 41 -12 60 -18 19 -7 51 -18 70 -25 19 -7 51 -18 70 -25 19 -7 48 -13 64 -14 l30 -1 1 273 c0 150 -2 277 -5 281 -9 15 -68 41 -92 41 -13 0 -32 7 -42 15 -11 8 -29 15 -41 15 -12 0 -30 7 -41 15 -10 8 -31 15 -45 15 -14 0 -34 7 -45 15 -10 8 -27 15 -36 15 -17 0 -18 -20 -18 -284z m247 82 c33 -30 31 -89 -3 -134 -23 -30 -26 -41 -22 -94 5 -70 -4 -83 -54 -78 l-33 3 3 66 c3 59 1 69 -22 96 -32 38 -36 112 -8 142 26 29 108 28 139 -1z"/> <path d="M1926 1791 c-4 -5 -7 -245 -7 -533 0 -483 2 -524 18 -535 9 -7 26 -13 38 -13 12 0 26 -5 32 -11 6 -6 26 -14 44 -19 19 -5 55 -16 81 -26 84 -29 78 -70 78 519 0 495 -1 525 -18 540 -10 10 -25 17 -33 17 -8 0 -23 7 -33 15 -11 8 -30 15 -43 15 -13 0 -34 6 -46 14 -30 19 -103 30 -111 17z"/> </g> </svg> 