 <svg  version="1.0" xmlns="http://www.w3.org/2000/svg"  width="390.000000pt" height="390.000000pt" viewBox="0 0 390.000000 390.000000"  preserveAspectRatio="xMidYMid meet">  <g transform="translate(0.000000,390.000000) scale(0.100000,-0.100000)" fill="#e1e1e1" stroke="none"> <path d="M447 3434 c-4 -4 -7 -76 -7 -161 0 -126 3 -155 15 -159 8 -3 81 -7 162 -7 l148 -2 0 165 0 165 -156 3 c-85 1 -158 -1 -162 -4z"/> <path d="M1077 3433 c-11 -10 -8 -321 2 -328 6 -3 514 -6 1130 -6 1036 -1 1122 1 1155 16 61 29 76 60 76 158 0 85 0 85 -38 126 l-38 41 -1140 0 c-628 0 -1144 -3 -1147 -7z"/> <path d="M595 2780 l-150 -5 0 -160 0 -160 60 -7 c143 -18 247 -21 256 -7 14 23 11 336 -3 340 -7 2 -80 2 -163 -1z"/> <path d="M1705 2780 l-630 -5 -2 -160 c-2 -88 1 -166 5 -173 12 -18 2190 -19 2252 -1 24 7 59 28 77 46 32 33 33 35 33 121 -1 96 -14 124 -75 154 -37 19 -688 26 -1660 18z"/> <path d="M444 2107 c-2 -7 -3 -80 -2 -162 l3 -150 25 -3 c14 -1 41 -10 60 -18 25 -11 63 -14 135 -12 l100 3 3 178 2 177 -160 0 c-122 0 -162 -3 -166 -13z"/> <path d="M1074 2107 c-2 -7 -3 -87 -2 -177 l3 -165 1142 0 1142 0 41 40 40 39 0 102 0 103 -44 35 -43 36 -1137 0 c-918 0 -1138 -2 -1142 -13z"/> <path d="M444 1447 c-2 -7 -3 -80 -2 -162 l3 -150 25 -3 c14 -1 50 -9 80 -18 35 -10 84 -14 135 -12 l80 3 3 178 2 177 -160 0 c-122 0 -162 -3 -166 -13z"/> <path d="M1079 1449 c-6 -3 -8 -78 -7 -175 l3 -169 1115 -3 c1231 -3 1170 -6 1225 59 23 28 25 39 25 117 -1 97 -14 124 -79 157 -32 16 -115 17 -1154 19 -615 0 -1123 -2 -1128 -5z"/> <path d="M444 787 c-2 -7 -3 -80 -2 -162 l3 -150 37 -6 c20 -3 43 -11 51 -18 10 -8 50 -11 123 -9 l109 3 3 178 2 177 -160 0 c-122 0 -162 -3 -166 -13z"/> <path d="M1710 790 l-635 -5 0 -170 0 -170 1141 -3 1141 -2 42 45 41 45 0 89 0 89 -39 35 c-22 20 -54 38 -73 41 -53 8 -928 11 -1618 6z"/> </g> </svg> 