 <svg  version="1.0" xmlns="http://www.w3.org/2000/svg"  width="390.000000pt" height="390.000000pt" viewBox="0 0 390.000000 390.000000"  preserveAspectRatio="xMidYMid meet">  <g transform="translate(0.000000,390.000000) scale(0.100000,-0.100000)" fill="#e1e1e1" stroke="none"> <path d="M1715 3425 c-117 -24 -208 -46 -245 -59 -92 -35 -130 -52 -195 -83 -38 -19 -83 -43 -100 -54 -16 -10 -37 -22 -45 -26 -19 -8 -125 -88 -163 -123 -114 -101 -264 -273 -290 -330 -4 -8 -16 -28 -26 -45 -25 -39 -83 -158 -105 -215 -10 -25 -24 -60 -32 -78 -8 -18 -14 -40 -14 -48 0 -9 -7 -37 -15 -63 -60 -192 -60 -530 0 -722 8 -26 15 -54 15 -63 0 -8 6 -30 14 -48 8 -18 22 -53 31 -78 24 -60 81 -177 105 -215 11 -16 23 -37 27 -45 26 -57 176 -229 290 -330 38 -35 144 -115 163 -123 8 -4 29 -16 45 -26 38 -25 157 -83 213 -104 100 -39 120 -46 182 -61 271 -64 489 -64 745 1 117 30 303 107 390 163 17 11 40 24 53 30 24 10 30 44 9 57 -7 4 -49 50 -92 101 -43 50 -84 92 -89 92 -6 0 -22 -7 -36 -14 -150 -84 -271 -127 -430 -151 -242 -37 -488 0 -702 106 -139 68 -205 116 -318 229 -111 111 -163 183 -220 300 -12 25 -26 53 -31 62 -53 101 -98 318 -98 478 0 160 43 370 98 478 5 9 18 37 30 62 12 25 31 59 41 75 11 17 23 37 27 46 19 40 167 201 250 271 141 119 354 211 563 243 270 41 556 -13 785 -149 51 -30 109 -70 138 -94 83 -70 231 -231 250 -271 4 -9 16 -29 27 -46 10 -16 29 -50 41 -75 12 -25 25 -53 30 -62 54 -106 98 -322 98 -478 0 -100 -23 -278 -38 -293 -6 -6 -11 -17 -11 -25 0 -24 -59 -89 -100 -111 -105 -54 -236 2 -268 114 -6 22 -13 135 -15 250 -3 166 -7 218 -21 249 -9 21 -16 45 -16 52 0 27 -64 150 -108 208 -112 146 -235 233 -410 288 -96 31 -308 31 -404 0 -175 -55 -298 -142 -410 -288 -44 -58 -108 -181 -108 -208 0 -7 -7 -31 -17 -52 -24 -56 -24 -312 0 -368 9 -21 17 -45 17 -52 0 -27 64 -150 108 -208 112 -146 235 -233 410 -288 54 -17 92 -21 202 -21 146 0 206 13 327 69 57 27 167 104 190 134 10 13 20 6 70 -46 96 -102 190 -148 321 -159 79 -7 161 3 222 26 85 33 217 141 255 210 47 85 74 156 86 224 4 28 13 68 18 90 27 105 8 419 -34 570 -8 28 -16 59 -19 70 -15 66 -100 256 -147 330 -10 17 -22 37 -26 45 -3 8 -27 42 -52 75 -176 233 -404 410 -658 508 -101 39 -121 46 -183 61 -207 49 -442 61 -595 31z m342 -1051 c91 -30 138 -58 199 -118 147 -148 175 -340 78 -536 -25 -51 -132 -153 -184 -177 -81 -38 -143 -53 -210 -53 -117 0 -228 47 -316 134 -147 148 -175 340 -78 536 25 49 133 155 180 176 124 56 238 69 331 38z"/> </g> </svg> 