 <svg  version="1.0" xmlns="http://www.w3.org/2000/svg"  width="390.000000pt" height="390.000000pt" viewBox="0 0 390.000000 390.000000"  preserveAspectRatio="xMidYMid meet">  <g transform="translate(0.000000,390.000000) scale(0.100000,-0.100000)" fill="#e1e1e1" stroke="none"> <path d="M2560 3420 c-22 -11 -63 -56 -110 -119 -46 -63 -81 -101 -92 -101 -10 0 -42 12 -71 26 -117 58 -230 79 -279 53 -11 -6 -76 -64 -145 -129 l-124 -117 -61 -7 c-33 -3 -79 -6 -101 -6 -52 0 -231 -45 -307 -77 -122 -52 -258 -130 -335 -193 -94 -77 -264 -266 -288 -320 -4 -8 -16 -28 -27 -45 -24 -39 -90 -173 -90 -185 0 -5 -6 -24 -14 -42 -58 -135 -88 -381 -67 -538 22 -158 29 -201 39 -213 5 -7 12 -25 15 -42 12 -68 81 -222 142 -313 19 -30 35 -56 35 -59 0 -3 21 -31 47 -62 84 -102 246 -251 272 -251 6 0 11 -4 11 -8 0 -5 10 -14 23 -21 12 -6 36 -20 52 -31 37 -24 172 -90 184 -90 5 0 22 -6 38 -14 38 -19 120 -41 224 -62 99 -19 367 -16 454 5 179 44 323 99 420 162 17 10 40 24 53 30 12 7 22 16 22 21 0 4 5 8 11 8 46 0 298 263 349 365 3 6 16 28 30 50 14 22 34 58 44 80 11 22 25 52 33 67 7 14 13 33 13 41 0 8 7 28 15 43 8 16 15 39 15 52 0 13 5 33 12 45 11 21 22 96 36 251 l7 78 120 117 c141 136 150 153 130 250 -16 76 -37 137 -53 153 -7 7 -12 17 -12 24 0 6 -7 17 -15 24 -24 20 -18 48 14 65 16 8 31 18 33 23 1 5 31 27 65 50 102 69 113 85 113 164 0 57 -6 79 -35 140 -19 40 -41 82 -48 93 -154 247 -446 500 -651 566 -72 23 -101 23 -146 -1z m-21 -315 c4 -22 81 -144 120 -190 14 -16 80 -84 147 -151 109 -108 214 -190 299 -234 29 -15 47 -50 25 -50 -6 0 -64 -39 -128 -88 -64 -48 -134 -98 -154 -112 -21 -14 -38 -28 -38 -32 0 -61 -305 218 -507 464 -35 42 -63 80 -63 84 0 4 6 12 14 18 7 6 55 67 107 136 51 69 97 127 102 129 5 2 13 14 18 28 11 30 52 29 58 -2z m-585 -107 c9 -12 16 -30 16 -39 0 -9 7 -22 15 -29 8 -7 15 -18 15 -25 0 -12 125 -205 139 -215 4 -3 29 -34 56 -70 114 -151 360 -391 516 -503 13 -9 44 -32 68 -49 56 -40 109 -71 184 -105 31 -14 57 -29 57 -33 0 -3 -30 -36 -66 -73 -83 -85 -102 -87 -229 -22 -49 25 -97 52 -106 60 -8 8 -19 15 -23 15 -9 0 -150 107 -213 162 -66 58 -288 280 -347 348 -42 48 -104 134 -158 218 -42 67 -88 175 -88 209 0 32 9 46 68 104 37 38 70 68 74 68 4 1 14 -9 22 -21z m-316 -143 c9 -58 42 -151 73 -205 5 -8 14 -26 20 -40 6 -14 21 -39 35 -57 13 -17 24 -34 24 -38 0 -7 108 -151 149 -200 37 -43 309 -314 356 -354 22 -19 65 -52 95 -75 30 -22 57 -43 60 -47 6 -6 96 -68 122 -84 106 -63 236 -115 289 -115 15 0 30 -4 33 -9 5 -8 -4 -56 -35 -186 -21 -86 -30 -116 -38 -133 -9 -20 -36 -80 -45 -102 -3 -8 -15 -28 -26 -45 -11 -16 -23 -37 -27 -45 -14 -32 -100 -138 -158 -195 -111 -111 -237 -196 -385 -258 -31 -13 -77 -28 -177 -58 -100 -30 -394 -35 -484 -8 -19 5 -52 14 -74 19 -162 36 -380 163 -520 304 -75 75 -161 188 -184 243 -6 11 -15 24 -20 28 -6 3 -11 14 -11 24 0 9 -5 22 -12 29 -12 12 -33 63 -48 117 -4 17 -13 44 -19 60 -28 84 -41 180 -41 316 0 79 5 162 11 184 5 22 13 60 18 85 10 51 27 102 47 142 8 14 14 35 14 46 0 12 4 23 9 26 5 4 20 27 32 53 43 89 102 167 203 268 161 161 331 259 536 309 126 30 173 31 178 1z"/> <path d="M893 2263 c-29 -37 -75 -128 -106 -208 -81 -210 -68 -517 32 -735 111 -241 325 -440 576 -533 122 -45 157 -50 330 -50 202 0 269 15 440 99 132 65 189 109 293 220 106 114 142 182 142 272 0 67 -25 161 -49 185 -6 6 -11 17 -11 24 0 17 -127 146 -162 164 -121 63 -183 84 -300 99 -132 18 -315 -12 -468 -75 -36 -15 -83 -34 -105 -44 -53 -22 -183 -19 -250 6 -106 39 -159 91 -198 193 -22 61 -38 207 -31 294 6 63 4 74 -16 99 -33 42 -80 38 -117 -10z"/> </g> </svg> 