 <svg  version="1.0" xmlns="http://www.w3.org/2000/svg"  width="390.000000pt" height="390.000000pt" viewBox="0 0 390.000000 390.000000"  preserveAspectRatio="xMidYMid meet">  <g transform="translate(0.000000,390.000000) scale(0.100000,-0.100000)" fill="#e1e1e1" stroke="none"> <path d="M561 2918 c0 -7 20 -29 45 -48 43 -33 132 -106 164 -133 8 -7 35 -28 60 -47 25 -18 50 -38 55 -44 12 -13 234 -194 308 -251 29 -22 61 -49 72 -61 11 -11 27 -25 36 -30 16 -9 76 -57 148 -119 20 -17 56 -46 81 -65 25 -19 47 -37 50 -40 3 -4 30 -26 60 -49 56 -44 100 -80 199 -163 58 -50 90 -59 111 -33 7 8 18 15 26 15 7 0 17 6 21 13 4 7 37 35 73 62 36 26 70 53 75 60 6 6 64 52 130 103 66 51 163 126 215 167 52 42 131 103 174 137 44 34 87 69 97 77 9 9 50 41 90 71 40 30 86 67 103 81 17 14 69 55 116 91 47 35 101 79 120 96 19 18 40 32 47 32 6 0 16 6 20 13 4 8 22 24 40 37 18 13 30 27 27 32 -3 4 -626 8 -1385 8 -1097 0 -1379 -3 -1378 -12z"/> <path d="M447 2843 c-11 -10 -8 -1631 2 -1638 9 -5 37 19 141 118 19 19 94 87 165 152 72 66 142 130 156 144 46 45 132 125 199 186 184 166 288 269 284 280 -5 11 -50 49 -163 138 -20 15 -49 39 -66 53 -16 14 -60 48 -96 77 -36 29 -98 79 -138 112 -40 33 -99 80 -131 105 -31 25 -90 72 -130 105 -40 33 -96 78 -124 101 -28 22 -57 48 -65 57 -14 18 -24 21 -34 10z"/> <path d="M3395 2830 c-6 -10 -101 -89 -199 -165 -28 -21 -57 -45 -64 -52 -7 -7 -17 -13 -20 -13 -4 0 -22 -13 -40 -29 -17 -16 -60 -51 -94 -77 -35 -26 -67 -52 -73 -59 -5 -6 -55 -46 -110 -88 -55 -42 -127 -99 -160 -127 -33 -27 -88 -71 -122 -97 -35 -26 -63 -51 -63 -57 0 -6 22 -31 48 -56 154 -145 361 -341 396 -375 23 -23 106 -101 186 -175 80 -74 183 -172 230 -218 94 -93 118 -110 125 -90 3 7 4 389 3 848 -3 768 -4 835 -20 838 -9 2 -19 -2 -23 -8z"/> <path d="M1445 1976 c-11 -12 -56 -55 -100 -96 -84 -77 -328 -307 -374 -350 -14 -14 -82 -78 -151 -141 -69 -63 -139 -128 -155 -144 -17 -17 -75 -72 -128 -123 -93 -88 -98 -95 -95 -130 l3 -37 1489 -3 c820 -1 1494 2 1498 6 12 12 -1 40 -22 47 -9 3 -48 36 -86 73 -38 37 -134 128 -214 202 -80 74 -164 152 -186 175 -40 39 -72 69 -294 279 -58 55 -136 130 -175 167 -102 97 -99 96 -171 41 -114 -88 -226 -177 -283 -224 -31 -26 -62 -48 -70 -48 -13 0 -112 71 -149 107 -7 7 -41 34 -75 60 -34 26 -66 52 -72 58 -5 6 -32 29 -60 50 -27 22 -51 43 -53 47 -7 16 -58 6 -77 -16z"/> </g> </svg> 