 <svg  version="1.0" xmlns="http://www.w3.org/2000/svg"  width="390.000000pt" height="390.000000pt" viewBox="0 0 390.000000 390.000000"  preserveAspectRatio="xMidYMid meet">  <g transform="translate(0.000000,390.000000) scale(0.100000,-0.100000)" fill="#e1e1e1" stroke="none"> <path d="M3090 3425 c-7 -8 -20 -15 -30 -15 -10 0 -23 -7 -30 -15 -7 -8 -21 -15 -31 -15 -10 0 -20 -4 -24 -9 -3 -6 -29 -21 -58 -36 -28 -14 -65 -35 -82 -45 -16 -11 -37 -22 -45 -26 -8 -3 -22 -10 -30 -15 -8 -5 -24 -14 -35 -19 -11 -6 -33 -19 -50 -30 -16 -11 -40 -24 -52 -29 -11 -5 -24 -15 -28 -20 -3 -6 -15 -11 -26 -11 -11 0 -22 -7 -25 -15 -4 -8 -12 -15 -19 -15 -6 0 -31 -13 -53 -30 -23 -16 -49 -30 -57 -30 -9 0 -18 -7 -21 -15 -4 -8 -14 -15 -23 -15 -9 0 -22 -5 -28 -11 -12 -12 -46 -33 -80 -48 -11 -5 -24 -15 -28 -20 -3 -6 -15 -11 -26 -11 -11 0 -22 -7 -25 -15 -4 -8 -14 -15 -24 -15 -10 0 -23 -7 -30 -15 -7 -8 -21 -15 -31 -15 -10 0 -20 -4 -24 -9 -3 -6 -27 -20 -53 -33 -26 -13 -53 -29 -60 -35 -7 -7 -19 -13 -26 -13 -8 0 -19 -7 -26 -15 -7 -8 -23 -15 -35 -15 -12 0 -28 -7 -35 -15 -7 -8 -20 -15 -29 -15 -10 0 -26 -7 -37 -15 -10 -8 -26 -15 -35 -15 -9 0 -22 -7 -29 -15 -7 -8 -23 -15 -37 -15 -13 0 -26 -7 -29 -15 -4 -8 -17 -15 -31 -15 -13 0 -40 -12 -59 -26 -29 -23 -34 -32 -34 -69 0 -26 -6 -48 -15 -55 -8 -7 -15 -23 -15 -35 0 -12 -7 -28 -15 -35 -8 -7 -15 -20 -15 -30 0 -10 -7 -23 -15 -30 -8 -7 -15 -20 -15 -30 0 -19 -30 -50 -48 -50 -7 0 -12 8 -12 18 0 10 -14 33 -31 51 -24 27 -30 41 -27 70 3 33 1 36 -27 41 -22 4 -31 11 -33 28 -2 13 -10 26 -18 29 -8 3 -14 15 -14 28 0 14 -17 38 -43 62 -24 22 -53 58 -64 79 -17 33 -25 39 -57 42 -21 2 -46 12 -57 23 -17 17 -28 19 -84 13 -43 -5 -74 -3 -95 6 -23 10 -34 10 -43 1 -6 -6 -21 -11 -33 -11 -12 0 -27 -7 -34 -15 -10 -12 -15 -12 -39 6 -22 16 -34 19 -61 12 -44 -11 -62 -39 -37 -57 23 -18 22 -45 -5 -73 -29 -31 -40 -143 -14 -143 13 0 15 -7 10 -42 -4 -24 -13 -50 -20 -59 -8 -8 -14 -21 -14 -27 0 -6 -13 -26 -30 -44 -39 -42 -38 -61 6 -114 32 -39 40 -44 78 -44 45 0 66 13 66 42 0 21 44 63 88 85 l34 16 44 -49 c43 -49 44 -49 44 -124 0 -47 5 -81 12 -88 10 -10 10 -17 0 -32 -6 -11 -12 -29 -12 -40 0 -17 -6 -20 -42 -20 -24 0 -52 7 -62 15 -11 8 -39 15 -62 15 -25 0 -47 6 -54 15 -7 8 -27 15 -45 15 -20 0 -35 6 -39 15 -8 23 -64 19 -92 -7 -19 -19 -24 -33 -24 -80 0 -31 4 -59 9 -63 6 -3 21 -30 35 -60 14 -29 31 -57 36 -60 6 -3 10 -23 10 -43 0 -37 39 -92 66 -92 6 0 38 -29 70 -64 33 -35 68 -74 79 -85 39 -42 99 -90 107 -85 4 3 8 16 8 30 0 20 5 24 31 24 l32 0 -7 66 c-8 80 -28 114 -66 114 -19 0 -46 17 -93 60 -35 33 -81 74 -101 92 -37 32 -47 58 -22 58 7 0 19 -7 26 -15 7 -8 20 -15 30 -15 10 0 20 -7 24 -15 3 -8 16 -15 29 -15 14 0 30 -7 37 -15 8 -9 30 -15 60 -15 43 0 48 -3 54 -25 4 -14 17 -30 29 -34 12 -5 33 -21 46 -35 14 -14 33 -26 43 -26 10 0 21 -7 24 -15 4 -8 18 -15 34 -15 15 0 33 -7 40 -15 7 -8 29 -15 49 -15 20 0 45 -7 55 -15 11 -8 39 -15 62 -15 25 0 47 -6 54 -15 7 -8 25 -15 40 -15 16 0 30 -7 34 -15 3 -8 16 -15 30 -15 13 0 26 -7 30 -15 3 -8 14 -15 24 -15 22 0 122 -99 122 -121 0 -9 11 -36 25 -60 14 -24 28 -51 32 -59 3 -8 19 -31 35 -51 15 -20 28 -41 28 -45 0 -5 41 -49 90 -99 l90 -90 0 -116 0 -117 -81 -86 c-93 -101 -99 -125 -34 -138 22 -5 76 -7 120 -6 77 3 80 4 83 28 2 14 10 29 18 33 8 4 14 16 14 26 0 9 14 27 30 39 30 23 30 23 30 125 0 67 5 109 13 122 7 11 19 37 26 58 12 37 12 40 -16 70 -15 18 -34 35 -40 40 -7 4 -13 16 -13 26 0 10 -7 24 -15 31 -8 7 -15 26 -15 42 0 16 -7 42 -15 59 -15 29 -15 31 15 68 16 22 30 43 30 48 0 5 13 23 30 39 16 16 30 39 30 50 0 12 7 27 15 34 10 9 15 32 15 76 0 57 2 64 20 64 12 0 26 -12 35 -30 9 -16 20 -30 25 -30 6 0 10 -48 10 -119 0 -96 -3 -120 -15 -125 -10 -3 -15 -19 -15 -44 0 -21 -7 -47 -15 -58 -9 -12 -14 -43 -14 -89 0 -46 5 -77 14 -89 8 -11 15 -29 15 -40 1 -27 94 -144 125 -156 13 -5 26 -14 30 -19 3 -6 17 -11 30 -11 12 0 25 -7 29 -15 4 -12 27 -15 114 -15 107 0 109 0 137 29 15 17 37 31 49 33 15 2 22 11 24 30 3 27 2 28 -50 28 -49 0 -57 3 -91 38 -22 22 -37 48 -37 62 0 14 -7 34 -15 44 -12 16 -15 55 -15 187 0 136 -3 169 -15 179 -10 8 -15 30 -15 62 0 34 -4 50 -15 54 -8 4 -15 16 -15 29 0 12 -7 28 -15 35 -8 7 -15 17 -15 22 0 15 -43 68 -56 68 -6 0 -17 7 -24 15 -7 8 -25 15 -41 15 -15 0 -30 4 -33 9 -3 4 -47 11 -97 15 l-92 7 -65 59 c-36 33 -73 60 -82 60 -10 0 -20 7 -24 15 -3 8 -16 15 -29 15 -13 0 -32 7 -43 15 -10 8 -35 15 -55 15 -20 0 -42 7 -49 15 -7 8 -27 15 -45 15 -18 0 -38 7 -45 15 -7 8 -20 15 -29 15 -19 1 -61 34 -61 49 0 17 150 13 180 -4 14 -8 40 -14 58 -15 17 0 32 -4 32 -10 0 -5 7 -10 15 -10 9 0 15 9 15 25 0 24 2 25 78 25 55 0 89 6 120 20 45 20 48 40 8 40 -13 0 -29 6 -36 14 -6 8 -23 16 -36 18 -14 2 -25 8 -25 13 0 17 47 17 61 1 18 -22 226 -22 254 -1 11 8 34 15 52 15 37 0 94 29 94 48 0 6 -11 12 -24 12 -35 0 -56 10 -56 26 0 11 15 14 63 12 34 -1 72 4 84 10 12 7 41 12 65 12 24 0 53 7 64 15 10 8 29 15 40 15 12 0 27 7 34 15 7 8 21 15 32 15 14 0 19 6 16 23 -3 20 -10 23 -84 28 -139 10 -138 39 2 39 55 0 86 5 100 15 10 8 31 15 45 15 15 0 32 7 39 15 7 8 23 15 35 15 12 0 28 7 35 15 7 8 23 15 35 15 28 0 49 24 41 46 -6 14 -21 16 -119 12 -61 -3 -124 -11 -139 -18 -17 -8 -40 -10 -65 -5 -32 6 -35 9 -18 15 11 5 36 9 56 9 23 1 39 7 43 16 4 11 21 15 59 15 31 0 61 6 73 15 10 8 31 15 45 15 15 0 32 7 39 15 7 8 21 15 31 15 22 0 92 34 136 67 17 12 38 23 45 23 17 0 63 49 54 57 -12 12 -180 2 -215 -13 -18 -8 -55 -14 -81 -14 -31 0 -52 -5 -60 -16 -9 -9 -26 -14 -47 -12 -43 4 -48 22 -6 26 17 2 37 10 43 18 7 8 23 14 35 14 23 0 127 51 156 76 8 8 21 14 28 14 7 0 30 14 51 30 21 17 42 30 47 30 5 0 60 52 122 116 84 86 111 121 109 137 -3 19 -8 21 -38 19 -19 -2 -45 -10 -57 -18 -12 -8 -33 -14 -46 -14 -14 0 -30 -7 -37 -15 -7 -8 -25 -15 -40 -15 -15 0 -33 -7 -40 -15 -7 -8 -23 -15 -35 -15 -12 0 -28 -7 -35 -15 -7 -8 -23 -15 -36 -15 -13 0 -35 -5 -49 -12 -19 -9 -28 -9 -37 0 -17 17 -79 14 -102 -3 -11 -8 -32 -15 -46 -15 -14 0 -35 -7 -46 -15 -10 -8 -29 -15 -40 -15 -12 0 -27 -7 -34 -15 -7 -8 -28 -15 -46 -15 -24 0 -34 5 -34 15 0 8 8 15 19 15 10 0 24 7 31 15 7 8 20 15 30 15 10 0 23 7 30 15 7 8 21 15 31 15 10 0 22 6 26 13 4 7 37 35 73 62 80 60 130 109 157 155 12 20 33 46 47 59 14 14 26 29 26 33 0 5 12 25 26 43 14 19 23 39 19 45 -9 15 -51 12 -65 -5z m-460 -504 c0 -14 -18 -23 -30 -16 -6 4 -8 11 -5 16 8 12 35 12 35 0z m-365 -240 c7 -12 -12 -24 -25 -16 -11 7 -4 25 10 25 5 0 11 -4 15 -9z m-86 -42 c-15 -9 -32 -2 -24 11 3 5 13 6 21 3 12 -4 13 -8 3 -14z m169 -476 c-10 -2 -26 -2 -35 0 -10 3 -2 5 17 5 19 0 27 -2 18 -5z"/> </g> </svg> 