 <svg  version="1.0" xmlns="http://www.w3.org/2000/svg"  width="390.000000pt" height="390.000000pt" viewBox="0 0 390.000000 390.000000"  preserveAspectRatio="xMidYMid meet">  <g transform="translate(0.000000,390.000000) scale(0.100000,-0.100000)" fill="#e1e1e1" stroke="none"> <path d="M1705 3434 c-5 -2 -57 -10 -115 -18 -117 -17 -182 -32 -222 -52 -14 -8 -32 -14 -39 -14 -12 0 -131 -57 -174 -83 -145 -89 -275 -231 -339 -372 -10 -22 -25 -53 -32 -68 -8 -16 -14 -37 -14 -48 0 -11 -8 -34 -17 -52 -27 -49 -26 -407 1 -492 35 -111 69 -191 107 -250 10 -16 23 -39 28 -50 20 -45 230 -246 281 -268 8 -4 29 -16 45 -27 17 -11 37 -22 45 -26 8 -3 29 -11 45 -18 94 -40 201 -66 310 -75 l80 -6 3 -511 2 -512 34 -26 c34 -25 39 -26 181 -26 143 0 160 3 205 38 3 2 7 567 10 1255 l5 1252 158 3 157 3 0 -1245 0 -1244 35 -31 36 -31 144 0 c162 0 194 10 214 66 8 23 11 359 11 1255 l-1 1224 99 5 c97 5 118 12 150 49 12 15 18 303 6 347 -3 11 -18 28 -34 37 -26 15 -90 17 -712 16 -375 0 -687 -2 -693 -5z"/> </g> </svg> 