 <svg  version="1.0" xmlns="http://www.w3.org/2000/svg"  width="390.000000pt" height="390.000000pt" viewBox="0 0 390.000000 390.000000"  preserveAspectRatio="xMidYMid meet">  <g transform="translate(0.000000,390.000000) scale(0.100000,-0.100000)" fill="#e1e1e1" stroke="none"> <path d="M611 3122 c-55 -21 -131 -95 -151 -148 -22 -60 -27 -2016 -5 -2050 8 -13 15 -29 15 -37 0 -25 72 -98 121 -122 l48 -25 1306 0 1306 0 42 21 c58 29 105 76 128 128 18 42 19 76 19 1053 l0 1009 -25 48 c-27 54 -79 99 -143 124 -39 16 -150 17 -1330 16 -1179 0 -1291 -2 -1331 -17z m2616 -195 c4 -5 9 -447 11 -982 2 -877 1 -975 -14 -989 -14 -14 -138 -16 -1275 -16 -850 0 -1267 3 -1280 10 -19 10 -19 32 -19 991 l0 980 23 9 c28 11 2542 8 2554 -3z"/> <path d="M1075 2729 c-122 -40 -194 -114 -221 -228 -15 -62 -3 -162 22 -192 8 -8 14 -20 14 -25 0 -14 90 -97 130 -119 50 -28 200 -28 250 0 130 72 199 213 167 336 -18 68 -31 92 -77 142 -71 78 -194 115 -285 86z"/> <path d="M1995 2090 c-214 -214 -394 -390 -400 -390 -6 0 -62 52 -125 115 -63 63 -119 115 -123 115 -13 0 -482 -471 -495 -497 -17 -31 -16 -254 0 -276 12 -16 87 -17 1103 -15 l1090 3 3 344 2 345 -322 323 c-178 177 -328 323 -333 323 -6 0 -186 -175 -400 -390z"/> </g> </svg> 