 <svg  version="1.0" xmlns="http://www.w3.org/2000/svg"  width="390.000000pt" height="390.000000pt" viewBox="0 0 390.000000 390.000000"  preserveAspectRatio="xMidYMid meet">  <g transform="translate(0.000000,390.000000) scale(0.100000,-0.100000)" fill="#e1e1e1" stroke="none"> <path d="M1745 3423 c-49 -8 -106 -19 -125 -25 -19 -7 -53 -15 -75 -19 -92 -17 -332 -124 -410 -184 -19 -14 -37 -25 -42 -25 -10 0 -182 -146 -227 -193 -17 -18 -47 -53 -66 -77 -19 -25 -45 -56 -58 -70 -14 -14 -29 -34 -34 -45 -13 -28 -32 -60 -45 -76 -20 -25 -103 -193 -103 -209 0 -9 -7 -25 -15 -36 -8 -10 -15 -27 -15 -36 0 -10 -6 -32 -14 -50 -20 -47 -37 -122 -47 -203 -4 -38 -13 -90 -18 -115 -15 -66 -13 -196 4 -265 8 -33 14 -77 15 -98 0 -44 26 -157 45 -202 7 -16 15 -39 18 -50 3 -11 14 -42 25 -70 139 -354 443 -663 804 -818 47 -20 91 -37 97 -37 6 0 19 -4 29 -9 24 -12 97 -31 162 -41 30 -5 73 -14 95 -19 22 -6 110 -11 195 -11 154 0 269 14 371 46 26 8 53 14 62 14 27 0 236 89 312 132 134 78 320 227 377 304 13 16 33 41 45 54 13 13 35 42 50 64 15 23 31 43 34 46 3 3 9 12 13 20 7 15 11 22 56 95 28 45 50 90 75 155 9 25 23 60 31 78 8 18 14 41 14 52 0 10 6 31 14 47 58 115 61 606 5 768 -6 17 -14 44 -19 60 -62 225 -232 497 -412 658 -74 67 -191 158 -218 170 -8 4 -28 16 -45 27 -69 44 -202 103 -295 131 -36 11 -86 26 -111 34 -26 8 -60 15 -75 15 -16 0 -61 7 -99 15 -87 18 -260 17 -380 -2z m-34 -936 c13 -7 43 -25 66 -40 24 -15 45 -27 47 -27 3 0 33 -19 68 -43 35 -24 70 -46 78 -50 8 -4 27 -15 41 -25 15 -9 59 -37 98 -62 40 -25 84 -53 99 -62 15 -10 34 -21 42 -25 8 -3 17 -9 20 -13 5 -5 128 -82 171 -106 48 -27 69 -57 69 -99 0 -40 -16 -63 -62 -90 -21 -12 -199 -123 -236 -147 -15 -10 -34 -21 -42 -25 -8 -4 -42 -25 -75 -48 -34 -23 -67 -44 -75 -48 -8 -4 -27 -15 -41 -25 -15 -9 -50 -30 -78 -47 -28 -16 -51 -33 -51 -37 0 -5 -5 -8 -11 -8 -6 0 -34 -15 -62 -34 -93 -62 -127 -66 -174 -23 l-23 20 0 513 0 512 31 26 c34 29 64 33 100 13z"/> </g> </svg> 