 <svg  version="1.0" xmlns="http://www.w3.org/2000/svg"  width="390.000000pt" height="390.000000pt" viewBox="0 0 390.000000 390.000000"  preserveAspectRatio="xMidYMid meet">  <g transform="translate(0.000000,390.000000) scale(0.100000,-0.100000)" fill="#e1e1e1" stroke="none"> <path d="M747 3402 l-37 -38 0 -886 c0 -761 2 -891 15 -928 8 -23 15 -54 15 -69 0 -14 7 -35 15 -45 8 -11 15 -28 15 -38 0 -25 47 -98 63 -98 7 0 43 30 80 68 72 73 79 91 50 145 -17 30 -18 93 -21 851 -2 451 -1 830 3 843 l5 23 911 0 c719 -1 914 2 926 12 41 34 88 43 233 43 l145 1 3 41 c3 34 -2 47 -29 77 l-31 36 -1162 0 -1162 0 -37 -38z"/> <path d="M2870 3185 c-7 -8 -18 -15 -24 -15 -29 -1 -110 -96 -135 -159 -8 -20 -16 -64 -18 -99 l-5 -62 -95 -95 c-52 -52 -102 -95 -112 -95 -10 0 -52 33 -93 73 -89 87 -140 108 -213 86 -42 -13 -115 -68 -115 -87 0 -5 -7 -15 -15 -22 -22 -18 -20 -111 4 -155 10 -20 31 -47 45 -60 14 -13 26 -32 26 -42 0 -10 -46 -61 -101 -113 -56 -52 -115 -110 -133 -128 -17 -18 -51 -53 -76 -77 -25 -24 -66 -66 -93 -92 -26 -26 -66 -66 -89 -88 -23 -22 -62 -62 -88 -88 -25 -26 -188 -192 -363 -368 -175 -177 -324 -334 -332 -350 -8 -15 -15 -41 -15 -56 0 -15 -6 -57 -14 -93 -26 -114 -45 -213 -52 -266 -6 -47 -4 -54 24 -85 l30 -34 36 18 c20 9 49 17 63 17 14 0 49 6 77 14 58 16 144 35 196 42 19 3 46 7 59 10 27 6 41 20 1119 1117 101 103 187 187 192 187 4 0 25 -17 46 -38 78 -76 144 -87 229 -39 61 35 94 90 95 160 0 76 -17 107 -106 194 -41 39 -73 75 -73 80 1 4 48 52 104 106 93 88 107 97 141 97 49 1 130 22 146 38 7 7 17 12 23 12 25 1 125 113 125 141 0 8 7 23 15 33 10 13 15 44 15 92 0 60 -5 80 -31 130 -36 69 -68 105 -127 145 -42 28 -47 29 -161 29 -93 0 -121 -3 -131 -15z m218 -129 c53 -34 78 -65 90 -113 28 -116 -57 -223 -176 -223 -111 0 -199 112 -171 220 30 116 163 176 257 116z m-303 -381 c24 -22 34 -39 29 -47 -22 -36 -141 -148 -157 -148 -16 0 -77 55 -77 71 0 10 145 156 157 157 6 1 28 -14 48 -33z m-257 -269 c155 -156 282 -287 282 -292 -1 -24 -40 -54 -71 -54 -30 0 -58 26 -296 267 -145 147 -266 278 -270 291 -9 38 12 72 45 72 24 0 73 -46 310 -284z m-265 -84 l37 -38 -550 -555 c-303 -304 -553 -564 -556 -577 -8 -28 39 -82 70 -82 13 0 100 81 245 228 125 125 372 374 550 555 179 180 330 327 336 327 6 0 26 -16 45 -35 30 -30 32 -36 19 -52 -12 -16 -1075 -1089 -1184 -1195 -40 -39 -111 -68 -165 -68 -15 0 -49 -7 -76 -15 -27 -8 -64 -15 -81 -15 -32 0 -33 2 -33 39 0 21 7 55 15 74 8 20 15 51 15 68 0 29 8 62 29 122 6 18 1229 1257 1241 1257 3 0 23 -17 43 -38z"/> <path d="M1197 3022 c-15 -9 -37 -30 -47 -47 -19 -29 -20 -52 -20 -692 0 -587 2 -663 15 -663 9 0 204 190 435 422 368 371 418 424 406 437 -8 9 -19 34 -24 56 -11 43 -9 187 4 220 13 36 66 96 105 121 35 22 49 24 152 24 124 0 124 0 206 -76 25 -24 50 -44 55 -44 5 0 38 30 73 66 l64 66 -3 62 -3 61 -695 2 c-635 1 -697 0 -723 -15z"/> <path d="M3074 2513 c-53 -3 -65 -8 -90 -34 -27 -28 -29 -36 -29 -109 0 -56 4 -83 16 -96 51 -61 52 -270 1 -327 -13 -14 -18 -53 -24 -180 -4 -89 -11 -184 -16 -212 -23 -141 -198 -370 -396 -519 -28 -21 -53 -42 -56 -46 -6 -8 -217 -152 -240 -163 -8 -4 -28 -16 -45 -27 -16 -11 -40 -24 -52 -29 -11 -5 -24 -15 -28 -20 -3 -6 -15 -11 -26 -11 -11 0 -22 -7 -25 -15 -4 -8 -14 -15 -24 -15 -10 0 -23 -7 -30 -15 -25 -30 -87 -29 -140 4 -8 5 -22 12 -30 15 -8 4 -28 15 -45 26 -16 10 -50 29 -75 42 -25 13 -49 29 -53 35 -4 7 -15 13 -23 13 -9 0 -27 9 -41 20 -14 11 -32 20 -40 20 -8 0 -46 -32 -85 -71 l-70 -71 23 -24 c12 -13 26 -24 30 -24 5 0 28 -13 52 -30 25 -16 49 -30 55 -30 5 0 12 -7 16 -15 3 -8 14 -15 24 -15 10 0 23 -5 29 -11 15 -15 97 -59 153 -83 8 -3 35 -17 59 -31 52 -30 150 -35 171 -10 7 8 20 15 30 15 10 0 23 7 30 15 7 8 21 15 31 15 10 0 21 4 24 10 3 5 30 21 58 36 29 14 66 34 82 44 17 11 37 23 45 27 8 3 31 19 51 35 20 15 44 28 53 28 9 0 19 7 22 15 4 8 12 15 19 15 7 0 15 7 19 15 3 8 14 15 25 15 11 0 24 6 28 13 4 7 44 40 88 74 44 33 116 93 159 134 82 76 236 247 236 261 0 5 14 27 30 50 17 22 30 47 30 53 0 7 7 18 15 25 8 7 15 22 15 34 0 11 7 30 15 40 8 11 15 30 15 43 0 13 7 37 15 53 23 44 18 994 -5 996 -8 0 -42 -1 -76 -3z"/> <path d="M2492 1822 c-30 -32 -213 -217 -408 -413 -223 -224 -354 -362 -354 -375 0 -13 14 -25 45 -39 24 -10 47 -25 49 -32 3 -7 14 -13 24 -13 11 0 25 -7 32 -15 17 -21 116 -21 124 0 3 8 14 15 25 15 11 0 23 5 26 11 4 5 17 15 28 20 12 5 36 18 52 29 17 11 37 23 45 27 54 25 238 163 303 227 26 25 52 46 57 46 5 0 18 13 30 30 12 16 43 56 71 87 27 32 49 63 49 69 0 6 7 17 15 24 8 7 15 22 15 34 0 11 7 30 15 40 19 25 21 226 3 244 -7 7 -35 12 -63 12 -30 0 -59 6 -71 15 -33 25 -57 15 -112 -43z"/> </g> </svg> 