 <svg  version="1.0" xmlns="http://www.w3.org/2000/svg"  width="390.000000pt" height="390.000000pt" viewBox="0 0 390.000000 390.000000"  preserveAspectRatio="xMidYMid meet">  <g transform="translate(0.000000,390.000000) scale(0.100000,-0.100000)" fill="#e1e1e1" stroke="none"> <path d="M1720 3429 c-69 -4 -210 -12 -315 -18 -104 -6 -235 -15 -290 -21 -55 -5 -149 -14 -210 -20 -60 -6 -115 -16 -122 -22 -10 -8 -13 -73 -13 -277 0 -146 4 -272 9 -279 6 -10 49 -10 232 3 525 35 727 45 947 45 247 0 277 -5 323 -51 51 -51 54 -62 58 -271 1 -109 0 -209 -3 -222 -3 -14 -15 -26 -28 -29 -13 -3 -48 -15 -78 -26 -102 -40 -135 -52 -165 -61 -16 -4 -55 -18 -85 -30 -30 -12 -71 -26 -90 -32 -19 -5 -39 -14 -45 -18 -5 -4 -21 -10 -35 -13 -14 -3 -50 -15 -80 -26 -83 -33 -128 -49 -205 -76 -142 -49 -159 -56 -172 -73 -9 -13 -12 -83 -13 -289 0 -232 2 -274 15 -287 23 -23 726 -23 745 -1 8 10 12 45 11 98 -1 45 3 88 8 96 9 15 19 19 201 81 63 21 140 49 170 60 30 12 66 25 80 30 155 54 270 123 361 217 82 84 120 162 160 323 19 76 19 519 0 610 -40 191 -90 299 -181 391 -62 63 -79 75 -160 115 -66 33 -105 45 -209 64 -91 17 -144 20 -400 19 -163 -1 -352 -5 -421 -10z"/> <path d="M1347 1063 c-9 -8 -9 -586 -1 -607 5 -14 48 -16 379 -16 227 0 376 4 380 10 4 6 8 438 5 610 0 11 -752 15 -763 3z"/> </g> </svg> 