 <svg  version="1.0" xmlns="http://www.w3.org/2000/svg"  width="390.000000pt" height="390.000000pt" viewBox="0 0 390.000000 390.000000"  preserveAspectRatio="xMidYMid meet">  <g transform="translate(0.000000,390.000000) scale(0.100000,-0.100000)" fill="#e1e1e1" stroke="none"> <path d="M821 3395 c-18 -8 -48 -15 -66 -15 -18 0 -38 -7 -45 -15 -7 -8 -16 -15 -21 -15 -19 0 -126 -80 -140 -106 -63 -112 -76 -145 -88 -221 -22 -135 12 -253 108 -374 42 -53 177 -125 257 -135 27 -4 57 -11 68 -16 20 -11 97 6 131 29 11 7 35 13 53 13 44 0 92 29 92 54 0 11 22 41 49 66 29 27 63 74 81 111 30 60 32 71 34 180 l1 115 -48 95 c-42 83 -54 99 -108 138 -72 52 -126 81 -152 81 -10 0 -26 4 -35 9 -35 18 -136 22 -171 6z m-36 -275 c5 -14 -2 -32 -18 -54 -53 -69 -55 -157 -5 -213 27 -29 21 -67 -13 -71 -20 -2 -31 5 -52 35 -14 21 -31 51 -36 66 -16 41 -13 129 4 151 8 11 15 26 15 33 0 8 10 27 22 43 27 37 73 42 83 10z"/> <path d="M2907 3391 c-62 -21 -145 -103 -182 -179 -17 -35 -31 -83 -35 -122 -9 -84 -20 -103 -124 -206 -47 -47 -86 -94 -86 -103 0 -31 263 -271 297 -271 10 0 48 30 83 66 88 89 128 114 187 114 48 1 123 22 178 52 40 22 114 101 153 164 31 48 32 55 32 154 l0 104 -44 66 c-52 77 -127 150 -155 150 -10 0 -35 7 -54 15 -49 20 -188 19 -250 -4z"/> <path d="M1258 3344 c-15 -14 -7 -29 37 -79 25 -27 45 -56 45 -63 0 -7 5 -23 12 -35 22 -39 47 -151 47 -207 0 -96 -64 -280 -105 -303 -8 -4 -14 -14 -14 -21 0 -27 -177 -156 -214 -156 -7 0 -19 -7 -26 -16 -11 -12 -33 -14 -124 -11 -110 4 -169 15 -236 44 -52 24 -54 25 -104 67 -61 51 -81 45 -73 -25 20 -163 107 -292 237 -352 58 -27 79 -30 187 -35 l122 -5 28 -54 c26 -53 94 -123 119 -123 6 0 17 -7 24 -15 7 -8 23 -15 36 -15 12 0 26 -4 29 -10 8 -14 81 -13 108 1 11 7 137 127 280 268 l258 256 -4 55 c-10 122 -52 192 -153 255 l-72 45 -4 117 c-4 105 -8 125 -35 183 -59 126 -198 224 -336 237 -34 3 -65 2 -69 -3z"/> <path d="M2066 2969 c-42 -10 -66 -35 -108 -112 -49 -87 -40 -120 69 -250 29 -36 29 -54 -1 -82 -13 -12 -31 -35 -39 -51 -17 -32 -619 -634 -634 -634 -5 0 -83 -75 -174 -166 -90 -91 -260 -261 -376 -377 -157 -157 -218 -224 -232 -257 -11 -25 -29 -116 -40 -205 -12 -88 -29 -193 -38 -234 -15 -65 -15 -77 -2 -100 19 -33 45 -37 128 -17 64 15 144 32 326 66 50 9 106 24 125 33 22 9 142 123 305 290 386 392 468 478 487 513 9 18 39 54 65 81 26 27 80 83 118 124 242 259 360 379 374 379 9 0 33 16 54 35 48 44 74 44 118 -1 92 -96 227 -100 310 -7 43 48 50 60 64 111 11 44 10 56 -4 100 -27 79 -223 288 -380 406 -53 40 -114 103 -146 151 -37 57 -60 82 -130 143 -80 70 -138 85 -239 61z m229 -680 l40 -40 -115 -113 c-115 -112 -812 -818 -834 -845 -6 -8 -81 -82 -166 -165 -85 -83 -164 -163 -175 -178 -11 -15 -28 -27 -37 -28 -9 0 -23 -8 -30 -18 -7 -11 -23 -24 -35 -30 -26 -14 -89 -16 -97 -3 -16 25 76 151 110 151 10 0 13 6 9 19 -4 13 5 25 33 44 21 15 92 84 157 153 66 70 289 296 495 504 206 207 400 405 430 438 30 34 60 62 65 62 6 0 31 20 55 45 24 25 47 45 50 45 3 0 24 -18 45 -41z"/> <path d="M2184 1674 c-117 -121 -213 -224 -214 -229 0 -16 221 -230 265 -257 38 -22 107 -52 185 -78 19 -6 104 -13 188 -15 84 -3 157 -7 162 -10 15 -9 12 -98 -5 -138 -21 -50 -19 -95 6 -142 32 -61 53 -79 142 -125 45 -23 87 -45 92 -49 6 -5 62 -30 125 -56 63 -27 122 -54 131 -62 8 -7 20 -13 26 -13 6 0 25 -8 41 -17 28 -16 30 -16 60 6 54 38 44 61 -77 182 -153 153 -218 242 -206 284 3 11 10 59 16 107 11 96 -5 205 -41 283 -23 49 -33 61 -91 108 -43 34 -275 157 -297 157 -6 0 -67 60 -137 133 -70 72 -134 136 -143 141 -11 7 -64 -42 -228 -210z"/> </g> </svg> 