 <svg  version="1.0" xmlns="http://www.w3.org/2000/svg"  width="390.000000pt" height="390.000000pt" viewBox="0 0 390.000000 390.000000"  preserveAspectRatio="xMidYMid meet">  <g transform="translate(0.000000,390.000000) scale(0.100000,-0.100000)" fill="#e1e1e1" stroke="none"> <path d="M1735 3429 c-22 -4 -67 -13 -100 -18 -55 -10 -182 -48 -275 -83 -32 -12 -116 -54 -180 -90 -47 -26 -142 -90 -159 -106 -35 -36 -100 -82 -113 -82 -8 0 -72 59 -143 130 -70 72 -134 130 -141 130 -17 0 -22 -18 -34 -129 -6 -51 -13 -98 -16 -103 -3 -5 -10 -44 -14 -86 -5 -42 -15 -120 -23 -172 -9 -52 -22 -142 -30 -200 -27 -183 -38 -253 -54 -342 -8 -48 -13 -94 -10 -103 7 -18 32 -19 129 -4 179 26 258 38 328 50 41 6 104 15 140 19 36 4 92 12 125 18 76 14 252 39 330 48 71 8 105 19 105 35 0 6 -61 72 -135 145 -74 74 -135 140 -135 147 0 23 152 125 240 161 161 65 211 76 362 76 90 0 152 -5 189 -15 106 -30 164 -50 184 -62 11 -7 25 -13 32 -13 21 0 161 -87 217 -136 54 -46 154 -161 169 -192 4 -9 16 -30 27 -47 11 -16 23 -37 26 -45 3 -8 12 -30 20 -47 61 -141 66 -169 71 -342 5 -158 -7 -243 -43 -329 -8 -18 -14 -39 -14 -46 0 -24 -79 -169 -120 -219 -149 -182 -302 -281 -545 -352 -89 -26 -314 -24 -416 3 -98 26 -200 67 -264 106 -63 38 -153 106 -184 140 -14 14 -31 26 -38 26 -7 0 -97 -83 -198 -184 -142 -140 -185 -189 -185 -209 0 -18 17 -39 63 -79 72 -63 183 -148 192 -148 3 0 21 -11 38 -24 79 -60 393 -185 465 -186 15 -1 54 -7 87 -15 86 -21 405 -21 505 1 318 66 582 206 795 419 62 61 195 225 195 239 0 3 12 24 28 48 42 66 49 80 72 128 12 25 28 58 35 73 8 16 15 35 15 42 0 8 6 29 14 47 19 43 40 123 60 228 22 113 22 421 1 500 -8 30 -15 66 -15 80 0 26 -60 223 -78 256 -6 10 -20 40 -32 66 -12 27 -26 50 -31 54 -5 3 -9 11 -9 19 0 15 -108 181 -149 230 -108 128 -302 295 -410 352 -53 29 -98 51 -136 68 -22 10 -49 22 -59 27 -30 16 -194 67 -234 74 -20 3 -69 12 -109 20 -79 15 -360 18 -428 3z"/> </g> </svg> 