 <svg  version="1.0" xmlns="http://www.w3.org/2000/svg"  width="390.000000pt" height="390.000000pt" viewBox="0 0 390.000000 390.000000"  preserveAspectRatio="xMidYMid meet">  <g transform="translate(0.000000,390.000000) scale(0.100000,-0.100000)" fill="#e1e1e1" stroke="none"> <path d="M1622 3249 c-46 -4 -97 -12 -115 -18 -18 -5 -79 -15 -137 -21 -58 -7 -130 -16 -160 -22 -30 -5 -80 -13 -112 -17 -31 -5 -62 -12 -69 -17 -7 -4 -31 -11 -54 -15 -41 -7 -87 -22 -140 -44 -98 -42 -134 -64 -172 -103 -59 -60 -60 -102 -3 -161 23 -23 51 -46 63 -51 12 -6 29 -14 37 -19 48 -27 80 -41 97 -41 10 0 27 -7 37 -15 11 -8 34 -15 51 -15 17 0 35 -4 40 -9 13 -13 166 -40 395 -70 122 -16 530 -23 735 -12 235 12 384 32 545 71 25 6 61 15 80 20 43 10 100 30 120 41 8 5 22 12 30 15 8 3 22 10 30 15 8 5 25 13 37 19 35 15 90 68 103 101 19 45 -13 110 -71 144 -87 51 -214 102 -284 114 -23 4 -47 11 -54 15 -7 5 -38 12 -69 17 -32 4 -82 12 -112 17 -30 6 -102 15 -160 22 -58 6 -115 16 -128 21 -62 25 -384 35 -560 18z"/> <path d="M3007 2706 c-35 -31 -111 -76 -131 -76 -4 0 -21 -9 -37 -21 -28 -20 -29 -23 -29 -104 0 -76 -2 -85 -22 -96 -33 -18 -51 13 -43 74 7 54 -7 87 -35 87 -40 0 -50 -25 -50 -134 0 -87 -3 -105 -18 -119 -24 -22 -35 -21 -55 1 -12 13 -17 42 -19 112 l-3 95 -35 -2 c-60 -4 -202 -21 -270 -32 -105 -17 -757 -15 -860 4 -47 8 -108 15 -137 15 -28 0 -64 5 -79 10 -15 6 -52 15 -83 20 -185 30 -352 93 -423 159 -45 42 -74 37 -64 -10 3 -18 6 -79 6 -137 l0 -105 43 -41 c63 -61 248 -145 362 -165 22 -4 50 -13 62 -19 12 -7 34 -12 50 -12 15 0 57 -6 93 -15 172 -39 300 -49 605 -48 296 0 370 6 590 45 33 5 83 13 110 17 28 4 60 12 72 19 12 7 35 12 50 12 16 0 38 7 49 15 10 8 29 15 41 15 12 0 34 6 50 14 15 7 59 28 98 46 83 38 140 81 160 121 11 20 16 67 17 156 3 147 -3 156 -65 99z"/> <path d="M3086 2347 c-7 -18 -28 -45 -46 -60 -39 -33 -173 -97 -255 -122 -33 -10 -80 -24 -104 -31 -25 -8 -60 -14 -78 -14 -19 0 -50 -7 -70 -15 -19 -8 -59 -15 -89 -15 -29 0 -65 -5 -81 -12 -15 -6 -84 -15 -153 -19 -69 -4 -156 -13 -195 -18 -103 -15 -317 -13 -420 4 -49 8 -115 15 -146 15 -31 0 -76 7 -99 15 -23 8 -59 15 -80 15 -21 0 -54 7 -73 15 -20 8 -48 15 -63 15 -27 0 -76 14 -194 57 -79 28 -80 28 -80 3 0 -22 15 -39 75 -86 45 -34 181 -94 217 -94 13 -1 34 -7 48 -15 14 -8 41 -15 60 -15 19 0 46 -7 60 -15 14 -8 49 -14 78 -15 29 0 63 -5 75 -12 12 -7 74 -15 137 -19 63 -4 158 -12 210 -18 122 -13 388 -13 510 0 52 6 145 14 205 18 61 4 123 13 138 20 16 6 52 11 80 11 29 1 63 7 77 15 14 8 41 14 61 15 19 0 44 7 55 15 10 8 33 15 49 15 52 1 185 64 242 114 50 45 53 50 53 96 0 45 -3 51 -51 94 -28 26 -62 49 -75 52 -13 3 -24 10 -24 15 0 5 -9 9 -20 9 -13 0 -24 -11 -34 -33z"/> <path d="M3237 2012 c-15 -16 -62 -46 -105 -68 -42 -21 -80 -43 -85 -49 -4 -5 -6 -44 -5 -87 3 -97 -18 -130 -57 -91 -13 13 -16 31 -13 81 2 54 0 66 -15 76 -15 9 -22 6 -41 -16 -22 -24 -23 -33 -18 -117 5 -101 -7 -131 -55 -131 -33 0 -45 38 -41 128 2 55 -1 75 -12 83 -17 10 -79 5 -215 -17 -69 -12 -185 -15 -500 -15 -412 -1 -490 4 -685 42 -30 6 -75 14 -100 18 -25 4 -61 12 -80 19 -19 6 -66 20 -103 31 -87 27 -175 72 -206 105 -14 14 -33 26 -43 26 -16 0 -18 -10 -18 -120 0 -74 5 -130 13 -147 16 -36 71 -88 122 -114 22 -11 47 -24 55 -29 26 -15 88 -40 98 -40 6 0 53 -13 104 -29 105 -32 186 -50 273 -61 33 -4 85 -12 115 -18 182 -35 837 -30 933 7 16 6 50 11 76 11 27 0 68 7 91 15 23 8 55 15 71 15 15 0 38 4 51 9 13 5 57 19 98 31 76 22 99 31 180 70 72 35 89 45 131 81 l40 33 -3 145 c-2 89 -7 146 -13 148 -6 2 -23 -9 -38 -25z"/> <path d="M704 1662 c-70 -46 -114 -100 -114 -141 0 -30 64 -109 95 -117 13 -3 26 -12 29 -20 3 -8 16 -14 29 -14 13 0 28 -5 35 -12 14 -14 76 -38 117 -45 17 -3 36 -11 44 -17 10 -8 129 -12 385 -14 l371 -3 41 -40 41 -40 104 5 c271 13 442 26 529 39 168 26 269 46 289 56 11 6 29 11 40 11 10 0 33 7 50 15 17 8 45 22 62 30 17 8 35 15 40 15 12 0 71 42 112 79 44 40 31 89 -15 57 -12 -9 -32 -16 -43 -16 -12 0 -30 -7 -41 -15 -10 -8 -32 -15 -49 -15 -16 0 -39 -7 -49 -15 -11 -8 -33 -15 -50 -15 -16 0 -52 -7 -80 -14 -138 -40 -281 -51 -631 -50 -211 0 -372 5 -425 12 -47 7 -120 17 -162 22 -42 4 -86 13 -97 19 -11 6 -36 11 -56 11 -19 0 -52 7 -72 15 -19 8 -47 15 -62 15 -14 1 -37 7 -51 15 -14 8 -37 14 -51 15 -15 0 -32 7 -39 15 -7 8 -23 15 -36 15 -12 0 -25 4 -28 9 -4 5 -25 19 -49 30 -50 24 -105 75 -118 108 -11 31 -43 29 -95 -5z"/> <path d="M594 1357 c-3 -9 -4 -28 -2 -44 3 -25 8 -28 42 -31 21 -2 42 0 47 5 4 4 -12 25 -37 46 -34 30 -45 35 -50 24z"/> <path d="M2985 1320 c-21 -22 -47 -40 -56 -40 -9 0 -22 -7 -29 -15 -7 -8 -18 -15 -25 -15 -8 0 -26 -6 -42 -14 -43 -21 -93 -37 -145 -46 -26 -5 -56 -13 -67 -19 -11 -6 -35 -11 -54 -11 -18 0 -56 -7 -83 -15 -27 -8 -69 -15 -94 -15 -25 0 -81 -7 -125 -15 -55 -10 -157 -14 -331 -15 l-251 0 -39 -29 c-21 -16 -90 -81 -153 -144 -114 -116 -131 -147 -80 -147 11 0 46 -8 77 -17 82 -26 603 -27 672 -2 25 10 81 22 125 29 44 6 103 16 130 22 28 5 73 13 100 17 28 4 60 12 72 19 12 7 35 12 50 12 16 0 38 7 49 15 10 8 30 15 42 15 13 0 36 6 50 13 15 8 45 22 67 32 22 9 47 21 55 26 8 5 24 13 35 18 31 15 78 63 98 101 15 29 18 55 15 154 -2 71 -7 121 -13 123 -6 2 -28 -15 -50 -37z"/> <path d="M596 1212 c-7 -12 531 -547 550 -547 15 0 554 531 554 547 0 11 -1097 11 -1104 0z"/> <path d="M590 1097 c0 -41 143 -157 166 -134 6 6 -145 157 -157 157 -5 0 -9 -10 -9 -23z"/> </g> </svg> 