 <svg  version="1.0" xmlns="http://www.w3.org/2000/svg"  width="390.000000pt" height="390.000000pt" viewBox="0 0 390.000000 390.000000"  preserveAspectRatio="xMidYMid meet">  <g transform="translate(0.000000,390.000000) scale(0.100000,-0.100000)" fill="#e1e1e1" stroke="none"> <path d="M2025 3423 c-33 -8 -85 -21 -115 -30 -51 -14 -74 -23 -155 -58 -16 -7 -37 -16 -45 -19 -8 -3 -28 -15 -45 -26 -16 -11 -37 -23 -45 -27 -26 -11 -128 -92 -192 -151 -59 -55 -178 -202 -178 -220 0 -5 -6 -14 -13 -20 -6 -6 -27 -41 -46 -79 -18 -37 -39 -80 -47 -95 -8 -14 -14 -34 -14 -45 0 -10 -7 -27 -15 -37 -8 -11 -15 -35 -15 -53 0 -19 -8 -45 -17 -59 -14 -22 -16 -58 -17 -252 0 -194 3 -232 17 -259 9 -18 17 -47 17 -66 0 -19 7 -40 15 -47 8 -7 15 -25 15 -40 0 -15 7 -33 15 -40 8 -7 15 -23 15 -35 0 -12 7 -28 15 -35 8 -7 15 -18 15 -26 0 -7 14 -33 30 -57 17 -25 30 -53 30 -62 0 -9 -171 -188 -381 -398 -210 -209 -392 -398 -405 -419 -19 -30 -24 -51 -24 -102 0 -73 21 -125 68 -168 57 -52 72 -58 160 -58 69 0 88 4 115 22 18 12 206 196 419 408 344 341 390 383 405 372 10 -6 28 -16 40 -21 11 -6 24 -15 28 -20 3 -6 14 -11 24 -11 10 0 24 -7 31 -15 7 -8 20 -15 30 -15 10 0 23 -7 30 -15 7 -8 22 -15 34 -15 12 0 31 -7 42 -15 10 -8 32 -15 47 -15 15 0 40 -6 55 -14 79 -40 506 -39 579 2 12 7 32 12 45 12 13 0 33 7 44 15 10 8 31 15 45 15 15 0 32 7 39 15 7 8 20 15 30 15 10 0 23 7 30 15 7 8 20 15 30 15 10 0 23 7 30 15 7 8 16 15 21 15 22 0 154 103 236 184 84 84 193 226 193 252 0 7 7 14 15 18 8 3 15 13 15 22 0 9 6 28 14 42 37 71 65 151 76 214 5 26 13 56 19 67 7 12 11 97 11 222 0 200 -4 234 -42 344 -5 17 -12 41 -15 55 -3 14 -17 52 -33 85 -15 33 -31 67 -34 75 -3 8 -15 29 -26 45 -11 17 -23 37 -27 45 -23 53 -170 217 -240 271 -32 24 -62 49 -68 55 -27 30 -154 100 -270 149 -35 15 -110 36 -210 59 -89 21 -361 20 -450 -1z m420 -426 c132 -32 287 -126 379 -229 72 -82 83 -97 117 -168 65 -135 73 -172 73 -350 -1 -150 -11 -221 -41 -290 -6 -14 -14 -32 -17 -40 -4 -8 -15 -28 -26 -45 -11 -16 -23 -37 -27 -45 -9 -22 -63 -89 -99 -126 -77 -76 -198 -151 -314 -194 -37 -13 -169 -32 -235 -33 -241 -3 -472 114 -626 319 -24 33 -52 77 -62 99 -10 22 -25 53 -33 68 -8 16 -14 39 -14 51 0 12 -7 31 -15 42 -21 27 -21 347 0 384 8 14 14 35 15 47 0 19 11 45 41 103 5 8 18 33 30 56 30 58 113 152 173 198 28 21 53 41 56 45 3 4 25 17 50 30 25 12 52 26 60 30 25 15 92 38 155 54 74 19 273 16 360 -6z"/> <path d="M2200 2901 c-81 -10 -116 -34 -146 -101 -21 -48 -4 -101 47 -141 44 -35 76 -36 201 -11 118 24 148 51 148 132 0 51 -3 59 -34 89 -30 29 -41 34 -98 36 -34 2 -88 0 -118 -4z"/> <path d="M1787 2673 c-56 -59 -117 -149 -117 -173 0 -10 -7 -23 -15 -30 -8 -7 -15 -24 -15 -39 0 -14 -7 -35 -15 -45 -11 -15 -15 -48 -15 -127 0 -121 12 -147 78 -175 31 -13 43 -13 77 -3 69 21 98 72 109 189 8 77 37 145 97 220 15 20 35 52 45 73 17 35 17 38 -2 74 -32 63 -61 82 -125 83 -54 0 -58 -2 -102 -47z"/> </g> </svg> 