 <svg  version="1.0" xmlns="http://www.w3.org/2000/svg"  width="390.000000pt" height="390.000000pt" viewBox="0 0 390.000000 390.000000"  preserveAspectRatio="xMidYMid meet">  <g transform="translate(0.000000,390.000000) scale(0.100000,-0.100000)" fill="#e1e1e1" stroke="none"> <path d="M918 3256 c-7 -13 -23 -42 -36 -65 -35 -64 -95 -111 -140 -111 -23 0 -92 -37 -92 -49 0 -12 35 -41 48 -41 7 0 12 -4 12 -9 0 -6 11 -16 24 -23 14 -7 64 -40 111 -73 47 -33 94 -64 103 -70 9 -5 33 -22 53 -37 27 -21 48 -28 80 -28 40 0 48 -5 97 -57 29 -32 81 -87 115 -123 34 -36 100 -108 147 -160 46 -52 114 -126 151 -165 217 -228 226 -241 172 -247 -32 -4 -39 -35 -10 -49 9 -5 25 -14 35 -19 9 -6 27 -14 39 -19 11 -6 24 -15 28 -20 3 -6 14 -11 24 -11 10 0 24 -7 31 -15 16 -19 54 -19 70 0 13 16 8 36 -21 85 -5 8 -12 22 -15 30 -3 8 -11 29 -19 45 -7 17 -16 43 -19 58 -9 39 -34 46 -57 16 l-19 -24 -31 35 c-17 19 -78 85 -134 145 -56 61 -121 133 -145 160 -23 28 -86 97 -139 154 -233 251 -221 234 -221 318 0 62 -3 75 -30 111 -16 23 -30 49 -30 57 0 9 -7 18 -15 21 -8 4 -15 12 -15 19 0 6 -12 30 -27 52 -51 73 -55 79 -67 116 -8 25 -43 21 -58 -7z"/> <path d="M1910 3175 c-44 -29 -120 -109 -120 -127 0 -7 -7 -22 -15 -32 -9 -11 -15 -41 -15 -69 0 -40 -5 -53 -29 -78 -17 -16 -40 -29 -54 -29 -14 0 -30 -7 -37 -15 -7 -8 -18 -15 -25 -15 -6 0 -32 -11 -56 -25 -24 -14 -51 -28 -59 -32 -8 -3 -31 -18 -50 -32 -19 -14 -44 -31 -54 -37 -11 -6 -21 -15 -23 -20 -4 -12 72 -94 87 -94 7 0 29 13 49 28 20 16 44 32 54 35 9 4 17 11 17 17 0 5 8 10 19 10 10 0 24 7 31 15 7 8 23 15 35 15 12 0 28 7 35 15 7 8 25 15 39 15 15 0 36 7 47 15 10 8 37 15 59 15 22 1 58 7 80 15 26 10 80 15 155 15 75 0 129 -5 155 -15 22 -8 58 -14 81 -15 22 0 49 -7 60 -15 10 -8 31 -15 45 -15 15 0 32 -7 39 -15 7 -8 23 -15 36 -15 12 0 25 -4 28 -9 3 -5 25 -19 48 -31 24 -12 59 -35 79 -51 20 -16 40 -29 44 -29 15 0 138 -127 162 -167 14 -24 29 -43 34 -43 5 0 9 -5 9 -11 0 -6 14 -31 30 -56 17 -24 30 -50 30 -57 0 -7 7 -21 15 -32 8 -10 15 -28 15 -39 0 -11 7 -29 15 -39 8 -11 15 -33 15 -48 0 -16 7 -45 15 -65 21 -51 21 -348 0 -400 -8 -19 -15 -48 -15 -62 0 -15 -7 -36 -15 -47 -8 -10 -15 -27 -15 -36 0 -9 -7 -29 -14 -45 -8 -15 -18 -35 -21 -43 -7 -17 -16 -33 -67 -111 -72 -110 -258 -274 -358 -314 -8 -4 -22 -11 -30 -16 -8 -5 -19 -11 -25 -13 -5 -1 -26 -9 -45 -16 -19 -6 -53 -16 -75 -20 -22 -4 -53 -12 -68 -19 -44 -17 -395 -14 -427 4 -14 8 -41 14 -61 15 -20 0 -42 7 -49 15 -7 8 -25 15 -40 15 -15 0 -33 7 -40 15 -7 8 -21 15 -31 15 -10 0 -21 5 -24 11 -4 5 -17 14 -28 20 -33 14 -61 33 -70 47 -4 6 -14 12 -21 12 -32 0 -217 201 -249 270 -4 8 -18 35 -32 59 -14 24 -25 50 -25 56 0 7 -7 18 -15 25 -8 7 -15 24 -15 39 -1 14 -7 37 -15 51 -8 14 -14 41 -15 61 0 20 -7 56 -15 79 -17 49 -21 231 -5 260 6 10 14 45 19 77 9 61 24 109 47 156 8 16 14 37 14 47 0 10 5 22 11 25 5 4 15 17 20 28 5 12 18 36 29 52 11 17 23 36 26 44 4 7 18 25 30 39 30 32 30 35 -3 71 -16 16 -34 37 -41 45 -7 9 -16 16 -20 16 -15 0 -147 -189 -168 -240 -12 -29 -37 -85 -51 -112 -7 -14 -13 -36 -13 -48 0 -12 -5 -31 -12 -43 -7 -12 -15 -47 -19 -77 -4 -30 -12 -90 -18 -132 -9 -57 -9 -99 0 -155 6 -43 14 -103 18 -133 4 -30 12 -65 19 -77 7 -12 12 -31 12 -43 0 -12 6 -34 13 -48 14 -27 39 -83 51 -112 3 -8 15 -28 26 -45 26 -39 40 -72 40 -92 0 -16 -24 -76 -55 -136 -8 -16 -15 -34 -15 -42 0 -7 -7 -18 -15 -25 -8 -7 -15 -23 -15 -35 0 -12 -7 -28 -15 -35 -8 -7 -15 -19 -15 -27 0 -8 -6 -27 -13 -41 -8 -15 -21 -42 -30 -60 -9 -19 -17 -41 -17 -50 0 -9 -7 -26 -15 -36 -20 -26 -18 -56 4 -84 18 -21 26 -22 169 -22 l150 0 41 41 c22 23 41 49 41 59 0 10 7 23 15 30 8 7 15 18 15 26 0 7 6 28 14 46 8 18 18 50 21 71 5 30 10 37 29 37 13 0 30 -7 37 -16 7 -9 22 -20 34 -25 20 -9 32 -15 70 -37 11 -7 27 -15 35 -18 8 -3 28 -12 43 -20 16 -7 38 -14 50 -14 12 0 31 -7 41 -15 11 -8 34 -15 50 -15 17 0 49 -7 71 -15 56 -20 374 -20 430 0 22 8 54 15 71 15 16 0 39 7 50 15 10 8 31 15 45 15 15 0 32 7 39 15 7 8 23 15 35 15 12 0 28 7 35 15 7 8 20 15 30 15 10 0 23 7 30 15 7 8 17 15 22 15 5 0 24 11 42 25 44 33 56 32 56 -7 0 -18 7 -42 15 -52 8 -11 15 -28 15 -39 0 -17 13 -48 41 -97 5 -8 13 -25 18 -36 5 -12 23 -31 39 -43 27 -19 43 -21 179 -21 103 0 153 4 161 12 17 17 15 100 -3 124 -8 10 -15 29 -15 40 0 12 -7 27 -15 34 -8 7 -15 19 -15 27 0 8 -6 27 -13 41 -8 15 -21 42 -30 60 -9 19 -17 39 -17 47 0 7 -7 18 -15 25 -8 7 -15 23 -15 35 0 12 -7 28 -15 35 -8 7 -15 20 -15 29 0 10 -7 26 -15 37 -17 22 -20 80 -4 89 5 4 14 17 20 28 5 12 13 30 19 39 5 10 15 26 20 35 6 10 13 25 16 33 3 8 12 29 19 45 23 56 37 100 45 145 4 25 13 61 19 80 14 45 14 315 0 360 -6 19 -15 55 -19 80 -8 44 -21 86 -46 145 -7 17 -15 37 -18 45 -3 8 -10 22 -15 30 -5 8 -12 22 -16 30 -13 33 -83 139 -114 174 -85 95 -228 226 -246 226 -5 0 -16 6 -24 14 -25 22 -192 106 -211 106 -34 0 -59 34 -76 105 -9 39 -20 77 -25 85 -5 8 -16 30 -25 48 -16 32 -83 92 -102 92 -5 0 -15 7 -22 15 -10 12 -39 15 -149 14 -125 0 -139 -2 -171 -24z"/> <path d="M1990 2528 c-25 -5 -65 -13 -90 -17 -56 -11 -117 -34 -132 -49 -7 -7 -20 -12 -29 -12 -9 0 -22 -7 -29 -15 -7 -8 -18 -15 -25 -15 -16 0 -45 -33 -45 -51 0 -8 34 -49 75 -92 78 -82 93 -88 136 -51 8 8 22 14 29 14 7 0 21 7 31 16 14 12 45 16 164 16 146 0 146 0 210 -33 61 -31 145 -102 172 -145 55 -87 76 -169 70 -270 -6 -111 -15 -139 -72 -243 -17 -31 -114 -121 -130 -121 -7 0 -18 -7 -25 -15 -7 -8 -22 -15 -34 -15 -12 0 -31 -7 -42 -15 -14 -11 -49 -14 -136 -15 -118 0 -130 2 -228 49 -40 19 -148 117 -161 146 -5 11 -13 27 -18 35 -39 69 -41 79 -41 212 0 103 3 139 15 154 25 33 19 80 -17 117 -18 18 -50 55 -71 80 -58 72 -74 64 -139 -62 -15 -30 -28 -63 -28 -73 0 -10 -7 -30 -16 -43 -13 -20 -16 -54 -16 -180 0 -126 3 -160 16 -180 9 -13 16 -33 16 -44 0 -24 33 -92 67 -138 12 -17 23 -36 23 -41 0 -22 155 -165 200 -185 8 -4 23 -11 33 -17 9 -5 25 -15 35 -20 9 -6 24 -13 32 -16 8 -3 30 -12 48 -20 18 -8 48 -14 67 -14 18 0 36 -4 39 -9 10 -15 167 -23 226 -11 30 7 74 14 97 17 23 3 47 11 54 19 6 8 19 14 29 14 9 0 37 11 61 25 24 13 55 29 68 35 31 14 193 176 212 212 8 14 25 48 38 75 13 26 28 57 34 68 6 11 14 40 18 65 4 25 12 72 19 106 9 47 9 74 0 120 -7 32 -15 79 -19 104 -4 25 -12 54 -18 65 -6 11 -21 42 -34 68 -13 27 -30 61 -38 75 -19 37 -196 212 -214 212 -8 0 -20 7 -27 15 -7 8 -20 15 -30 15 -10 0 -23 7 -30 15 -7 8 -22 15 -34 15 -12 0 -27 5 -34 12 -6 6 -30 14 -54 19 -24 4 -70 12 -103 18 -69 12 -111 12 -175 -1z"/> <path d="M2033 2092 c-23 -2 -47 -10 -54 -18 -12 -15 -9 -24 38 -116 7 -14 13 -48 13 -75 0 -39 -5 -54 -23 -71 -27 -26 -88 -30 -107 -7 -7 8 -17 15 -23 15 -6 0 -18 7 -28 16 -26 24 -37 10 -31 -41 6 -54 26 -97 67 -144 34 -38 67 -57 142 -83 47 -16 55 -16 93 -3 24 8 51 15 62 15 10 0 21 7 24 15 4 8 12 15 18 15 15 0 76 62 76 77 0 6 7 13 15 17 8 3 15 13 15 23 0 10 7 36 15 59 21 61 -10 157 -73 224 -26 28 -53 50 -61 50 -8 0 -22 6 -30 14 -17 15 -82 23 -148 18z"/> </g> </svg> 