 <svg  version="1.0" xmlns="http://www.w3.org/2000/svg"  width="390.000000pt" height="390.000000pt" viewBox="0 0 390.000000 390.000000"  preserveAspectRatio="xMidYMid meet">  <g transform="translate(0.000000,390.000000) scale(0.100000,-0.100000)" fill="#e1e1e1" stroke="none"> <path d="M1240 3275 c-14 -8 -31 -14 -39 -15 -21 0 -90 -34 -91 -44 0 -12 92 -136 102 -136 4 0 8 -5 8 -11 0 -6 18 -38 40 -71 36 -52 38 -59 23 -65 -20 -6 -83 -72 -83 -85 0 -4 -21 -8 -47 -8 -46 0 -49 -2 -80 -48 -31 -44 -33 -53 -33 -132 0 -64 5 -94 21 -127 11 -24 26 -43 32 -43 7 0 35 11 62 24 81 39 189 64 200 47 10 -17 -14 -191 -32 -227 -21 -41 -12 -61 29 -65 68 -8 100 4 134 47 28 38 32 51 38 135 7 101 21 149 41 149 7 0 15 -12 18 -27 9 -43 -4 -185 -19 -215 -8 -15 -14 -36 -14 -46 0 -11 -7 -25 -15 -32 -8 -7 -15 -21 -15 -30 0 -27 89 -100 123 -100 21 0 27 -5 27 -22 0 -26 -62 -98 -83 -98 -8 0 -30 -6 -49 -14 -31 -13 -40 -13 -83 2 -55 19 -112 70 -117 104 -4 28 -48 37 -68 14 -7 -10 -29 -16 -54 -16 -76 0 -97 -34 -116 -190 -9 -76 -26 -144 -46 -183 -8 -16 -14 -33 -14 -39 0 -6 -14 -33 -30 -60 -29 -47 -31 -54 -28 -141 l3 -92 30 2 c71 5 152 20 172 31 12 7 33 12 47 12 13 0 37 6 53 14 51 25 98 45 121 51 12 3 22 11 22 16 0 5 11 9 25 9 13 0 28 8 34 17 9 17 10 17 28 0 11 -9 27 -17 35 -17 9 0 21 -7 28 -15 7 -8 23 -15 35 -15 12 0 28 -7 35 -15 7 -8 22 -15 34 -15 11 0 30 -7 40 -15 11 -8 32 -15 47 -15 15 0 40 -7 55 -15 16 -8 45 -15 64 -15 19 0 58 -6 85 -13 41 -11 51 -18 53 -38 2 -13 10 -28 18 -32 8 -4 14 -21 14 -36 0 -26 52 -111 104 -170 25 -28 162 -131 175 -131 5 0 14 -7 21 -15 7 -8 21 -15 32 -15 10 0 21 -7 24 -15 13 -34 81 -9 211 77 54 35 170 150 184 182 5 11 14 30 21 41 23 40 28 50 32 60 1 6 9 26 16 45 6 19 16 53 20 75 4 22 12 53 19 68 6 16 11 41 11 57 0 15 12 77 26 137 19 82 26 145 30 263 3 85 2 160 -3 165 -12 16 -115 45 -159 45 -21 0 -48 7 -58 15 -11 8 -34 15 -52 15 -17 0 -37 7 -44 15 -7 8 -23 15 -35 15 -12 0 -28 7 -35 15 -7 8 -19 15 -26 15 -8 0 -36 16 -64 36 -35 25 -56 34 -70 29 -11 -3 -20 -11 -20 -16 0 -5 -10 -14 -22 -19 -13 -6 -43 -22 -67 -35 -24 -14 -52 -25 -61 -25 -10 0 -23 -7 -30 -15 -7 -8 -26 -15 -42 -15 -16 0 -39 -5 -51 -12 -12 -7 -47 -15 -77 -19 -30 -4 -73 -15 -94 -24 l-39 -16 7 -157 c3 -86 9 -172 13 -191 4 -24 2 -32 -6 -27 -6 4 -11 14 -11 22 0 9 -6 21 -13 29 -8 8 -17 48 -20 96 -4 45 -11 87 -17 93 -5 5 -10 27 -10 47 0 47 -17 60 -87 68 -60 6 -83 27 -36 33 32 3 44 39 21 66 -22 27 -45 84 -56 137 -17 77 -24 144 -17 155 3 5 22 -6 42 -25 20 -19 41 -35 48 -35 6 0 25 -16 41 -35 35 -43 61 -45 69 -7 4 15 13 39 21 54 8 14 14 37 14 50 0 12 7 41 15 63 9 25 14 81 15 150 0 130 -14 181 -89 322 -17 33 -125 141 -154 154 -34 15 -67 35 -80 48 -6 6 -20 11 -32 11 -11 0 -29 7 -39 15 -28 21 -300 21 -336 0z m336 -330 c4 -8 10 -15 16 -15 10 0 78 -71 78 -82 0 -5 -7 -8 -15 -8 -8 0 -15 6 -15 13 0 6 -14 21 -30 32 -16 11 -30 25 -30 32 0 6 -10 13 -22 15 -12 2 -23 9 -26 16 -6 18 37 15 44 -3z m482 -1316 c-2 -6 -8 -10 -13 -10 -5 0 -11 4 -13 10 -2 6 4 11 13 11 9 0 15 -5 13 -11z m692 -394 c0 -8 -7 -15 -15 -15 -8 0 -15 7 -15 15 0 8 7 15 15 15 8 0 15 -7 15 -15z"/> <path d="M1460 1505 c-7 -8 -19 -15 -27 -15 -8 0 -27 -6 -41 -13 -15 -8 -42 -21 -60 -30 -19 -9 -46 -17 -61 -17 -15 0 -36 -7 -47 -15 -10 -8 -37 -15 -59 -15 -22 0 -51 -7 -65 -15 -14 -8 -42 -14 -62 -15 -43 0 -61 -22 -47 -58 12 -33 36 -38 90 -19 25 9 62 17 81 17 19 0 43 7 54 15 10 8 33 15 50 15 17 0 37 7 44 15 7 8 19 15 27 15 8 0 27 6 41 14 52 26 119 56 128 56 5 0 41 -16 79 -35 39 -19 77 -35 86 -35 9 0 22 -7 29 -15 7 -8 27 -15 44 -15 17 0 40 -7 50 -15 11 -8 38 -15 61 -15 23 0 46 -5 51 -10 6 -6 31 -12 55 -13 41 -2 44 0 47 26 4 35 -13 57 -43 57 -12 0 -39 7 -58 15 -20 8 -53 15 -74 15 -21 0 -47 7 -57 15 -11 8 -31 15 -45 15 -14 0 -35 7 -45 15 -11 8 -30 15 -42 15 -12 0 -27 7 -34 15 -7 8 -20 15 -30 15 -10 0 -23 7 -30 15 -7 8 -27 15 -45 15 -18 0 -38 -7 -45 -15z"/> <path d="M1435 1368 c-105 -53 -172 -78 -235 -87 -25 -4 -52 -11 -60 -16 -8 -6 -40 -12 -70 -15 -49 -4 -55 -8 -59 -30 -1 -14 4 -38 12 -55 9 -16 18 -42 21 -57 4 -16 15 -30 28 -34 12 -3 28 -13 36 -20 7 -8 23 -14 35 -14 12 0 31 -7 41 -15 11 -8 38 -15 60 -15 23 0 54 -7 70 -15 41 -21 352 -21 380 0 11 8 41 15 67 15 29 0 51 6 59 15 7 8 25 15 40 15 15 0 33 7 40 15 7 8 18 15 25 15 19 0 45 34 45 61 0 13 7 33 15 43 20 26 19 62 -1 70 -9 3 -33 6 -54 6 -21 0 -51 7 -66 15 -16 8 -45 15 -64 15 -19 0 -44 7 -54 15 -11 8 -32 15 -47 15 -14 0 -32 7 -39 15 -7 8 -18 15 -24 15 -7 0 -39 14 -71 30 -32 17 -61 30 -64 29 -3 0 -33 -14 -66 -31z"/> <path d="M1019 1004 c-19 -20 -42 -43 -51 -52 -10 -9 -18 -24 -18 -32 0 -9 -13 -29 -30 -45 -36 -34 -38 -60 -7 -76 12 -7 42 -29 67 -50 50 -41 154 -99 179 -99 9 0 25 -7 35 -15 11 -8 31 -15 45 -15 14 0 35 -7 45 -15 11 -8 38 -15 60 -15 38 0 45 5 90 60 28 33 57 60 67 60 9 0 41 -27 70 -60 49 -55 58 -60 95 -60 22 0 49 7 60 15 10 8 29 15 41 15 12 0 34 6 50 14 25 12 70 32 113 50 32 14 62 34 110 76 41 35 50 49 50 75 0 18 -7 38 -15 45 -8 7 -15 20 -15 29 0 24 -98 131 -120 131 -9 0 -23 -7 -30 -15 -7 -8 -25 -15 -40 -15 -15 0 -33 -7 -40 -15 -8 -10 -31 -15 -69 -15 -33 -1 -64 -7 -75 -15 -29 -22 -333 -22 -362 0 -11 8 -42 14 -75 15 -33 0 -63 6 -75 15 -10 8 -31 15 -45 15 -15 0 -29 7 -33 15 -9 25 -42 17 -77 -21z"/> </g> </svg> 