 <svg  version="1.0" xmlns="http://www.w3.org/2000/svg"  width="390.000000pt" height="390.000000pt" viewBox="0 0 390.000000 390.000000"  preserveAspectRatio="xMidYMid meet">  <g transform="translate(0.000000,390.000000) scale(0.100000,-0.100000)" fill="#e1e1e1" stroke="none"> <path d="M1765 3422 c-121 -24 -143 -46 -185 -187 -30 -104 -59 -155 -86 -155 -7 0 -29 -8 -49 -17 -34 -16 -38 -16 -73 1 -20 10 -44 22 -52 27 -8 5 -22 12 -30 15 -8 3 -42 19 -75 35 -33 16 -73 29 -88 29 -24 0 -69 -21 -87 -40 -3 -3 -30 -25 -60 -50 -77 -63 -140 -126 -185 -185 -20 -27 -40 -52 -44 -55 -38 -29 -52 -109 -26 -144 8 -11 15 -27 15 -37 0 -9 7 -22 15 -29 8 -7 15 -20 15 -30 0 -10 7 -23 15 -30 8 -7 15 -20 15 -30 0 -10 7 -23 15 -30 19 -16 19 -59 0 -84 -8 -11 -15 -27 -15 -36 0 -31 -49 -59 -155 -90 -107 -31 -175 -78 -175 -120 0 -14 -7 -57 -15 -95 -19 -89 -19 -201 0 -290 8 -38 15 -79 15 -91 0 -23 66 -94 88 -94 8 0 28 -6 45 -13 49 -21 100 -39 127 -44 31 -7 70 -41 70 -63 0 -9 7 -25 15 -36 24 -31 19 -55 -26 -134 -5 -8 -12 -22 -15 -30 -3 -8 -10 -22 -15 -30 -5 -8 -12 -22 -15 -30 -3 -8 -12 -27 -20 -42 -8 -14 -14 -38 -14 -53 0 -26 24 -80 46 -100 5 -5 28 -32 50 -60 50 -63 106 -119 169 -169 28 -22 55 -45 60 -50 19 -20 73 -46 95 -46 12 0 63 20 114 45 52 25 98 45 104 45 5 0 15 7 22 15 16 19 59 19 84 0 11 -8 27 -15 36 -15 32 0 64 -58 90 -159 5 -18 13 -38 19 -44 6 -6 11 -21 11 -32 0 -12 16 -37 35 -56 33 -33 40 -36 163 -53 124 -17 133 -17 260 0 128 17 134 19 167 53 19 19 35 44 35 56 0 12 7 30 15 41 8 10 15 30 15 44 0 14 7 34 15 44 8 11 15 29 15 41 0 24 39 65 61 65 8 0 24 7 35 15 25 19 68 19 84 0 7 -8 17 -15 22 -15 6 0 52 -20 104 -45 51 -25 102 -45 114 -45 22 0 76 26 95 46 5 5 32 28 60 50 63 50 119 106 169 169 22 28 45 55 50 60 21 19 46 73 46 97 0 13 -13 51 -30 83 -16 32 -30 64 -30 71 0 6 -7 17 -15 24 -8 7 -15 20 -15 30 0 10 -7 23 -15 30 -19 16 -19 60 0 86 8 10 15 26 15 35 0 21 39 55 70 62 27 5 78 23 127 44 17 7 37 13 45 13 8 0 30 16 49 35 33 33 36 40 53 161 18 123 18 130 0 261 -18 126 -21 137 -50 165 -29 29 -68 47 -139 68 -105 30 -155 59 -155 89 0 9 -7 25 -15 35 -19 26 -19 70 0 86 8 7 15 17 15 24 0 10 44 108 76 168 8 14 14 36 14 48 0 22 -26 76 -46 95 -5 5 -28 32 -50 60 -50 63 -106 119 -169 169 -28 22 -55 45 -60 50 -20 22 -74 46 -100 46 -24 0 -53 -12 -105 -41 -8 -5 -22 -12 -30 -15 -8 -3 -22 -10 -30 -15 -8 -5 -22 -12 -30 -15 -8 -3 -27 -12 -42 -20 -33 -18 -58 -17 -82 1 -11 8 -27 15 -36 15 -22 0 -60 42 -60 66 0 11 -7 29 -15 40 -8 10 -15 30 -15 44 0 14 -7 34 -15 44 -8 11 -15 30 -15 42 0 11 -15 36 -34 55 -28 27 -49 36 -103 46 -116 22 -267 24 -368 5z m275 -247 c17 -7 50 -68 50 -93 0 -10 7 -27 15 -38 8 -10 15 -27 15 -37 1 -53 74 -137 121 -137 11 0 33 -6 47 -14 67 -34 163 -76 177 -76 14 0 170 70 238 107 28 15 30 14 65 -18 53 -51 127 -130 127 -138 0 -3 -12 -31 -26 -61 -15 -30 -29 -62 -33 -70 -3 -8 -10 -22 -15 -30 -45 -78 -53 -127 -26 -150 8 -7 15 -20 15 -30 0 -10 7 -23 15 -30 8 -7 15 -22 15 -34 0 -11 7 -30 15 -40 8 -11 15 -30 15 -43 0 -48 82 -122 137 -123 10 0 27 -7 37 -15 11 -8 28 -15 38 -15 22 0 80 -28 90 -44 4 -6 8 -54 8 -106 0 -52 -4 -99 -8 -105 -12 -16 -69 -45 -89 -45 -11 0 -28 -7 -39 -15 -10 -8 -27 -15 -37 -15 -53 -1 -137 -74 -137 -121 0 -11 -6 -33 -14 -47 -80 -157 -86 -180 -62 -229 8 -15 17 -35 20 -43 3 -8 10 -22 15 -30 5 -8 23 -44 41 -79 l32 -65 -79 -78 c-43 -42 -84 -78 -91 -78 -7 0 -37 11 -65 24 -29 13 -59 26 -67 30 -8 3 -22 10 -30 14 -90 51 -104 52 -185 13 -101 -48 -132 -61 -149 -61 -43 0 -116 -83 -116 -132 0 -13 -7 -32 -15 -42 -8 -11 -15 -28 -15 -38 0 -36 -34 -86 -64 -92 -36 -8 -154 -8 -182 0 -22 6 -54 61 -54 92 0 10 -7 27 -15 38 -8 10 -15 27 -15 36 -1 53 -75 138 -121 138 -11 0 -33 6 -47 13 -15 8 -42 21 -60 30 -19 9 -39 17 -47 17 -7 0 -18 7 -25 15 -16 19 -64 19 -98 1 -52 -28 -207 -101 -215 -101 -13 0 -167 157 -167 170 0 7 7 18 15 25 8 7 15 20 15 30 0 10 7 23 15 30 8 7 15 18 15 25 0 7 14 40 30 73 34 68 36 90 15 118 -8 10 -15 26 -15 35 0 9 -7 22 -15 29 -8 7 -15 22 -15 34 0 11 -7 30 -15 40 -8 11 -15 29 -15 39 0 50 -82 126 -137 127 -10 0 -27 7 -37 15 -11 8 -28 15 -38 15 -9 0 -35 9 -56 20 -35 18 -40 26 -46 67 -15 114 -1 172 49 196 20 9 43 17 53 17 9 0 26 7 36 15 11 8 28 15 38 15 54 0 126 66 141 130 9 42 33 100 45 112 7 7 12 19 12 28 0 8 7 24 15 34 21 28 19 48 -15 119 -17 35 -30 69 -30 74 0 6 -7 16 -15 23 -8 7 -15 20 -15 30 0 10 -7 23 -15 30 -8 7 -15 18 -15 24 0 11 58 75 132 144 l35 33 59 -29 c101 -51 193 -92 209 -92 8 0 41 13 72 29 87 43 132 61 150 61 46 0 123 86 123 138 0 10 7 27 15 38 8 10 15 27 15 36 0 36 34 89 60 94 14 3 30 8 35 10 14 5 136 -3 155 -11z"/> <path d="M1845 2550 c-11 -5 -32 -9 -47 -9 -25 -1 -82 -21 -118 -42 -8 -5 -22 -12 -30 -16 -61 -27 -220 -186 -220 -220 0 -5 -5 -14 -12 -21 -15 -15 -36 -73 -54 -152 -54 -240 58 -492 277 -626 31 -19 61 -34 67 -34 6 0 23 -6 39 -14 15 -8 55 -19 89 -25 187 -34 381 28 519 167 106 105 175 269 175 412 0 53 -22 176 -37 205 -5 11 -18 38 -29 60 -65 140 -238 278 -384 308 -67 13 -212 18 -235 7z m244 -272 c57 -27 129 -98 161 -158 20 -39 23 -58 23 -150 1 -103 0 -106 -37 -168 -37 -63 -84 -105 -161 -144 -59 -31 -210 -29 -279 2 -62 28 -134 100 -166 165 -22 43 -25 63 -24 150 0 116 17 159 94 236 79 79 142 101 269 93 49 -3 91 -12 120 -26z"/> </g> </svg> 