 <svg  version="1.0" xmlns="http://www.w3.org/2000/svg"  width="390.000000pt" height="390.000000pt" viewBox="0 0 390.000000 390.000000"  preserveAspectRatio="xMidYMid meet">  <g transform="translate(0.000000,390.000000) scale(0.100000,-0.100000)" fill="#e1e1e1" stroke="none"> <path d="M2615 3258 c-26 -30 -27 -36 -23 -125 3 -90 4 -94 33 -118 23 -20 40 -25 75 -23 33 2 45 -2 47 -12 1 -8 -35 -48 -79 -88 l-80 -73 -33 26 c-19 14 -40 25 -48 25 -8 0 -20 7 -27 15 -7 8 -22 15 -34 15 -11 0 -30 7 -40 15 -11 8 -36 15 -56 15 -20 0 -41 5 -47 11 -16 16 -181 23 -243 10 -30 -7 -74 -16 -98 -20 -24 -4 -48 -13 -54 -19 -7 -7 -22 -12 -34 -12 -12 0 -27 -7 -34 -15 -7 -8 -20 -15 -30 -15 -10 0 -23 -7 -30 -15 -7 -8 -18 -15 -26 -15 -7 0 -17 -6 -21 -13 -4 -7 -36 -34 -69 -60 -65 -49 -172 -181 -200 -247 -3 -8 -12 -28 -19 -45 -35 -84 -59 -205 -58 -295 2 -106 23 -213 58 -295 7 -16 16 -37 19 -45 30 -71 183 -260 211 -260 5 0 21 -12 35 -26 13 -14 33 -30 45 -35 11 -5 27 -13 35 -18 14 -8 60 -28 125 -56 84 -35 272 -55 339 -35 21 6 60 15 85 20 61 11 141 40 141 51 0 5 11 9 24 9 13 0 29 7 36 15 7 8 18 15 24 15 28 0 245 214 246 242 0 4 14 27 30 51 17 25 30 54 30 65 0 11 7 25 15 32 8 7 15 29 15 49 0 20 6 43 13 49 8 9 13 59 15 157 3 117 1 150 -12 176 -9 18 -16 47 -16 64 0 18 -7 38 -15 45 -8 7 -15 23 -15 35 0 12 -7 28 -15 35 -8 7 -15 18 -15 25 0 7 -7 18 -15 25 -30 25 -16 54 65 133 44 43 84 76 89 72 6 -3 8 -19 4 -35 -18 -91 30 -140 138 -140 57 0 69 4 116 36 l53 36 0 253 0 253 -37 39 c-73 76 -59 73 -350 73 l-261 0 -27 -32z m-335 -613 c14 -8 35 -14 46 -15 12 0 27 -7 34 -15 7 -8 21 -15 32 -15 22 0 178 -151 178 -173 0 -8 7 -20 15 -27 8 -7 15 -22 15 -34 0 -12 7 -31 15 -42 21 -27 21 -261 0 -288 -8 -11 -15 -30 -15 -42 0 -12 -7 -27 -15 -34 -8 -7 -15 -19 -15 -27 0 -21 -156 -173 -177 -173 -11 0 -24 -5 -31 -12 -20 -20 -101 -39 -186 -45 -128 -9 -264 44 -362 142 -28 28 -84 113 -84 129 0 6 -5 17 -12 24 -14 14 -31 111 -31 182 0 71 17 168 31 182 7 7 12 18 12 26 0 23 94 140 141 174 47 35 88 56 159 81 59 20 215 22 250 2z"/> <path d="M1935 2491 c-80 -63 -115 -111 -115 -154 0 -19 7 -40 15 -47 8 -7 15 -18 15 -25 0 -8 6 -26 14 -42 8 -15 20 -44 27 -63 17 -46 24 -209 10 -223 -16 -16 -14 -23 17 -54 41 -42 154 -93 205 -93 39 0 57 15 57 47 0 12 7 48 15 80 8 31 15 82 15 113 0 31 -7 82 -15 113 -8 32 -15 70 -15 85 0 15 -7 36 -15 46 -8 11 -15 30 -15 42 0 12 -7 27 -15 34 -8 7 -15 21 -15 31 0 10 -5 21 -11 24 -5 4 -15 17 -20 28 -24 53 -67 107 -84 107 -5 -1 -37 -22 -70 -49z"/> <path d="M1347 2824 c-5 -5 -36 -11 -70 -15 -62 -6 -107 -19 -160 -45 -16 -8 -37 -14 -48 -14 -11 0 -22 -7 -25 -15 -4 -8 -12 -15 -19 -15 -40 0 -255 -194 -255 -229 0 -6 -4 -11 -9 -11 -10 0 -20 -16 -60 -97 -37 -77 -48 -105 -61 -163 -7 -30 -19 -66 -27 -79 -27 -42 -22 -163 10 -249 15 -40 27 -82 27 -92 0 -10 7 -31 15 -47 7 -15 24 -50 37 -76 38 -79 49 -97 59 -97 5 0 9 -5 9 -11 0 -32 219 -229 255 -229 7 0 15 -7 19 -15 3 -8 16 -15 29 -15 14 0 30 -6 36 -14 6 -8 24 -16 39 -19 15 -3 45 -12 67 -20 l40 -15 0 -84 0 -83 -86 -3 c-77 -2 -89 -5 -110 -28 -19 -20 -24 -39 -27 -92 -8 -136 26 -177 146 -173 76 2 82 -3 82 -72 0 -44 19 -91 45 -109 5 -4 53 -8 106 -8 87 0 97 2 117 23 18 19 22 35 22 83 0 33 5 65 12 72 7 7 42 12 89 12 73 0 78 2 108 32 30 30 31 35 31 115 0 71 -3 89 -22 113 -21 30 -23 30 -115 30 -108 0 -106 -1 -101 110 3 64 3 64 38 73 19 5 39 13 44 18 6 5 19 9 30 9 29 0 166 69 166 84 0 19 -22 36 -46 36 -12 0 -24 7 -28 15 -3 8 -13 15 -22 15 -9 0 -33 14 -54 30 -21 17 -42 30 -46 30 -5 0 -22 14 -39 31 -29 29 -33 30 -85 23 -105 -14 -271 -1 -291 22 -6 8 -18 14 -26 14 -17 0 -129 83 -160 119 -12 14 -22 31 -23 38 0 7 -6 16 -12 20 -12 8 -24 30 -62 116 -23 53 -23 261 0 314 38 87 51 110 81 151 34 46 153 142 176 142 7 0 22 7 33 15 10 8 35 15 54 15 46 0 98 33 116 73 25 55 75 128 126 181 15 17 28 33 28 37 0 14 -190 36 -203 23z"/> </g> </svg> 