 <svg  version="1.0" xmlns="http://www.w3.org/2000/svg"  width="390.000000pt" height="390.000000pt" viewBox="0 0 390.000000 390.000000"  preserveAspectRatio="xMidYMid meet">  <g transform="translate(0.000000,390.000000) scale(0.100000,-0.100000)" fill="#e1e1e1" stroke="none"> <path d="M2390 3245 c-14 -8 -34 -14 -46 -15 -11 0 -29 -7 -40 -15 -10 -8 -32 -15 -49 -15 -16 0 -41 -7 -55 -15 -14 -8 -38 -14 -53 -15 -15 0 -41 -10 -57 -22 l-30 -22 0 -115 0 -116 -448 -447 -447 -448 -161 0 -162 0 -201 -201 c-209 -208 -222 -227 -183 -262 15 -14 40 -17 120 -17 56 0 102 -3 102 -6 0 -4 -20 -24 -45 -46 -61 -54 -70 -71 -49 -103 26 -40 59 -33 115 25 27 28 53 49 58 46 4 -3 6 -48 3 -100 -5 -92 -4 -95 22 -121 l26 -26 40 31 c22 18 40 36 40 41 0 15 20 10 52 -12 27 -20 38 -21 119 -16 49 4 89 3 89 -1 0 -4 -25 -34 -56 -65 -53 -54 -55 -58 -42 -79 8 -12 24 -28 35 -35 20 -13 26 -10 79 41 59 56 93 73 79 39 -4 -10 -10 -50 -12 -89 -4 -57 -2 -76 12 -97 26 -41 71 -37 112 10 l33 37 30 -22 c25 -19 42 -22 125 -22 52 0 95 -4 95 -8 0 -5 -13 -18 -29 -30 -17 -12 -42 -37 -56 -56 -25 -33 -26 -36 -10 -60 27 -41 61 -34 122 26 37 37 54 47 57 37 3 -8 7 -61 8 -119 3 -102 4 -105 28 -113 24 -9 40 5 225 193 110 111 204 208 208 217 5 8 8 83 8 166 l-2 151 445 445 446 446 106 2 c110 1 154 13 154 42 0 9 7 25 15 35 8 11 15 36 15 55 0 20 7 45 15 55 8 11 15 34 15 51 0 17 7 40 15 51 8 11 14 41 15 71 0 45 -4 55 -25 69 -23 15 -27 15 -50 0 -13 -9 -37 -16 -52 -16 -15 -1 -39 -7 -53 -15 -14 -8 -36 -14 -50 -15 -14 0 -38 -7 -54 -15 -15 -8 -39 -15 -53 -15 -13 0 -37 -10 -53 -22 l-30 -22 0 -115 0 -116 -448 -448 -447 -447 -159 0 -159 0 -39 -36 c-41 -37 -66 -40 -59 -8 3 10 5 72 6 137 l1 118 449 449 450 450 116 0 c123 0 132 3 142 50 3 14 10 40 16 58 6 17 16 47 22 65 6 17 14 50 18 72 4 22 13 50 19 62 15 28 15 86 0 101 -16 16 -73 15 -111 -2 -18 -8 -45 -16 -62 -19 -16 -3 -45 -10 -62 -16 -83 -28 -100 -33 -123 -38 -47 -10 -50 -19 -50 -142 l0 -117 -452 -451 -453 -452 -167 -3 -167 -3 -30 -35 c-36 -43 -58 -33 -40 19 7 21 10 69 6 129 l-5 97 449 450 449 450 106 1 c115 2 154 14 154 48 0 12 7 30 15 40 8 11 15 34 15 51 0 17 7 40 15 51 8 10 15 35 15 54 0 19 7 44 15 54 8 11 15 41 15 67 0 38 -5 51 -22 63 -27 19 -36 19 -68 1z m-30 -149 c0 -8 -7 -16 -15 -20 -9 -3 -15 -18 -15 -37 0 -18 -8 -50 -17 -71 l-18 -38 -65 2 -65 3 -1 55 c-2 65 15 90 61 90 17 0 40 7 51 15 25 19 84 20 84 1z m465 -288 c-3 -13 -10 -39 -15 -58 -5 -19 -15 -53 -23 -75 l-15 -40 -69 0 -68 0 -3 73 c-3 72 -3 72 24 72 14 0 38 6 52 14 23 12 84 30 116 35 4 0 5 -9 1 -21z m495 -280 c0 -7 -7 -22 -15 -32 -8 -11 -15 -33 -15 -49 0 -16 -8 -42 -17 -58 -17 -29 -20 -30 -83 -27 l-65 3 -1 55 c-2 63 15 90 55 90 14 0 37 7 51 14 32 18 90 20 90 4z m-2282 -645 c-2 -10 -54 -67 -116 -128 l-113 -110 -77 -6 c-87 -7 -115 0 -87 22 9 8 65 61 123 119 l107 105 65 6 c36 3 73 7 83 7 12 1 17 -4 15 -15z m92 -156 l0 -82 -128 -128 c-70 -70 -131 -125 -135 -121 -4 4 -7 39 -7 77 l0 70 128 133 c70 72 130 132 135 133 4 1 7 -36 7 -82z m390 -125 c0 -5 -57 -66 -127 -135 l-128 -127 -82 0 c-46 0 -83 4 -83 9 0 4 50 57 111 117 62 60 119 117 128 127 12 13 32 17 98 17 46 0 83 -4 83 -8z m90 -162 l0 -81 -127 -129 c-71 -72 -131 -130 -135 -130 -5 0 -8 37 -8 82 l0 82 123 127 c67 69 128 127 135 128 9 1 12 -21 12 -79z m390 -124 c0 -8 -52 -65 -116 -128 l-116 -113 -76 -7 c-42 -3 -81 -3 -85 2 -5 4 44 61 110 126 l118 119 70 6 c39 3 76 6 83 7 6 1 12 -4 12 -12z m90 -164 l0 -77 -126 -127 c-69 -71 -130 -125 -135 -122 -5 3 -9 37 -9 76 l0 72 128 131 c70 72 130 129 135 127 4 -2 7 -38 7 -80z"/> </g> </svg> 