 <svg  version="1.0" xmlns="http://www.w3.org/2000/svg"  width="390.000000pt" height="390.000000pt" viewBox="0 0 390.000000 390.000000"  preserveAspectRatio="xMidYMid meet">  <g transform="translate(0.000000,390.000000) scale(0.100000,-0.100000)" fill="#e1e1e1" stroke="none"> <path d="M856 3161 c-108 -109 -126 -132 -118 -148 6 -10 65 -71 131 -137 120 -117 122 -118 142 -100 16 14 20 30 19 74 -1 30 -1 61 -1 68 1 10 161 12 784 10 l782 -3 5 -79 c3 -53 9 -81 18 -84 13 -4 245 217 264 252 9 16 -8 37 -118 148 -71 70 -136 127 -144 126 -11 -3 -16 -23 -20 -83 l-5 -80 -774 -3 c-527 -1 -778 1 -785 8 -6 6 -9 38 -8 71 3 60 -7 89 -32 89 -7 0 -69 -58 -140 -129z"/> <path d="M2892 2755 c-68 -68 -122 -130 -120 -137 3 -9 29 -14 75 -16 44 -2 76 -8 82 -16 8 -9 10 -237 9 -782 l-3 -769 -73 -5 c-75 -5 -97 -18 -84 -49 8 -19 246 -251 257 -251 16 0 255 244 255 260 0 29 -23 40 -86 40 -35 0 -65 4 -69 9 -3 6 -5 353 -5 772 0 556 3 765 11 775 8 9 34 14 80 14 64 0 69 2 69 21 0 26 -231 259 -257 259 -9 0 -73 -56 -141 -125z"/> <path d="M668 2640 c-20 -11 -46 -32 -57 -46 -21 -27 -21 -28 -21 -977 l0 -950 40 -39 41 -38 945 0 c642 0 952 3 965 11 11 5 33 28 49 51 l30 41 0 927 0 927 -29 40 c-56 78 11 73 -1013 73 -883 -1 -914 -2 -950 -20z m1712 -267 c0 -13 0 -1487 0 -1500 0 -10 -159 -13 -760 -13 l-760 0 0 753 c0 415 3 757 7 760 9 10 1513 9 1513 0z"/> </g> </svg> 