 <svg  version="1.0" xmlns="http://www.w3.org/2000/svg"  width="390.000000pt" height="390.000000pt" viewBox="0 0 390.000000 390.000000"  preserveAspectRatio="xMidYMid meet">  <g transform="translate(0.000000,390.000000) scale(0.100000,-0.100000)" fill="#e1e1e1" stroke="none"> <path d="M825 3276 c-16 -8 -37 -17 -45 -20 -62 -27 -131 -96 -155 -156 -4 -8 -13 -29 -21 -45 -11 -23 -14 -64 -12 -180 l3 -150 150 -3 c211 -4 196 -12 192 109 -2 59 1 103 7 106 5 4 54 5 107 4 119 -3 111 -17 107 194 l-3 150 -150 2 c-111 2 -158 -1 -180 -11z"/> <path d="M1257 3283 c-9 -8 -9 -305 -1 -327 5 -14 83 -15 700 -16 l694 0 5 22 c3 13 4 91 3 173 l-3 150 -696 3 c-382 1 -699 -1 -702 -5z"/> <path d="M2757 3283 c-10 -9 -8 -316 2 -331 5 -9 31 -12 87 -11 44 2 85 0 90 -4 7 -4 9 -42 6 -106 -6 -121 -20 -113 193 -109 l150 3 3 159 c2 129 0 163 -13 182 -8 13 -15 29 -15 37 0 30 -101 126 -165 156 -62 30 -70 31 -198 31 -74 0 -137 -3 -140 -7z"/> <path d="M595 2618 c-3 -7 -4 -323 -3 -703 l3 -690 150 -3 c83 -1 160 0 173 3 l22 5 0 694 c0 623 -2 694 -16 700 -9 3 -85 6 -170 6 -115 0 -156 -3 -159 -12z"/> <path d="M2953 2624 c-10 -5 -13 -154 -13 -700 l0 -694 23 -5 c12 -3 90 -4 172 -3 l150 3 0 700 0 700 -160 2 c-88 1 -166 -1 -172 -3z"/> <path d="M597 1123 c-4 -3 -7 -66 -7 -140 0 -130 1 -135 32 -199 34 -69 126 -164 159 -164 9 0 22 -7 29 -15 11 -13 40 -15 179 -13 l166 3 3 150 c4 211 12 197 -107 194 -53 -1 -102 1 -108 4 -7 5 -9 35 -6 88 5 63 3 83 -8 90 -16 10 -322 12 -332 2z"/> <path d="M2951 1121 c-11 -7 -13 -27 -8 -90 3 -54 1 -83 -6 -88 -6 -4 -48 -6 -94 -4 -100 2 -95 14 -91 -194 l3 -150 149 -3 c120 -2 153 0 172 13 13 8 29 15 36 15 18 0 148 133 148 151 0 8 7 24 15 36 13 18 15 50 13 170 l-3 148 -160 2 c-88 2 -166 -1 -174 -6z"/> <path d="M1255 918 c-3 -13 -4 -90 -3 -173 l3 -150 700 0 700 0 3 150 c1 83 0 160 -3 173 l-5 22 -695 0 -695 0 -5 -22z"/> </g> </svg> 