 <svg  version="1.0" xmlns="http://www.w3.org/2000/svg"  width="390.000000pt" height="390.000000pt" viewBox="0 0 390.000000 390.000000"  preserveAspectRatio="xMidYMid meet">  <g transform="translate(0.000000,390.000000) scale(0.100000,-0.100000)" fill="#e1e1e1" stroke="none"> <path d="M1740 3259 c-30 -16 -59 -29 -66 -29 -6 0 -17 -7 -24 -15 -7 -8 -21 -15 -31 -15 -9 0 -24 -7 -33 -15 -8 -8 -23 -15 -34 -15 -11 0 -25 -7 -32 -15 -7 -8 -20 -15 -30 -15 -10 0 -23 -7 -30 -15 -7 -8 -19 -15 -26 -15 -8 0 -40 -13 -71 -29 -136 -68 -249 -121 -259 -121 -7 0 -17 -7 -24 -15 -7 -8 -20 -15 -30 -15 -10 0 -23 -7 -30 -15 -7 -8 -20 -15 -30 -15 -10 0 -23 -7 -30 -15 -7 -8 -23 -15 -37 -15 -13 0 -26 -7 -29 -15 -4 -8 -16 -15 -29 -15 -12 0 -28 -7 -35 -15 -7 -8 -20 -15 -30 -15 -10 0 -23 -7 -30 -15 -7 -8 -20 -15 -30 -15 -10 0 -23 -7 -30 -15 -7 -8 -17 -15 -23 -15 -6 0 -30 -9 -54 -21 -29 -14 -43 -27 -43 -41 0 -22 37 -57 61 -58 9 0 22 -7 29 -15 7 -8 20 -15 30 -15 10 0 23 -7 30 -15 7 -8 18 -15 25 -15 8 0 26 -7 42 -14 15 -8 35 -17 43 -20 8 -3 23 -10 33 -16 9 -5 25 -15 35 -20 9 -6 24 -13 32 -16 8 -3 22 -10 30 -15 8 -5 22 -12 30 -15 8 -4 52 -24 97 -45 45 -22 85 -39 89 -39 4 0 22 11 40 25 18 14 40 25 49 25 8 0 18 7 21 15 4 8 14 15 24 15 10 0 23 7 30 15 7 8 21 15 31 15 10 0 20 4 23 9 3 5 58 35 121 67 177 90 195 103 195 136 0 69 179 90 246 27 35 -33 30 -50 -24 -86 -43 -30 -54 -33 -123 -33 -56 0 -80 -4 -89 -15 -7 -8 -20 -15 -29 -15 -9 0 -21 -4 -26 -9 -6 -6 -71 -41 -145 -79 -144 -74 -230 -120 -242 -131 -12 -11 21 -51 41 -51 10 0 24 -7 31 -15 7 -8 18 -15 25 -15 12 0 52 -18 95 -42 8 -4 21 -10 28 -13 6 -3 18 -7 25 -10 6 -3 19 -9 27 -14 42 -26 208 -101 223 -101 10 0 28 -5 39 -11 21 -11 82 0 118 22 8 5 22 12 30 15 33 12 182 81 363 169 51 25 98 45 104 45 6 0 16 7 23 15 7 8 21 15 31 15 9 0 24 7 33 15 8 8 23 15 34 15 11 0 25 7 32 15 7 8 20 15 30 15 10 0 23 7 30 15 7 8 17 15 24 15 20 0 423 199 437 217 15 17 5 41 -23 53 -13 6 -31 14 -40 20 -10 5 -26 15 -35 20 -10 6 -25 13 -33 16 -8 3 -22 10 -30 15 -8 5 -22 12 -30 15 -8 4 -57 26 -107 50 -51 24 -137 65 -190 90 -54 25 -105 50 -113 55 -8 5 -22 12 -30 15 -29 11 -85 37 -100 46 -8 4 -22 11 -30 14 -8 3 -22 10 -30 15 -8 5 -22 12 -30 15 -8 4 -58 26 -110 51 -52 25 -111 51 -130 60 -19 8 -42 19 -50 24 -8 5 -22 12 -30 15 -8 3 -27 12 -42 20 -45 24 -135 16 -198 -17z"/> <path d="M1050 2196 c0 -141 3 -171 20 -210 14 -33 25 -46 40 -46 18 0 20 6 20 54 0 30 5 67 11 83 12 31 30 219 23 237 -6 15 -70 46 -94 46 -19 0 -20 -8 -20 -164z"/> <path d="M2600 2345 c-7 -8 -18 -15 -24 -15 -10 0 -119 -50 -156 -71 -8 -5 -22 -12 -30 -15 -8 -3 -56 -26 -106 -50 -49 -24 -95 -44 -101 -44 -6 0 -16 -7 -23 -15 -7 -8 -20 -15 -30 -15 -10 0 -23 -7 -30 -15 -7 -8 -23 -15 -35 -15 -12 0 -28 -7 -35 -15 -7 -8 -18 -15 -25 -15 -8 0 -26 -6 -42 -14 -109 -54 -112 -54 -369 70 -38 19 -75 34 -81 34 -6 0 -16 7 -23 15 -7 8 -23 15 -35 15 -13 0 -25 7 -29 15 -3 8 -15 15 -27 15 -12 0 -27 7 -33 16 -7 9 -18 13 -30 8 -14 -5 -17 -14 -12 -38 4 -17 11 -74 16 -126 5 -52 14 -115 19 -140 6 -25 10 -75 11 -111 0 -75 24 -119 65 -119 12 0 28 -7 35 -15 7 -8 24 -15 39 -15 14 -1 37 -7 51 -15 14 -8 41 -15 60 -15 19 0 53 -7 75 -15 56 -20 258 -20 315 0 23 8 59 15 79 15 20 1 47 7 61 15 14 8 37 14 51 15 15 0 32 7 39 15 7 8 19 15 27 15 8 0 27 6 41 14 15 8 34 17 42 21 91 37 231 159 270 233 12 23 26 45 31 48 10 6 4 318 -6 334 -9 15 -31 12 -45 -5z"/> <path d="M1226 2233 c-3 -4 -6 -34 -6 -67 0 -34 -7 -86 -15 -116 -8 -30 -15 -85 -15 -122 0 -37 -5 -79 -11 -95 -6 -15 -15 -71 -19 -123 -4 -52 -11 -105 -15 -117 -12 -37 33 -73 93 -73 97 0 120 47 87 173 -8 32 -15 86 -15 120 0 34 -5 78 -11 97 -6 19 -14 91 -19 160 -5 69 -11 133 -15 142 -7 18 -30 30 -39 21z"/> <path d="M3005 1678 c-22 -5 -53 -14 -70 -20 -16 -5 -48 -14 -70 -18 -22 -4 -55 -13 -72 -19 -18 -6 -48 -16 -65 -22 -18 -6 -52 -14 -76 -19 -24 -4 -48 -12 -54 -18 -7 -7 -26 -12 -42 -12 -17 -1 -42 -7 -56 -15 -14 -8 -38 -15 -55 -15 -16 0 -41 -7 -55 -15 -14 -8 -39 -14 -56 -15 -33 0 -58 -19 -46 -35 4 -6 26 -23 49 -39 23 -15 45 -36 48 -46 3 -10 27 -37 53 -60 96 -85 102 -93 102 -149 0 -31 5 -53 15 -61 8 -7 15 -18 15 -24 0 -6 17 -31 39 -56 38 -44 38 -44 64 -27 15 9 41 17 59 17 18 0 46 7 62 15 15 8 47 15 70 15 22 1 52 7 66 15 14 8 45 15 70 15 25 0 56 7 70 15 14 8 37 14 51 15 29 0 139 95 139 120 0 8 7 24 15 34 21 28 21 218 0 236 -8 7 -15 21 -15 31 0 28 -120 145 -156 152 -16 3 -36 8 -44 10 -8 2 -33 0 -55 -5z"/> <path d="M2021 1415 c-18 -8 -50 -15 -70 -15 -20 -1 -54 -7 -76 -15 -22 -8 -56 -15 -76 -15 -20 0 -56 -7 -79 -15 -23 -8 -59 -15 -80 -15 -20 0 -59 -7 -86 -15 -27 -8 -67 -15 -89 -15 -54 -1 -148 -24 -152 -37 -2 -6 18 -24 44 -40 68 -43 152 -132 192 -205 33 -61 34 -67 35 -178 l1 -116 -33 -41 c-17 -22 -32 -48 -32 -57 0 -21 48 -22 56 -1 4 8 16 15 28 15 12 0 31 7 42 15 10 8 28 15 39 15 11 0 29 7 39 15 11 8 29 15 41 15 12 0 30 7 41 15 10 8 28 15 40 15 11 0 29 7 40 15 10 8 28 15 40 15 11 0 29 7 40 15 10 8 30 15 42 15 13 0 36 6 50 14 15 8 39 17 53 20 44 9 94 49 97 78 2 15 10 32 18 38 8 7 14 23 14 36 0 13 4 24 10 24 5 0 13 12 16 28 4 15 13 37 21 48 10 16 11 28 3 49 -14 36 4 89 43 132 l29 31 -47 51 c-26 28 -53 51 -60 51 -7 0 -18 7 -25 15 -17 20 -162 20 -209 0z"/> <path d="M1028 1221 c-61 -29 -138 -99 -138 -124 0 -8 -6 -20 -14 -26 -8 -6 -16 -24 -19 -39 -29 -140 -29 -136 -9 -218 l19 -79 33 2 c18 1 42 10 53 22 18 18 19 23 8 44 -16 29 -10 117 10 166 16 39 60 89 101 114 35 22 146 23 174 2 10 -8 26 -15 34 -15 20 0 120 -101 120 -121 0 -8 7 -24 15 -35 22 -29 19 -126 -4 -165 -32 -52 -67 -69 -142 -69 -66 0 -67 0 -119 50 -51 49 -51 49 -52 114 -2 87 14 106 88 106 50 0 55 -2 85 -40 36 -45 44 -47 78 -21 24 19 24 19 7 47 -31 48 -85 91 -136 108 -56 18 -86 20 -95 6 -3 -5 -15 -10 -25 -10 -10 0 -35 -20 -54 -44 -35 -42 -36 -46 -36 -125 0 -55 5 -92 16 -114 22 -43 114 -137 135 -137 9 0 22 -7 29 -15 9 -11 34 -15 100 -15 66 0 91 4 100 15 7 8 18 15 25 15 23 0 93 77 114 125 25 56 27 131 6 182 -8 19 -15 41 -15 49 0 21 -75 127 -120 168 -24 22 -72 54 -109 73 -89 44 -177 46 -263 4z"/> <path d="M2352 1220 c-34 -45 -29 -90 13 -133 20 -21 43 -37 51 -37 24 0 64 31 64 49 0 9 5 22 11 28 9 9 9 20 -1 45 -33 82 -97 104 -138 48z"/> <path d="M2505 1042 c-50 -10 -70 -59 -40 -98 8 -10 15 -28 15 -38 0 -28 32 -96 44 -96 6 1 20 15 32 33 16 25 26 31 47 29 41 -4 35 29 -20 101 -58 78 -54 74 -78 69z"/> <path d="M2312 1028 c-7 -7 -12 -22 -12 -34 0 -12 -7 -27 -15 -34 -8 -7 -15 -23 -15 -35 0 -12 -7 -28 -15 -35 -8 -7 -15 -23 -15 -35 0 -13 -7 -25 -15 -29 -20 -7 -19 -45 0 -53 9 -3 25 3 36 13 27 24 85 24 103 -2 14 -18 16 -18 32 -2 15 14 18 36 18 120 1 98 0 103 -21 106 -12 2 -27 10 -33 18 -15 17 -32 18 -48 2z"/> <path d="M1152 897 c-12 -13 -22 -33 -22 -44 0 -31 59 -103 104 -126 l39 -21 46 25 c32 17 47 32 53 53 10 41 2 49 -46 42 -50 -8 -76 0 -76 23 0 20 -46 71 -64 71 -7 0 -22 -10 -34 -23z"/> </g> </svg> 