 <svg  version="1.0" xmlns="http://www.w3.org/2000/svg"  width="390.000000pt" height="390.000000pt" viewBox="0 0 390.000000 390.000000"  preserveAspectRatio="xMidYMid meet">  <g transform="translate(0.000000,390.000000) scale(0.100000,-0.100000)" fill="#e1e1e1" stroke="none"> <path d="M3305 3290 c-21 -16 -48 -30 -60 -30 -12 0 -28 -7 -35 -15 -7 -8 -22 -15 -34 -15 -12 0 -31 -7 -42 -15 -10 -8 -29 -15 -40 -15 -12 0 -27 -7 -34 -15 -7 -8 -21 -15 -31 -15 -18 0 -66 -18 -122 -46 -16 -8 -36 -14 -45 -14 -9 0 -26 -7 -36 -15 -11 -8 -30 -15 -42 -15 -12 0 -27 -7 -34 -15 -7 -8 -25 -15 -40 -15 -15 0 -33 -7 -40 -15 -7 -8 -21 -15 -30 -15 -10 0 -31 -6 -47 -14 -59 -29 -133 -57 -200 -77 -18 -6 -33 -14 -33 -19 0 -6 -10 -10 -23 -10 -13 0 -32 -7 -43 -15 -10 -8 -31 -15 -45 -15 -15 0 -32 -7 -39 -15 -7 -8 -22 -15 -34 -15 -12 0 -31 -7 -42 -15 -10 -8 -29 -15 -40 -15 -12 0 -27 -7 -34 -15 -7 -8 -25 -15 -40 -15 -15 0 -33 -7 -40 -15 -7 -8 -21 -15 -30 -15 -18 0 -33 -6 -114 -48 -50 -25 -158 -132 -182 -180 -11 -20 -25 -41 -31 -45 -7 -4 -13 -18 -13 -30 0 -12 -7 -31 -15 -41 -8 -11 -15 -37 -15 -59 0 -21 -5 -47 -11 -58 -6 -11 -14 -50 -19 -87 -5 -37 -12 -80 -15 -97 -8 -42 22 -78 64 -78 43 0 71 28 71 72 0 20 7 54 15 76 8 22 14 63 15 90 0 28 7 59 15 69 8 11 15 30 15 42 0 41 116 194 146 194 6 0 17 7 24 15 7 8 21 15 30 15 10 0 32 7 49 15 17 8 45 22 62 30 17 8 38 15 48 15 9 0 26 7 37 15 10 8 29 15 40 15 12 0 27 7 34 15 7 8 22 15 34 15 12 0 31 7 42 15 10 8 28 15 40 15 11 0 29 7 40 15 10 8 27 15 36 15 9 0 30 7 47 15 17 8 45 22 62 30 17 8 38 15 48 15 9 0 26 7 37 15 10 8 28 15 39 15 11 0 29 7 39 15 11 8 30 15 42 15 12 0 27 7 34 15 7 8 22 15 34 15 12 0 31 7 42 15 10 8 29 15 40 15 12 0 27 7 34 15 7 8 21 15 31 15 18 0 66 18 122 46 16 8 36 14 45 14 9 0 26 7 36 15 11 8 29 15 41 15 12 0 26 5 33 12 14 14 80 37 87 30 11 -11 5 -50 -10 -62 -8 -7 -15 -25 -15 -40 0 -15 -7 -33 -15 -40 -8 -7 -15 -18 -15 -24 0 -17 -73 -86 -91 -86 -8 0 -24 -7 -35 -15 -10 -8 -27 -15 -36 -15 -17 0 -67 -19 -121 -46 -16 -8 -41 -14 -57 -14 -15 0 -33 -7 -40 -15 -7 -8 -22 -15 -34 -15 -12 0 -31 -7 -42 -15 -10 -8 -28 -15 -40 -15 -11 0 -29 -7 -40 -15 -10 -8 -28 -15 -40 -15 -11 0 -29 -7 -40 -15 -10 -8 -30 -15 -44 -15 -14 0 -34 -7 -44 -15 -11 -8 -29 -15 -40 -15 -12 0 -30 -7 -40 -15 -11 -8 -29 -15 -40 -15 -12 0 -30 -7 -40 -15 -11 -8 -29 -15 -41 -15 -12 0 -30 -7 -41 -15 -10 -8 -28 -15 -39 -15 -11 0 -29 -7 -39 -15 -11 -8 -28 -15 -39 -15 -10 0 -31 -6 -45 -14 -15 -8 -38 -17 -52 -20 -43 -10 -73 -41 -73 -75 0 -60 52 -88 111 -57 36 18 91 37 124 43 15 3 33 11 39 19 6 8 24 14 39 14 15 0 33 7 40 15 7 8 24 15 39 15 14 0 35 7 45 15 11 8 29 15 40 15 12 0 30 7 40 15 11 8 29 15 41 15 12 0 30 7 41 15 10 8 28 15 40 15 11 0 29 7 40 15 10 8 27 15 37 15 11 0 31 6 45 14 36 18 91 37 124 43 15 3 33 11 39 19 6 8 22 14 34 14 12 0 28 7 35 15 7 9 29 15 51 15 31 0 39 -4 39 -19 0 -10 -7 -24 -15 -31 -8 -7 -15 -18 -15 -24 0 -29 -110 -106 -150 -106 -9 0 -25 -7 -36 -15 -10 -8 -27 -15 -37 -15 -11 0 -32 -7 -48 -15 -16 -8 -42 -22 -58 -30 -16 -8 -40 -15 -54 -15 -13 0 -30 -7 -37 -15 -7 -8 -22 -15 -34 -15 -12 0 -31 -7 -42 -15 -10 -8 -27 -15 -36 -15 -9 0 -30 -7 -47 -15 -17 -8 -45 -22 -62 -30 -17 -8 -38 -15 -47 -15 -9 0 -26 -7 -36 -15 -11 -8 -29 -15 -41 -15 -12 0 -30 -7 -41 -15 -10 -8 -29 -15 -40 -15 -12 0 -27 -7 -34 -15 -7 -8 -22 -15 -34 -15 -11 -1 -39 -11 -61 -24 -34 -19 -40 -28 -43 -60 -2 -21 2 -44 9 -52 16 -19 103 -19 119 1 7 8 22 15 34 15 12 0 31 7 42 15 10 8 28 15 40 15 11 0 29 7 40 15 10 8 27 15 36 15 9 0 30 7 47 15 17 8 45 22 62 30 17 8 38 15 47 15 9 0 26 7 36 15 11 8 30 15 42 15 12 0 27 7 34 15 7 8 22 15 34 15 12 0 31 7 42 15 10 8 29 15 40 15 12 0 27 7 34 15 7 8 23 15 35 15 13 0 36 8 53 17 16 9 36 14 45 10 15 -5 15 -9 0 -37 -32 -65 -134 -140 -189 -140 -11 0 -29 -7 -40 -15 -10 -8 -28 -15 -40 -15 -11 0 -29 -7 -40 -15 -10 -8 -30 -15 -44 -15 -15 0 -31 -5 -37 -11 -6 -6 -26 -14 -44 -19 -46 -11 -98 -30 -131 -46 -14 -8 -35 -14 -45 -14 -11 0 -28 -7 -39 -15 -13 -10 -45 -14 -100 -15 -46 0 -100 -7 -124 -15 -24 -8 -77 -15 -119 -15 -42 0 -111 -7 -154 -15 -43 -8 -105 -15 -137 -15 -49 0 -64 -4 -90 -27 -17 -14 -36 -36 -41 -47 -16 -35 -37 -68 -46 -75 -5 -3 -37 -42 -70 -86 -33 -44 -74 -93 -90 -110 -15 -16 -46 -52 -68 -80 -120 -154 -495 -505 -538 -505 -8 0 -20 -7 -27 -15 -7 -8 -18 -15 -25 -15 -7 0 -18 -7 -25 -15 -7 -8 -19 -15 -27 -15 -14 0 -78 -46 -115 -82 -23 -23 -25 -100 -3 -118 8 -7 15 -20 15 -30 0 -26 64 -87 116 -110 54 -23 103 -25 159 -5 22 8 49 15 61 15 11 0 29 7 40 15 10 8 31 15 45 15 14 0 34 7 45 15 10 8 27 15 37 15 17 0 50 14 97 41 8 5 20 11 25 13 6 2 17 7 25 10 8 3 22 10 30 15 8 5 22 12 30 15 8 4 29 15 45 26 17 11 37 23 45 26 8 3 20 8 25 10 6 2 24 13 40 24 17 11 37 22 45 26 8 3 22 9 30 14 8 5 49 25 90 45 41 20 88 42 103 50 16 8 45 15 65 15 20 1 66 7 102 15 43 9 131 15 260 15 143 1 206 5 235 15 22 8 49 15 61 15 26 0 107 42 148 77 17 14 41 43 52 64 12 21 27 46 34 54 9 10 13 51 13 125 0 110 -7 139 -49 223 -8 16 -14 33 -14 39 0 5 -13 30 -30 55 -16 24 -30 50 -30 57 0 8 -7 19 -15 26 -8 7 -15 19 -15 27 0 7 -10 27 -22 44 -27 36 -17 59 28 72 16 5 42 15 57 23 16 8 39 14 51 14 12 0 31 7 42 15 10 8 30 15 44 15 14 0 34 7 44 15 11 8 29 15 41 15 12 0 30 7 41 15 10 8 31 15 45 15 15 0 32 7 39 15 7 8 20 15 29 15 31 0 135 106 156 160 3 8 13 28 21 43 7 16 14 50 14 76 0 45 3 51 45 87 25 21 55 57 66 81 11 24 25 45 30 49 5 3 9 41 9 84 l0 78 42 34 c60 47 114 110 131 153 20 48 37 116 37 141 0 17 7 37 15 44 10 8 15 31 15 69 0 51 -4 61 -34 94 -18 20 -40 37 -48 37 -9 0 -32 -13 -53 -30z m-1097 -1448 c2 -12 -4 -32 -12 -44 -9 -12 -16 -36 -16 -53 0 -17 -7 -40 -15 -51 -8 -10 -15 -41 -15 -67 0 -27 -6 -58 -12 -70 -12 -21 -18 -66 -36 -276 -5 -61 -11 -87 -23 -94 -29 -18 -49 -1 -49 42 0 35 -29 103 -85 199 -36 63 -262 272 -293 272 -5 0 -15 7 -22 15 -7 8 -21 15 -31 15 -14 0 -19 7 -19 25 0 41 47 58 185 65 66 4 133 12 148 18 16 7 65 12 110 13 45 0 100 4 122 8 52 11 59 9 63 -17z m150 -184 c18 -35 32 -68 32 -74 0 -6 7 -17 15 -24 8 -7 15 -23 15 -35 0 -12 7 -39 15 -58 20 -48 19 -112 -2 -150 -25 -46 -74 -97 -93 -97 -9 0 -25 -7 -36 -15 -10 -8 -29 -15 -41 -15 -22 0 -23 3 -23 108 0 68 6 122 15 147 8 22 14 63 15 90 0 28 7 61 15 75 8 14 14 44 15 68 0 60 20 54 58 -20z m-810 -53 c20 -14 42 -25 49 -25 7 0 13 -5 13 -10 0 -6 10 -14 23 -19 71 -27 247 -238 247 -297 0 -6 7 -17 15 -24 12 -10 22 -58 13 -61 -2 0 -55 -3 -118 -6 -71 -3 -127 -11 -147 -20 -37 -17 -63 -12 -63 13 0 34 -158 190 -232 229 -39 20 -48 38 -25 52 7 4 34 35 59 68 61 79 104 125 118 125 6 0 28 -11 48 -25z m-308 -310 c7 -8 19 -15 26 -15 8 0 14 -5 14 -10 0 -6 11 -15 24 -20 13 -5 54 -37 90 -70 81 -77 84 -96 18 -127 -68 -33 -153 -80 -165 -92 -6 -6 -17 -11 -24 -11 -8 0 -27 -10 -44 -22 -31 -23 -31 -23 -46 -3 -8 11 -22 35 -29 53 -8 18 -32 50 -54 72 -22 22 -40 44 -40 48 0 12 193 210 206 211 6 1 17 -6 24 -14z m-295 -326 c19 -17 35 -40 35 -50 0 -11 7 -22 15 -25 9 -4 15 -19 15 -35 0 -22 -5 -29 -19 -29 -10 0 -24 -7 -31 -15 -7 -8 -21 -15 -30 -15 -18 0 -31 -6 -108 -44 -19 -9 -49 -16 -67 -16 -19 0 -45 -4 -60 -10 -33 -13 -105 21 -105 49 0 26 50 62 148 106 17 9 32 19 32 24 0 5 10 11 23 15 12 3 40 21 62 41 22 19 43 35 47 35 4 0 23 -14 43 -31z"/> </g> </svg> 