 <svg  version="1.0" xmlns="http://www.w3.org/2000/svg"  width="390.000000pt" height="390.000000pt" viewBox="0 0 390.000000 390.000000"  preserveAspectRatio="xMidYMid meet">  <g transform="translate(0.000000,390.000000) scale(0.100000,-0.100000)" fill="#e1e1e1" stroke="none"> <path d="M919 3199 l-29 -31 0 -209 0 -209 -198 0 c-193 0 -200 -1 -225 -23 l-27 -23 0 -405 0 -406 23 -21 c22 -20 34 -22 222 -24 l200 -3 5 -200 c4 -170 8 -204 23 -225 l17 -25 393 -5 392 -5 33 -65 c21 -43 31 -77 30 -100 -8 -122 83 -232 202 -246 76 -8 101 -33 106 -104 4 -60 42 -124 91 -155 18 -11 32 -25 33 -32 1 -29 44 -33 329 -33 159 0 296 3 305 6 9 3 16 11 16 18 0 6 20 28 44 48 53 44 86 105 86 157 0 61 27 87 101 95 77 8 120 34 164 99 31 46 35 59 35 118 0 53 6 76 30 124 16 32 30 64 30 71 0 7 6 25 14 41 50 103 71 217 71 393 0 175 -14 245 -66 340 -5 8 -15 29 -22 45 -8 17 -40 62 -72 102 -98 123 -254 228 -410 275 -27 9 -70 22 -95 29 -45 14 -366 20 -455 9 l-40 -5 -5 47 c-4 35 -12 52 -31 67 -25 19 -42 21 -235 23 l-209 3 -5 215 c-5 196 -7 217 -25 238 l-19 22 -399 0 -399 0 -29 -31z m689 -392 l2 -228 27 -10 c14 -5 110 -9 212 -9 102 0 192 1 199 0 21 0 13 -40 -10 -50 -31 -14 -56 -30 -103 -66 -135 -107 -210 -214 -275 -394 -23 -63 -34 -234 -23 -349 6 -58 8 -109 6 -113 -2 -5 -130 -8 -284 -8 l-279 0 0 208 c0 151 -3 213 -12 225 -11 15 -40 17 -228 19 l-215 3 0 260 0 260 218 5 c179 4 219 8 227 20 5 8 10 110 10 227 0 191 2 213 18 222 11 7 108 10 262 8 l245 -2 3 -228z m638 -1103 c138 -57 179 -242 76 -349 -88 -93 -201 -100 -308 -19 -71 53 -96 180 -53 263 25 50 77 101 100 101 10 0 21 5 24 10 10 16 118 12 161 -6z m756 2 c65 -28 115 -94 131 -173 10 -49 -19 -143 -56 -181 -113 -117 -289 -88 -366 59 -53 101 3 246 113 294 41 18 135 18 178 1z m-411 -475 c37 -40 99 -157 99 -188 0 -9 -10 -27 -22 -40 -29 -31 -73 -30 -93 1 -26 39 -46 41 -73 6 -43 -55 -112 -31 -112 40 0 20 7 45 15 56 8 10 15 25 15 32 0 19 68 105 93 119 32 18 37 17 78 -26z"/> </g> </svg> 