 <svg  version="1.0" xmlns="http://www.w3.org/2000/svg"  width="390.000000pt" height="390.000000pt" viewBox="0 0 390.000000 390.000000"  preserveAspectRatio="xMidYMid meet">  <g transform="translate(0.000000,390.000000) scale(0.100000,-0.100000)" fill="#e1e1e1" stroke="none"> <path d="M1454 3419 c-132 -53 -258 -208 -339 -419 -9 -25 -22 -58 -29 -75 -21 -51 -46 -132 -46 -151 0 -11 -7 -28 -15 -38 -8 -11 -15 -29 -15 -40 0 -12 -9 -43 -19 -71 -20 -53 -13 -48 -156 -103 -190 -71 -314 -167 -377 -290 -23 -46 -25 -169 -3 -198 8 -10 15 -27 15 -37 0 -10 33 -50 73 -90 59 -60 91 -82 178 -125 59 -29 111 -52 117 -52 18 0 54 -68 47 -90 -3 -11 -10 -20 -14 -20 -18 0 -188 -138 -253 -204 -82 -84 -218 -259 -218 -280 0 -9 28 -34 63 -57 34 -23 87 -61 117 -84 30 -23 62 -45 70 -48 8 -4 53 -34 100 -68 47 -33 97 -68 112 -77 16 -9 28 -25 28 -34 0 -9 -27 -70 -60 -135 -33 -65 -60 -122 -60 -127 0 -5 -7 -17 -16 -27 -9 -10 -13 -23 -9 -28 4 -8 363 -11 1186 -11 1139 0 1179 1 1179 18 0 11 -11 39 -25 63 -14 24 -28 51 -31 59 -3 8 -24 52 -46 97 -23 45 -38 88 -35 96 3 8 43 40 89 71 45 31 118 82 161 112 42 29 112 78 155 107 42 30 78 62 80 71 5 22 -115 180 -209 277 -41 42 -120 110 -176 153 -57 42 -103 78 -103 79 0 1 7 20 14 42 9 26 22 41 37 46 39 10 156 67 212 103 63 41 128 109 158 168 32 61 33 184 2 248 -51 103 -187 204 -368 272 -121 46 -139 54 -145 68 -17 34 -56 160 -69 222 -5 21 -13 43 -18 50 -6 7 -13 24 -16 38 -3 14 -15 50 -27 80 -12 30 -24 65 -27 77 -3 12 -11 28 -19 34 -8 6 -14 18 -14 26 0 8 -13 35 -30 60 -16 24 -30 48 -30 52 0 4 -28 38 -61 75 -72 78 -161 126 -248 134 -51 5 -147 -12 -250 -44 -58 -18 -221 -18 -285 0 -183 53 -249 57 -332 25z m170 -240 c22 -6 68 -18 101 -27 82 -23 338 -23 410 0 107 34 162 42 195 28 32 -13 103 -99 132 -160 47 -99 78 -172 78 -185 0 -8 6 -29 14 -47 20 -49 37 -99 46 -138 21 -86 33 -127 45 -155 7 -16 16 -45 19 -62 7 -43 -17 -59 -126 -83 -209 -45 -936 -48 -1178 -4 -88 16 -170 45 -170 61 0 8 28 109 42 148 5 17 14 46 18 65 23 94 33 127 46 153 8 16 14 36 14 45 0 9 7 26 15 36 8 11 15 26 15 34 0 21 84 186 116 228 32 41 79 74 108 74 10 0 37 -5 60 -11z m-629 -934 c29 -30 64 -59 77 -65 12 -5 30 -14 38 -19 110 -66 370 -96 835 -96 585 0 800 43 925 183 l48 54 88 -43 c101 -49 164 -100 164 -134 0 -47 -129 -128 -286 -180 -112 -37 -364 -95 -411 -95 -16 0 -74 -7 -129 -15 -139 -21 -689 -21 -828 0 -55 8 -113 15 -129 15 -17 0 -58 6 -91 14 -34 7 -97 22 -141 31 -192 43 -359 112 -430 179 -43 41 -44 63 -2 103 28 28 187 119 211 122 5 1 32 -24 61 -54z m381 -641 c20 -5 54 -60 54 -87 0 -7 21 -34 48 -59 73 -72 162 -94 260 -65 56 17 96 56 128 123 25 54 26 55 62 48 40 -6 72 -35 72 -64 0 -10 17 -35 39 -56 83 -84 232 -85 325 -3 43 38 86 105 86 135 0 18 40 34 86 34 33 0 34 -1 34 -41 0 -37 -10 -80 -42 -174 -6 -16 -13 -42 -15 -57 -3 -15 -11 -33 -19 -39 -8 -6 -14 -18 -14 -26 0 -21 -66 -141 -112 -201 -226 -302 -532 -340 -786 -98 -48 46 -135 159 -151 197 -6 13 -15 31 -20 39 -5 8 -12 22 -15 30 -3 8 -10 22 -15 30 -8 14 -19 41 -51 130 -7 19 -16 53 -20 75 -4 22 -14 54 -21 71 -17 43 -7 64 33 64 18 0 42 -3 54 -6z m-305 -212 c4 -19 12 -39 18 -45 6 -6 11 -22 11 -36 0 -15 7 -35 15 -45 8 -11 15 -28 15 -37 0 -15 10 -39 41 -99 4 -8 18 -35 31 -60 44 -88 112 -177 210 -273 55 -55 96 -102 92 -106 -5 -3 -87 -5 -182 -3 l-173 4 7 31 c3 18 12 39 18 47 7 8 19 30 26 49 14 34 13 35 -26 67 -21 19 -43 34 -47 34 -5 0 -34 19 -65 43 -31 24 -77 57 -102 73 -164 110 -200 138 -200 153 0 41 249 246 290 238 8 -1 17 -17 21 -35z m1779 23 c7 -8 17 -15 22 -15 31 0 243 -192 235 -212 -3 -8 -38 -37 -79 -65 -40 -27 -102 -70 -138 -95 -36 -25 -96 -66 -135 -92 -38 -26 -78 -57 -87 -67 -19 -22 -16 -35 28 -123 13 -27 22 -51 20 -53 -9 -10 -350 -5 -353 4 -2 5 26 36 62 67 54 48 165 185 212 261 12 20 46 88 57 115 3 8 10 22 15 30 8 14 21 45 51 130 6 19 16 52 20 74 11 53 44 72 70 41z"/> </g> </svg> 