 <svg  version="1.0" xmlns="http://www.w3.org/2000/svg"  width="390.000000pt" height="390.000000pt" viewBox="0 0 390.000000 390.000000"  preserveAspectRatio="xMidYMid meet">  <g transform="translate(0.000000,390.000000) scale(0.100000,-0.100000)" fill="#e1e1e1" stroke="none"> <path d="M2100 3425 c0 -11 11 -15 39 -15 25 0 41 -5 45 -15 3 -8 15 -15 27 -15 11 0 41 -13 66 -30 24 -16 50 -30 56 -30 16 0 117 -102 117 -118 0 -7 7 -12 15 -12 8 0 15 7 15 15 0 9 7 18 15 21 8 4 15 17 15 30 0 12 8 27 18 33 23 13 5 43 -34 55 -16 5 -41 15 -56 22 -14 8 -35 14 -46 14 -11 0 -36 7 -55 15 -20 8 -49 15 -65 15 -16 0 -46 7 -65 15 -20 8 -52 15 -72 15 -24 0 -35 -4 -35 -15z"/> <path d="M2630 3240 c0 -18 -6 -33 -15 -36 -8 -4 -15 -18 -15 -33 0 -15 -7 -36 -15 -47 -8 -10 -15 -29 -15 -40 0 -12 -7 -27 -15 -34 -8 -7 -15 -28 -15 -47 0 -27 8 -42 38 -68 20 -19 44 -35 53 -35 21 0 269 -249 269 -271 0 -9 7 -22 15 -29 8 -7 15 -20 15 -30 0 -10 7 -23 15 -30 8 -7 15 -20 15 -30 0 -10 7 -23 15 -30 8 -7 15 -27 15 -45 0 -18 7 -38 15 -45 12 -10 15 -47 15 -215 0 -168 -3 -205 -15 -215 -9 -8 -15 -30 -15 -60 0 -33 -5 -50 -15 -54 -10 -3 -15 -19 -15 -44 0 -21 -7 -47 -15 -58 -8 -10 -15 -31 -15 -45 0 -14 -7 -34 -15 -45 -8 -10 -15 -31 -15 -45 0 -15 -7 -29 -15 -33 -12 -4 -15 -23 -15 -84 0 -59 -4 -83 -15 -92 -8 -7 -15 -27 -15 -44 0 -25 -11 -43 -53 -84 -29 -29 -60 -52 -69 -52 -8 0 -21 -7 -28 -15 -7 -8 -23 -15 -35 -15 -12 0 -28 -7 -35 -15 -7 -8 -26 -15 -42 -15 -16 0 -31 -6 -34 -15 -4 -8 -11 -15 -18 -15 -6 0 -26 -14 -43 -31 -31 -28 -33 -34 -33 -98 0 -49 -4 -72 -15 -81 -8 -7 -15 -20 -15 -30 0 -10 -7 -23 -15 -30 -8 -7 -15 -20 -15 -29 0 -19 -42 -61 -62 -61 -8 0 -27 -14 -43 -30 -18 -19 -39 -30 -56 -30 -14 0 -32 -7 -39 -15 -7 -8 -18 -15 -25 -15 -7 0 -18 -7 -25 -15 -7 -8 -26 -15 -42 -15 -16 0 -31 6 -34 15 -8 19 -30 19 -38 0 -8 -21 -82 -21 -90 0 -7 19 -40 19 -56 0 -17 -20 -69 -19 -92 2 -17 15 -19 15 -36 0 -23 -21 -68 -22 -79 -3 -4 8 -19 16 -33 18 -21 2 -26 -2 -28 -24 -2 -14 -10 -32 -18 -38 -8 -7 -14 -23 -14 -35 0 -13 -7 -25 -15 -29 -9 -3 -15 -18 -15 -40 0 -36 12 -46 58 -46 15 0 45 -7 67 -15 57 -20 473 -20 530 0 22 8 53 15 68 15 15 0 44 7 64 15 19 8 45 15 57 15 12 0 31 7 42 15 10 8 27 15 37 15 11 0 31 6 45 14 15 7 52 25 82 40 125 59 289 174 398 280 108 104 233 279 298 416 15 30 33 67 40 82 8 14 14 34 14 45 0 10 7 27 15 37 8 11 15 30 15 42 0 12 7 38 15 57 8 20 15 49 15 64 0 15 7 46 15 68 20 57 20 473 0 530 -8 22 -15 53 -15 68 0 15 -7 44 -15 64 -8 19 -15 45 -15 57 0 12 -7 31 -15 42 -8 10 -15 27 -15 37 0 11 -6 31 -14 45 -7 15 -25 52 -40 82 -57 122 -173 287 -275 393 -94 98 -339 277 -378 277 -8 0 -13 -12 -13 -30z"/> <path d="M1185 3251 c-7 -12 12 -24 25 -16 11 7 4 25 -10 25 -5 0 -11 -4 -15 -9z"/> <path d="M1134 3215 c-4 -8 -11 -15 -17 -15 -15 0 -164 -115 -230 -179 -105 -101 -222 -261 -292 -401 -20 -41 -43 -87 -51 -102 -8 -14 -14 -34 -14 -45 0 -10 -7 -27 -15 -37 -8 -11 -15 -30 -15 -42 0 -12 -7 -38 -15 -57 -8 -20 -15 -49 -15 -64 0 -15 -7 -46 -15 -68 -17 -49 -21 -447 -4 -510 6 -22 14 -63 19 -91 4 -28 13 -61 19 -72 6 -11 11 -31 11 -44 0 -13 7 -33 15 -44 8 -10 15 -27 15 -37 0 -11 6 -31 14 -45 8 -15 25 -49 37 -77 56 -123 200 -324 306 -426 107 -103 273 -219 393 -275 30 -14 67 -32 82 -40 14 -8 34 -14 43 -14 25 0 54 41 55 77 0 19 7 36 16 41 22 12 14 44 -15 58 -35 18 -99 83 -135 139 -18 28 -43 59 -55 69 -11 11 -21 27 -21 36 0 9 -13 29 -30 45 -16 16 -30 36 -30 46 0 9 -7 22 -15 29 -8 7 -15 20 -15 30 0 10 -7 23 -15 30 -8 7 -15 22 -15 34 0 12 -7 31 -15 42 -8 10 -15 35 -15 54 0 31 -11 46 -90 124 -50 49 -90 95 -90 102 0 6 -7 17 -15 24 -8 7 -15 25 -15 40 0 16 -7 30 -15 34 -12 4 -15 27 -15 116 0 89 3 112 15 116 8 4 15 16 15 28 0 11 14 34 30 50 33 33 41 85 15 106 -10 8 -15 31 -15 65 0 38 -4 55 -15 59 -11 4 -15 22 -15 74 0 50 -4 73 -15 82 -22 18 -22 337 0 366 8 11 15 41 15 70 0 33 5 56 15 64 8 7 15 27 15 45 0 18 7 38 15 45 8 7 15 21 15 32 0 11 14 40 30 65 17 24 30 50 30 57 0 7 14 25 30 41 17 16 30 33 30 38 0 11 60 89 77 100 7 4 13 12 13 17 0 16 -20 11 -26 -5z"/> <path d="M2427 2743 c-4 -3 -7 -21 -7 -40 0 -21 -6 -36 -15 -39 -8 -4 -15 -16 -15 -29 0 -12 -7 -28 -15 -35 -8 -7 -15 -27 -15 -45 0 -18 -7 -38 -15 -45 -8 -7 -15 -20 -15 -30 0 -10 -7 -23 -15 -30 -8 -7 -15 -27 -15 -45 0 -18 -7 -38 -15 -45 -8 -7 -15 -23 -15 -35 0 -12 -7 -28 -15 -35 -8 -7 -15 -25 -15 -40 0 -15 -7 -33 -15 -40 -8 -7 -15 -23 -15 -35 0 -12 -7 -28 -15 -35 -8 -7 -15 -25 -15 -40 0 -15 -7 -33 -15 -40 -8 -7 -15 -23 -15 -35 0 -12 -7 -28 -15 -35 -8 -7 -15 -25 -15 -40 0 -15 -7 -33 -15 -40 -8 -7 -15 -23 -15 -35 0 -12 -7 -28 -15 -35 -17 -14 -21 -50 -5 -50 12 0 103 97 111 119 4 9 28 40 54 69 l48 52 61 0 c61 0 62 0 114 -53 43 -44 52 -59 52 -89 0 -23 5 -38 15 -42 9 -3 15 -19 15 -41 0 -22 -6 -38 -15 -41 -10 -4 -15 -20 -15 -44 0 -21 -7 -43 -15 -50 -8 -7 -15 -21 -15 -31 0 -25 -124 -149 -149 -149 -10 0 -24 -7 -31 -15 -9 -11 -33 -15 -89 -15 l-77 0 -52 53 c-29 29 -52 60 -52 69 0 19 -35 42 -50 33 -6 -3 -10 -21 -10 -39 0 -19 -7 -39 -15 -46 -22 -18 -19 -28 15 -57 17 -13 30 -31 30 -38 0 -8 14 -34 30 -58 26 -38 30 -54 30 -109 0 -60 -2 -66 -30 -86 -39 -29 -59 -28 -98 8 -37 34 -47 37 -56 15 -3 -8 -13 -15 -22 -15 -29 0 -64 -42 -64 -78 0 -20 -6 -35 -15 -38 -8 -4 -15 -16 -15 -29 0 -12 -7 -28 -15 -35 -8 -7 -15 -27 -15 -46 0 -20 -6 -37 -16 -42 -24 -13 -14 -56 14 -60 13 -2 25 3 28 12 8 20 38 21 54 1 16 -19 54 -19 70 0 16 19 44 19 60 0 16 -19 44 -19 60 0 7 8 20 15 30 15 10 0 23 -7 30 -15 16 -19 47 -19 57 -1 4 8 26 16 48 18 35 3 40 7 45 33 4 17 12 40 18 52 7 12 12 55 12 96 0 54 4 78 15 87 8 7 15 20 15 29 0 21 130 151 152 151 8 0 21 7 28 15 7 8 20 15 30 15 10 0 23 7 30 15 7 8 19 15 27 15 20 0 93 58 93 75 0 7 7 18 15 25 12 10 15 43 15 175 0 132 -3 165 -15 175 -10 9 -15 32 -15 75 0 44 -5 66 -15 75 -21 17 -15 54 8 58 10 2 25 -2 34 -9 20 -18 93 -127 93 -142 1 -16 36 -57 49 -57 7 0 11 50 12 153 2 270 -2 351 -17 360 -8 4 -14 23 -14 41 0 19 -7 39 -15 46 -8 7 -15 20 -15 30 0 10 -7 23 -15 30 -8 7 -15 18 -15 25 0 20 -130 155 -150 155 -10 0 -23 7 -30 15 -7 8 -18 15 -25 15 -7 0 -18 7 -25 15 -13 15 -51 20 -63 8z"/> <path d="M2180 2465 c0 -10 -10 -15 -29 -15 -16 0 -31 -6 -35 -15 -4 -11 -20 -15 -54 -15 -32 0 -54 -5 -62 -15 -10 -12 -46 -15 -200 -15 -158 0 -189 -2 -194 -15 -4 -11 -22 -15 -71 -15 -49 0 -67 -4 -71 -15 -4 -8 -16 -15 -28 -15 -12 0 -27 -5 -33 -11 -6 -6 -21 -16 -34 -23 -35 -17 -88 -97 -88 -132 -1 -17 -8 -37 -16 -44 -9 -8 -15 -30 -15 -60 0 -30 -6 -52 -15 -60 -8 -7 -15 -24 -15 -39 0 -18 -16 -45 -50 -83 -42 -47 -57 -57 -88 -60 -30 -2 -38 -7 -40 -26 -2 -13 -10 -26 -18 -29 -19 -7 -19 -112 1 -139 8 -10 15 -29 15 -42 0 -29 119 -149 151 -154 20 -2 25 -10 27 -43 2 -22 10 -44 18 -48 8 -5 14 -24 14 -46 0 -25 5 -41 15 -45 8 -3 15 -16 15 -29 0 -14 7 -30 15 -37 8 -7 15 -20 15 -30 0 -10 7 -20 15 -24 8 -3 15 -14 15 -24 0 -11 7 -25 15 -32 8 -7 15 -20 15 -29 0 -9 20 -37 45 -61 25 -24 45 -48 45 -53 0 -13 64 -96 75 -96 12 -1 45 63 45 88 0 10 7 24 15 31 8 7 15 25 15 40 0 15 7 33 15 40 8 7 15 23 15 35 0 12 7 28 15 35 8 7 15 25 15 40 0 15 7 33 15 40 8 7 15 23 15 35 0 12 7 28 15 35 8 7 15 25 15 40 0 15 7 33 15 40 8 7 15 23 15 35 0 12 7 28 15 35 8 7 15 28 15 47 0 21 6 36 15 39 8 4 15 16 15 29 0 12 7 28 15 35 8 7 15 28 15 47 0 21 6 36 15 39 8 4 15 16 15 29 0 12 7 28 15 35 8 7 15 28 15 47 0 21 6 36 15 39 8 4 15 18 15 34 0 16 7 30 15 34 9 3 15 18 15 39 0 19 7 40 15 47 8 7 15 23 15 35 0 13 7 25 15 29 9 3 15 18 15 39 0 19 7 40 15 47 8 7 15 23 15 35 0 12 7 28 15 35 8 7 15 25 15 40 0 15 7 33 15 40 8 7 15 22 15 34 0 11 7 30 15 40 8 11 15 30 15 42 0 12 7 27 15 34 8 7 15 23 15 36 0 15 6 24 15 24 8 0 15 7 15 15 0 8 -7 15 -15 15 -8 0 -15 -7 -15 -15z m-659 -541 c7 -9 31 -14 64 -14 37 0 55 -4 58 -14 4 -9 23 -16 53 -18 56 -4 78 -26 52 -55 -9 -10 -18 -27 -20 -38 -2 -14 -12 -21 -36 -23 -30 -3 -33 -6 -28 -27 4 -14 0 -27 -9 -35 -8 -7 -15 -21 -15 -30 0 -23 -59 -60 -94 -60 -33 0 -86 38 -86 61 0 9 -7 22 -15 29 -23 19 -18 46 15 73 41 35 38 47 -12 47 -54 0 -78 22 -78 72 0 29 5 40 19 46 30 11 119 2 132 -14z"/> </g> </svg> 