 <svg  version="1.0" xmlns="http://www.w3.org/2000/svg"  width="390.000000pt" height="390.000000pt" viewBox="0 0 390.000000 390.000000"  preserveAspectRatio="xMidYMid meet">  <g transform="translate(0.000000,390.000000) scale(0.100000,-0.100000)" fill="#c73e3e" stroke="none"> <path d="M1650 3424 c-25 -7 -58 -14 -75 -14 -16 0 -41 -7 -55 -15 -14 -8 -35 -14 -47 -15 -12 0 -39 -7 -60 -16 -21 -9 -51 -22 -68 -29 -271 -113 -499 -301 -666 -550 -80 -118 -159 -284 -178 -375 -4 -19 -13 -45 -19 -57 -7 -12 -12 -34 -12 -50 0 -15 -7 -50 -15 -77 -21 -70 -21 -502 0 -572 8 -27 15 -62 15 -77 0 -16 5 -38 12 -50 6 -12 15 -38 19 -57 19 -91 98 -257 178 -375 168 -250 390 -433 666 -550 17 -7 47 -20 68 -29 21 -9 48 -16 60 -16 12 -1 33 -7 47 -15 14 -8 39 -14 55 -15 17 0 52 -7 79 -15 70 -21 502 -21 572 0 27 8 62 15 77 15 16 0 38 5 50 12 12 6 38 15 57 19 169 36 437 197 605 364 164 164 328 437 364 605 4 19 13 45 19 57 7 12 12 34 12 50 0 15 7 50 15 77 21 70 21 502 0 572 -8 27 -15 62 -15 77 0 16 -5 38 -12 50 -6 12 -15 38 -19 57 -36 168 -200 440 -364 605 -165 164 -437 328 -605 364 -19 4 -45 13 -57 19 -12 7 -34 12 -50 12 -15 0 -50 7 -77 15 -68 21 -510 20 -576 -1z m321 -385 c30 -5 83 -14 119 -19 78 -10 145 -27 182 -46 14 -8 31 -14 37 -14 10 0 139 -61 176 -83 137 -83 303 -249 392 -392 22 -34 83 -165 83 -176 0 -6 6 -23 14 -37 19 -37 36 -104 46 -182 5 -36 13 -87 19 -115 6 -33 6 -67 0 -100 -6 -27 -14 -79 -19 -115 -17 -126 -112 -380 -143 -380 -16 0 -1497 1481 -1497 1497 0 30 253 126 380 143 56 8 153 26 156 29 1 1 26 -4 55 -10z m-771 -596 c74 -76 413 -418 753 -761 339 -343 617 -630 617 -638 0 -20 -110 -88 -220 -136 -19 -8 -52 -23 -73 -32 -21 -9 -48 -16 -60 -16 -12 0 -33 -6 -47 -13 -30 -16 -157 -31 -250 -31 -114 1 -272 29 -333 60 -16 8 -34 14 -41 14 -19 0 -172 79 -241 125 -88 59 -237 211 -299 307 -154 237 -211 470 -181 743 4 43 14 90 22 105 7 14 13 35 13 47 0 22 18 70 46 125 8 14 14 31 14 37 0 13 86 159 107 184 9 9 21 17 28 17 6 0 71 -62 145 -137z"/> </g> </svg>
