 <svg  version="1.0" xmlns="http://www.w3.org/2000/svg"  width="390.000000pt" height="390.000000pt" viewBox="0 0 390.000000 390.000000"  preserveAspectRatio="xMidYMid meet">  <g transform="translate(0.000000,390.000000) scale(0.100000,-0.100000)" fill="#e1e1e1" stroke="none"> <path d="M507 3175 c-20 -14 -37 -32 -37 -39 0 -8 -7 -19 -15 -26 -13 -11 -15 -152 -15 -1155 0 -1003 2 -1144 15 -1155 8 -7 15 -18 15 -26 0 -7 17 -25 37 -39 l38 -25 1411 0 1411 0 36 37 37 36 0 1172 0 1172 -37 36 -36 37 -1411 0 -1411 0 -38 -25z m881 -557 c8 -8 12 -56 12 -150 l0 -137 -32 -6 c-18 -3 -190 -5 -381 -3 -296 3 -349 5 -357 18 -5 8 -10 66 -10 129 0 104 2 117 22 138 l21 23 357 0 c263 0 359 -3 368 -12z m936 -4 c13 -12 16 -41 16 -145 l0 -129 -26 -10 c-29 -11 -694 -12 -734 -1 -25 7 -25 8 -28 130 -2 116 -1 126 19 148 l22 23 358 0 c312 0 360 -2 373 -16z m936 -3 c15 -28 13 -264 -2 -279 -15 -15 -703 -17 -742 -2 l-26 10 0 126 c0 105 3 131 17 146 15 17 40 18 379 18 349 0 364 -1 374 -19z m-1862 -613 l3 -148 -380 0 c-366 0 -381 1 -391 19 -17 33 -13 233 6 259 l15 22 372 -2 372 -3 3 -147z m932 133 c11 -21 14 -238 4 -265 -5 -14 -49 -16 -385 -16 -364 0 -379 1 -389 19 -5 11 -10 70 -10 132 0 91 3 116 17 131 15 17 40 18 384 18 354 0 369 -1 379 -19z m929 5 c8 -9 11 -57 9 -147 l-3 -134 -374 -3 c-267 -2 -378 1 -387 9 -17 14 -20 239 -4 270 10 18 25 19 379 19 302 0 371 -2 380 -14z m-1861 -613 l-3 -148 -370 -2 c-222 -2 -376 1 -385 7 -19 12 -28 237 -10 269 11 21 16 21 391 21 l380 0 -3 -147z m936 131 c10 -27 7 -244 -4 -265 -10 -18 -25 -19 -377 -19 -327 0 -368 2 -385 17 -16 14 -18 33 -18 138 0 81 4 125 12 133 9 9 109 12 389 12 334 0 378 -2 383 -16z m934 -123 c2 -90 -1 -138 -9 -147 -9 -12 -78 -14 -380 -14 -354 0 -369 1 -379 19 -15 28 -13 254 2 269 9 9 104 12 388 10 l375 -3 3 -134z m-1868 -485 c0 -122 -2 -145 -16 -150 -9 -3 -175 -6 -370 -6 -430 0 -394 -14 -394 154 0 63 3 121 6 130 5 14 49 16 390 16 l384 0 0 -144z m934 128 c10 -27 7 -244 -4 -265 -10 -18 -25 -19 -372 -19 -444 0 -408 -14 -408 160 0 77 4 120 12 128 9 9 109 12 389 12 334 0 378 -2 383 -16z m934 -117 c1 -76 -2 -135 -8 -147 -10 -19 -22 -20 -372 -20 -322 0 -363 2 -380 17 -16 14 -18 33 -18 143 0 70 3 130 7 133 4 4 178 6 387 5 l381 -3 3 -128z"/> </g> </svg> 