 <svg  version="1.0" xmlns="http://www.w3.org/2000/svg"  width="390.000000pt" height="390.000000pt" viewBox="0 0 390.000000 390.000000"  preserveAspectRatio="xMidYMid meet">  <g transform="translate(0.000000,390.000000) scale(0.100000,-0.100000)" fill="#e1e1e1" stroke="none"> <path d="M1665 3420 c-130 -27 -171 -39 -320 -101 -176 -73 -309 -164 -466 -319 -79 -79 -182 -208 -219 -275 -12 -22 -30 -53 -41 -70 -10 -16 -22 -37 -25 -45 -3 -8 -13 -31 -22 -50 -49 -110 -81 -211 -110 -350 -19 -93 -27 -406 -11 -464 6 -23 15 -66 20 -96 22 -140 103 -349 181 -468 15 -24 28 -45 28 -48 0 -15 136 -180 205 -249 122 -122 248 -213 399 -286 58 -29 87 -40 186 -75 283 -101 686 -97 961 7 30 11 63 23 73 26 31 10 196 97 260 138 142 90 313 261 420 418 25 37 46 69 46 72 0 2 13 26 28 52 49 85 105 227 135 348 71 280 54 609 -44 865 -12 30 -23 65 -26 77 -3 12 -11 28 -19 34 -8 6 -14 19 -14 29 0 10 -7 23 -15 30 -8 7 -15 21 -15 31 0 10 -5 21 -11 24 -5 4 -14 17 -20 28 -45 105 -243 326 -389 436 -200 151 -380 230 -640 282 -128 26 -404 25 -535 -1z m232 -845 l2 -650 27 -20 c15 -11 43 -29 63 -40 20 -12 54 -32 76 -46 22 -14 59 -37 82 -50 74 -42 817 -492 846 -511 l27 -19 -46 -62 c-26 -34 -88 -102 -138 -152 -193 -190 -414 -302 -711 -356 -85 -16 -301 -17 -370 -1 -27 6 -72 16 -100 22 -101 22 -121 27 -150 40 -16 7 -46 19 -65 27 -178 73 -374 218 -491 363 -51 64 -141 199 -161 243 -149 316 -178 618 -91 927 102 361 337 644 668 808 164 81 350 132 465 129 l65 -2 2 -650z m668 425 c20 -22 21 -21 -40 -125 -19 -33 -40 -69 -46 -80 -21 -41 -36 -65 -54 -85 -17 -19 -19 -19 -46 -3 -16 10 -29 21 -29 25 0 11 19 51 40 83 11 17 26 44 34 60 73 145 101 170 141 125z m436 -432 c28 -35 23 -52 -23 -76 -24 -12 -70 -38 -103 -57 -33 -19 -70 -39 -82 -44 -11 -5 -24 -15 -28 -20 -18 -30 -80 9 -73 46 2 9 12 22 23 28 11 5 63 35 115 65 52 30 104 60 115 67 29 16 35 15 56 -9z m167 -620 c4 -48 -4 -50 -192 -46 -117 2 -149 6 -156 18 -14 22 -12 36 6 55 13 13 40 15 177 13 l162 -3 3 -37z"/> <path d="M1310 3002 l-23 -19 21 -30 c12 -17 26 -41 32 -54 6 -13 19 -37 29 -54 11 -16 32 -52 46 -80 38 -71 51 -79 87 -54 22 16 27 26 22 42 -4 12 -10 24 -15 27 -4 3 -13 17 -19 30 -5 14 -19 39 -30 55 -11 17 -24 39 -30 50 -53 103 -78 121 -120 87z"/> <path d="M878 2568 c-10 -12 -18 -28 -18 -35 0 -7 39 -35 88 -63 48 -28 94 -55 102 -60 8 -6 25 -14 37 -19 11 -6 24 -15 28 -20 18 -30 80 9 73 45 -3 15 -32 38 -78 61 -9 5 -56 32 -106 61 -50 28 -95 52 -100 52 -5 0 -17 -10 -26 -22z"/> <path d="M714 1976 c-3 -8 -4 -27 -2 -43 l3 -28 155 -1 c85 -1 162 0 171 2 21 6 29 33 18 62 -8 21 -12 22 -174 22 -134 0 -167 -3 -171 -14z"/> <path d="M1010 1472 c-63 -37 -123 -71 -133 -75 -26 -10 -31 -34 -13 -62 19 -28 47 -32 66 -10 7 8 16 15 20 15 16 0 230 131 230 141 0 16 -32 59 -44 59 -6 0 -63 -31 -126 -68z"/> <path d="M2383 1187 c-32 -14 -39 -44 -16 -76 11 -14 22 -33 26 -41 4 -8 16 -28 27 -45 10 -16 31 -53 45 -81 14 -28 33 -58 43 -67 16 -15 20 -14 47 8 l30 24 -19 33 c-10 18 -30 53 -43 78 -14 25 -33 59 -44 75 -10 17 -23 39 -28 50 -16 37 -44 54 -68 42z"/> <path d="M1443 1178 c-16 -25 -32 -53 -40 -68 -4 -8 -31 -55 -60 -103 -29 -48 -53 -92 -53 -96 0 -12 46 -41 64 -41 8 0 24 19 36 43 12 23 30 56 41 72 10 17 23 39 29 50 23 42 38 67 49 78 17 17 13 64 -5 71 -25 10 -52 7 -61 -6z"/> <path d="M1912 1061 c-11 -6 -14 -46 -14 -165 -1 -132 1 -160 15 -173 13 -14 21 -14 42 -5 l25 12 0 164 c0 140 -2 165 -16 170 -21 8 -36 7 -52 -3z"/> </g> </svg> 