 <svg  version="1.0" xmlns="http://www.w3.org/2000/svg"  width="390.000000pt" height="390.000000pt" viewBox="0 0 390.000000 390.000000"  preserveAspectRatio="xMidYMid meet">  <g transform="translate(0.000000,390.000000) scale(0.100000,-0.100000)" fill="#e1e1e1" stroke="none"> <path d="M895 3278 c-3 -8 -4 -101 -3 -208 l3 -195 430 0 430 0 3 208 2 207 -182 -2 -183 -3 -3 -80 c-2 -48 -8 -82 -15 -87 -7 -4 -57 -8 -112 -8 -55 0 -105 4 -112 8 -7 5 -13 39 -15 87 l-3 80 -118 3 c-90 2 -119 0 -122 -10z"/> <path d="M2122 3083 l3 -208 430 0 430 0 0 205 0 205 -120 0 -120 0 -3 -80 c-2 -48 -8 -82 -15 -87 -7 -4 -57 -8 -112 -8 -55 0 -105 4 -112 8 -7 5 -13 39 -15 87 l-3 80 -183 3 -182 2 2 -207z"/> <path d="M902 2818 c-7 -7 -12 -28 -12 -47 0 -30 10 -46 55 -94 l55 -58 0 -319 0 -320 -23 -5 c-13 -4 -50 -5 -82 -3 l-60 3 -5 100 -5 100 -115 0 -115 0 -3 -222 -2 -223 294 0 c257 0 297 -2 311 -16 14 -15 16 -72 15 -560 -1 -299 1 -548 5 -554 8 -13 302 -14 310 0 3 5 6 257 5 559 0 536 0 550 19 561 13 6 151 10 391 10 240 0 378 -4 391 -10 19 -11 19 -25 19 -561 -1 -302 2 -554 5 -559 8 -14 302 -13 310 0 4 6 6 255 5 554 -1 488 1 545 15 560 14 14 54 16 311 16 l294 0 -2 223 -3 222 -115 0 -115 0 -5 -100 -5 -100 -60 -3 c-32 -2 -69 -1 -82 3 l-23 5 0 320 0 319 55 58 c46 48 55 64 55 94 0 20 -6 42 -14 48 -9 8 -131 10 -432 9 l-419 -3 -5 -60 -5 -60 -175 0 -175 0 -5 60 -5 60 -420 3 c-319 2 -424 -1 -433 -10z m497 -282 c6 -7 11 -108 12 -241 l1 -230 -38 -5 c-78 -11 -74 -25 -74 229 0 232 3 252 40 263 20 6 47 -1 59 -16z m1169 -4 c9 -12 12 -76 12 -243 0 -254 4 -240 -74 -229 l-38 5 1 229 c1 126 4 234 8 238 8 14 46 26 63 20 8 -3 21 -12 28 -20z m-448 -487 c0 -13 -27 -15 -180 -15 -153 0 -180 2 -180 15 0 13 27 15 180 15 153 0 180 -2 180 -15z m55 -106 l0 -22 -235 1 c-160 1 -236 4 -238 12 -11 33 4 35 239 33 l234 -1 0 -23z"/> <path d="M595 1678 c-3 -7 -4 -254 -3 -548 l3 -535 260 0 260 0 3 529 c2 482 1 531 -14 548 -16 17 -37 18 -261 18 -186 0 -245 -3 -248 -12z"/> <path d="M1634 1673 c-18 -17 -19 -41 -14 -548 l5 -530 68 -3 67 -3 0 202 c0 182 2 207 20 244 22 45 78 102 127 131 32 18 34 18 65 0 50 -29 106 -86 128 -131 18 -37 20 -62 20 -244 l0 -202 68 3 67 3 5 530 c5 507 4 531 -14 548 -16 15 -46 17 -306 17 -260 0 -290 -2 -306 -17z"/> <path d="M2777 1672 c-16 -17 -17 -64 -15 -548 l3 -529 260 0 260 0 0 545 0 545 -246 3 c-228 2 -247 1 -262 -16z"/> </g> </svg> 