 <svg  version="1.0" xmlns="http://www.w3.org/2000/svg"  width="390.000000pt" height="390.000000pt" viewBox="0 0 390.000000 390.000000"  preserveAspectRatio="xMidYMid meet">  <g transform="translate(0.000000,390.000000) scale(0.100000,-0.100000)" fill="#e1e1e1" stroke="none"> <path d="M1877 3428 c-18 -14 -57 -85 -57 -104 0 -6 -7 -17 -15 -24 -8 -7 -15 -23 -15 -35 0 -12 -7 -28 -15 -35 -26 -22 -19 -87 15 -130 17 -21 30 -45 30 -54 0 -36 -83 -42 -122 -8 -26 22 -247 21 -279 -2 -13 -9 -33 -16 -45 -16 -12 0 -27 -7 -34 -15 -7 -8 -21 -15 -32 -15 -10 0 -21 -7 -24 -15 -4 -8 -13 -15 -21 -15 -8 0 -32 -13 -53 -30 -21 -16 -42 -30 -48 -30 -5 0 -15 -7 -22 -15 -16 -19 -54 -19 -83 0 -20 12 -27 12 -64 -5 -43 -19 -103 -89 -103 -120 0 -10 7 -23 15 -30 8 -7 15 -18 15 -25 0 -21 75 -75 104 -75 37 0 106 39 106 59 0 10 8 25 18 34 32 29 124 87 138 87 7 0 17 6 21 13 4 6 29 22 55 35 26 13 50 27 53 33 4 5 19 9 34 9 15 0 36 7 47 15 25 19 103 19 128 0 11 -8 29 -15 41 -15 31 0 65 -41 65 -77 0 -17 7 -36 15 -43 8 -7 15 -21 15 -31 0 -21 79 -89 104 -89 10 0 27 -5 39 -11 26 -15 76 -14 90 0 6 6 20 11 32 11 27 0 120 96 130 135 4 17 7 52 7 78 -1 52 19 87 51 87 9 0 20 7 23 15 4 8 18 15 33 15 15 0 36 7 47 15 24 18 72 18 104 0 14 -8 45 -15 70 -15 25 0 54 -7 64 -15 11 -8 32 -15 47 -15 15 0 29 -7 33 -15 3 -10 19 -15 45 -15 22 0 41 -4 43 -9 2 -5 23 -25 46 -45 38 -31 51 -36 96 -36 47 0 55 4 89 38 32 32 37 44 37 83 0 39 -5 50 -38 82 -35 35 -42 37 -100 37 -46 0 -64 -4 -68 -15 -4 -8 -18 -15 -34 -15 -15 0 -33 7 -40 15 -7 8 -27 15 -45 15 -20 0 -35 6 -39 15 -3 10 -19 15 -44 15 -23 0 -45 6 -52 15 -10 12 -39 15 -146 15 -142 0 -170 -7 -250 -66 -32 -23 -44 -27 -81 -25 -18 1 -23 7 -23 30 0 16 6 31 15 35 11 4 15 20 15 54 0 32 -5 54 -15 62 -8 7 -15 19 -15 27 0 14 -33 55 -72 91 -10 9 -18 21 -18 27 -1 5 -11 22 -23 38 -20 23 -25 25 -40 15z"/> <path d="M2827 2762 c-10 -10 -17 -23 -17 -29 0 -6 -7 -16 -15 -23 -8 -7 -15 -25 -15 -40 0 -15 -7 -33 -15 -40 -8 -7 -15 -23 -15 -35 0 -12 -7 -28 -15 -35 -8 -7 -15 -27 -15 -45 0 -20 -6 -35 -15 -39 -9 -3 -15 -18 -15 -39 0 -19 -7 -40 -15 -47 -8 -7 -15 -23 -15 -35 0 -12 -7 -28 -15 -35 -8 -7 -15 -27 -15 -45 0 -20 -6 -35 -15 -39 -9 -3 -15 -18 -15 -34 0 -16 -7 -35 -15 -42 -8 -7 -15 -25 -15 -40 0 -15 -7 -33 -15 -40 -8 -7 -15 -25 -15 -40 0 -15 -7 -33 -15 -40 -8 -7 -15 -25 -15 -40 0 -15 -7 -33 -15 -40 -8 -7 -15 -23 -15 -37 0 -13 -7 -31 -15 -39 -8 -9 -15 -28 -15 -43 0 -16 -6 -34 -14 -41 -8 -6 -16 -21 -18 -33 -3 -20 -10 -22 -70 -25 -50 -2 -68 -7 -68 -17 0 -8 5 -17 10 -20 6 -3 10 -15 10 -26 0 -11 7 -22 15 -25 8 -4 15 -15 15 -25 0 -24 187 -219 210 -219 10 0 23 -7 30 -15 7 -8 20 -15 30 -15 10 0 23 -7 30 -15 7 -8 20 -15 30 -15 10 0 34 -7 53 -15 51 -21 275 -21 303 0 10 8 34 15 52 15 20 0 35 6 38 15 4 8 17 15 30 15 14 0 27 7 30 15 4 8 15 15 25 15 22 0 172 144 189 181 16 35 36 69 49 82 6 6 11 24 11 39 0 27 -2 28 -53 28 -43 0 -58 5 -75 23 -12 13 -22 35 -22 49 0 14 -7 31 -15 38 -8 7 -15 25 -15 39 0 15 -7 36 -15 47 -8 10 -15 28 -15 40 0 11 -7 29 -15 40 -8 10 -15 32 -15 47 0 15 -7 30 -15 33 -9 4 -15 19 -15 39 0 18 -7 38 -15 45 -8 7 -15 23 -15 35 0 12 -7 28 -15 35 -8 7 -15 25 -15 40 0 15 -7 33 -15 40 -8 7 -15 24 -15 39 0 14 -7 35 -15 45 -8 11 -15 30 -15 42 0 12 -7 27 -15 34 -8 7 -15 25 -15 40 0 15 -7 33 -15 40 -8 7 -15 24 -15 39 0 14 -7 35 -15 45 -8 11 -15 30 -15 42 0 12 -7 27 -15 34 -8 7 -15 20 -15 29 0 23 -41 61 -67 61 -11 0 -27 -8 -36 -18z m53 -284 c11 -18 20 -45 20 -59 0 -15 7 -32 15 -39 8 -7 15 -26 15 -42 0 -16 6 -31 15 -34 8 -4 15 -18 15 -33 0 -15 7 -36 15 -47 8 -10 15 -29 15 -40 0 -12 7 -27 15 -34 8 -7 15 -28 15 -47 0 -21 6 -36 15 -39 8 -4 15 -18 15 -34 0 -15 7 -33 15 -40 8 -7 15 -25 15 -40 0 -15 7 -33 15 -40 8 -7 15 -25 15 -40 0 -15 7 -33 15 -40 8 -7 15 -25 15 -40 0 -15 7 -33 15 -40 8 -7 15 -21 15 -31 0 -18 -13 -19 -300 -19 l-300 0 0 28 c0 16 7 37 15 48 8 10 15 31 15 45 0 15 7 29 15 33 9 3 15 18 15 34 0 16 7 35 15 42 8 7 15 25 15 40 0 15 7 33 15 40 8 7 15 27 15 45 0 20 6 35 15 39 9 3 15 18 15 34 0 16 7 35 15 42 8 7 15 25 15 40 0 15 7 33 15 40 8 7 15 25 15 40 0 15 7 33 15 40 8 7 15 25 15 39 0 15 7 36 15 47 8 10 15 33 15 50 0 27 6 44 17 44 2 0 12 -15 23 -32z"/> <path d="M968 2549 c-10 -10 -18 -30 -18 -43 0 -13 -7 -26 -15 -30 -9 -3 -15 -18 -15 -34 0 -16 -7 -35 -15 -42 -8 -7 -15 -24 -15 -39 0 -14 -7 -35 -15 -45 -8 -11 -15 -32 -15 -47 0 -15 -7 -29 -15 -33 -9 -3 -15 -18 -15 -34 0 -16 -7 -35 -15 -42 -8 -7 -15 -25 -15 -40 0 -15 -7 -33 -15 -40 -8 -7 -15 -25 -15 -40 0 -15 -7 -33 -15 -40 -8 -7 -15 -22 -15 -34 0 -11 -7 -30 -15 -40 -8 -11 -15 -32 -15 -47 0 -14 -7 -32 -15 -39 -8 -7 -15 -22 -15 -34 0 -12 -7 -31 -15 -42 -8 -10 -15 -31 -15 -45 0 -15 -7 -32 -15 -39 -8 -7 -15 -25 -15 -40 0 -15 -7 -33 -15 -40 -8 -7 -15 -25 -15 -41 0 -35 -27 -51 -83 -49 -23 1 -48 1 -54 1 -19 -1 -17 -70 2 -77 8 -4 15 -12 15 -19 0 -23 118 -173 147 -189 15 -8 39 -26 52 -40 14 -14 32 -26 42 -26 9 0 22 -7 29 -15 7 -8 23 -15 35 -15 13 0 25 -7 29 -15 3 -9 18 -15 40 -15 18 0 47 -7 62 -15 39 -20 182 -20 231 0 19 8 48 15 63 15 15 0 33 7 40 15 7 8 23 15 37 15 13 0 26 7 29 15 4 8 14 15 24 15 26 0 181 150 205 197 11 21 26 42 33 46 6 4 12 15 12 24 0 9 7 25 16 35 26 28 2 48 -56 48 -60 0 -80 7 -80 30 0 10 -7 23 -15 30 -8 7 -15 25 -15 39 0 15 -7 36 -15 47 -8 10 -15 29 -15 42 0 12 -7 25 -15 28 -9 4 -15 19 -15 39 0 18 -7 38 -15 45 -8 7 -15 25 -15 40 0 15 -7 33 -15 40 -8 7 -15 25 -15 40 0 15 -7 33 -15 40 -8 7 -15 25 -15 40 0 15 -7 33 -15 40 -8 7 -15 25 -15 40 0 15 -7 33 -15 40 -8 7 -15 26 -15 42 0 16 -6 31 -15 34 -9 4 -15 19 -15 39 0 18 -7 38 -15 45 -8 7 -15 25 -15 40 0 15 -7 33 -15 40 -8 7 -15 26 -15 42 0 16 -6 31 -15 34 -8 4 -15 19 -15 34 0 16 -5 32 -11 35 -5 4 -14 18 -19 31 -8 20 -16 24 -47 23 -24 0 -45 -8 -55 -20z m72 -277 c0 -16 7 -37 15 -48 8 -10 15 -29 15 -42 0 -13 7 -30 15 -38 8 -9 15 -29 15 -45 0 -17 6 -32 15 -35 9 -4 15 -19 15 -39 0 -18 7 -38 15 -45 8 -7 15 -23 15 -35 0 -12 7 -28 15 -35 8 -7 15 -28 15 -47 0 -21 6 -36 15 -39 9 -4 15 -19 15 -39 0 -18 7 -38 15 -45 8 -7 15 -23 15 -35 0 -12 7 -28 15 -35 8 -7 15 -25 15 -40 0 -15 7 -33 16 -40 9 -8 14 -25 12 -44 l-3 -31 -289 -3 c-182 -1 -293 1 -300 8 -6 6 -4 16 7 28 9 10 17 28 17 39 0 12 7 23 15 27 9 3 15 18 15 35 0 16 7 36 15 45 8 8 15 25 15 38 0 13 7 32 15 42 8 11 15 30 15 42 0 12 7 27 15 34 8 7 15 27 15 45 0 18 7 38 15 45 8 7 15 23 15 35 0 12 7 28 15 35 8 7 15 27 15 45 0 20 6 35 15 39 9 3 15 18 15 34 0 16 7 35 15 42 8 7 15 22 15 33 0 30 33 96 48 97 7 0 12 -12 12 -28z"/> <path d="M1725 2530 c-3 -6 -3 -30 1 -55 5 -35 16 -56 50 -91 l44 -45 0 -663 c0 -619 -1 -664 -17 -678 -10 -8 -25 -18 -33 -22 -58 -27 -130 -97 -130 -127 0 -9 -7 -19 -15 -23 -8 -3 -15 -14 -15 -24 0 -11 -9 -40 -20 -66 l-21 -46 -93 0 c-142 0 -180 -8 -205 -40 -22 -31 -38 -139 -27 -184 l6 -26 688 0 c522 0 691 3 700 12 15 15 16 134 2 143 -5 3 -10 14 -10 23 0 9 -12 28 -26 41 -23 22 -35 25 -162 30 l-137 6 -3 33 c-2 18 -10 36 -18 39 -8 3 -14 15 -14 28 0 12 -7 28 -15 35 -8 7 -15 19 -15 27 0 21 -66 88 -109 109 -78 40 -71 -30 -71 710 l0 663 30 21 c17 12 30 27 30 34 0 8 7 19 15 26 8 7 15 19 15 28 0 8 7 23 16 33 12 14 13 22 4 38 -10 20 -18 21 -225 21 -132 0 -216 -4 -220 -10z"/> </g> </svg> 