 <svg  version="1.0" xmlns="http://www.w3.org/2000/svg"  width="390.000000pt" height="390.000000pt" viewBox="0 0 390.000000 390.000000"  preserveAspectRatio="xMidYMid meet">  <g transform="translate(0.000000,390.000000) scale(0.100000,-0.100000)" fill="#e1e1e1" stroke="none"> <path d="M1214 3272 c-12 -9 -27 -33 -33 -53 -12 -38 -30 -49 -82 -49 -59 0 -187 -82 -210 -134 -5 -12 -13 -28 -17 -36 -29 -51 -35 -70 -40 -126 -5 -64 18 -194 44 -244 7 -14 15 -32 19 -40 15 -37 84 -141 123 -184 52 -59 174 -166 188 -166 7 0 14 -3 16 -7 6 -14 62 -49 143 -88 44 -22 83 -45 88 -52 4 -6 14 -19 22 -27 8 -8 15 -17 15 -21 0 -15 153 -173 208 -213 27 -20 30 -26 21 -44 -12 -22 2 -88 28 -138 14 -27 17 -69 5 -85 -4 -5 -36 -25 -72 -42 -38 -19 -73 -45 -85 -63 -19 -29 -23 -30 -91 -30 -110 0 -104 18 -104 -333 l0 -297 -25 -6 c-35 -9 -45 -32 -45 -104 0 -111 -65 -100 610 -100 l589 0 15 22 c10 14 16 44 16 84 0 65 -12 84 -57 98 l-23 7 0 299 c0 348 5 330 -96 330 -61 0 -66 2 -103 39 -21 21 -64 50 -95 64 -51 24 -56 29 -56 58 0 18 9 59 21 92 13 38 19 72 16 93 -5 31 -2 37 41 71 72 58 113 101 181 191 34 45 68 82 75 82 46 0 243 131 347 231 64 62 158 185 175 229 3 8 11 29 18 45 51 114 62 267 26 348 -42 95 -168 197 -243 197 -47 0 -75 17 -82 49 -4 17 -18 40 -32 51 -25 20 -39 20 -732 20 -654 0 -708 -2 -727 -18z m1306 -187 c9 -11 9 -26 1 -65 -6 -28 -11 -74 -11 -103 0 -29 -7 -74 -15 -101 -8 -27 -15 -65 -15 -83 0 -19 -5 -43 -10 -54 -6 -10 -14 -38 -19 -61 -5 -24 -15 -59 -21 -78 -33 -93 -43 -117 -56 -143 -8 -16 -14 -34 -14 -42 0 -7 -7 -18 -15 -25 -8 -7 -15 -19 -15 -26 0 -22 -95 -155 -147 -206 -46 -46 -50 -47 -71 -32 -30 21 -28 41 11 78 90 85 207 302 236 436 4 19 13 45 19 57 7 12 12 34 12 48 0 14 4 34 9 43 8 16 31 162 46 297 4 33 9 63 12 68 8 12 50 8 63 -8z m-1328 -110 c3 -55 11 -116 17 -135 6 -19 11 -48 11 -65 0 -30 20 -129 45 -215 37 -133 48 -168 61 -193 8 -16 14 -34 14 -42 0 -7 7 -18 15 -25 18 -15 20 -50 4 -50 -36 0 -319 247 -319 279 0 5 -6 13 -13 19 -18 15 -72 129 -91 193 -30 105 -18 177 46 261 40 52 92 78 153 75 l50 -2 7 -100z m1659 73 c139 -100 147 -255 24 -476 -23 -43 -116 -149 -169 -194 -88 -75 -196 -143 -196 -124 0 2 14 31 30 64 17 34 30 68 30 76 0 8 6 30 14 48 36 86 106 413 106 496 0 20 3 61 6 90 l7 52 52 0 c42 0 60 -6 96 -32z m-586 -1860 c3 -13 4 -77 3 -143 l-3 -120 -320 0 -320 0 -3 129 c-1 72 0 136 2 143 4 10 71 13 320 13 l316 0 5 -22z"/> </g> </svg> 