 <svg  version="1.0" xmlns="http://www.w3.org/2000/svg"  width="390.000000pt" height="390.000000pt" viewBox="0 0 390.000000 390.000000"  preserveAspectRatio="xMidYMid meet">  <g transform="translate(0.000000,390.000000) scale(0.100000,-0.100000)" fill="#e1e1e1" stroke="none"> <path d="M1590 2869 c-124 -28 -122 -28 -165 -63 -47 -40 -43 -60 17 -77 55 -16 103 -61 125 -118 16 -40 18 -79 17 -286 0 -204 -3 -246 -18 -280 -39 -92 -85 -106 -158 -51 -45 34 -137 149 -158 197 -6 13 -26 51 -45 84 -19 33 -37 67 -40 75 -4 8 -10 22 -15 30 -5 8 -21 38 -35 67 -14 28 -30 55 -35 58 -6 3 -10 16 -10 27 0 12 -6 29 -13 37 -7 9 -21 36 -31 61 -10 25 -22 52 -27 60 -5 8 -13 24 -18 35 -13 29 -41 50 -86 64 -30 9 -104 10 -302 4 -235 -8 -264 -11 -282 -27 -25 -23 -28 -78 -6 -96 8 -7 15 -18 15 -25 0 -18 39 -103 50 -110 6 -3 10 -13 10 -22 0 -14 44 -109 80 -173 4 -8 23 -44 41 -80 18 -36 43 -83 56 -105 12 -22 34 -62 48 -90 14 -27 34 -62 43 -77 9 -14 30 -48 46 -75 37 -61 148 -223 195 -285 20 -26 61 -79 91 -120 30 -40 77 -97 105 -126 50 -55 226 -192 245 -192 5 0 10 -5 10 -10 0 -6 12 -15 26 -20 15 -6 38 -19 53 -29 31 -22 161 -78 210 -91 188 -48 198 -50 334 -50 143 0 175 7 226 48 20 16 25 32 32 103 14 152 30 201 82 257 44 46 85 44 153 -9 29 -22 69 -61 90 -85 90 -111 230 -239 301 -276 l71 -38 270 0 c284 0 311 3 370 48 29 22 32 30 32 74 0 38 -7 60 -28 92 -15 22 -31 49 -35 59 -3 9 -11 17 -17 17 -5 0 -10 5 -10 11 0 19 -124 155 -271 298 -127 122 -179 188 -179 226 0 22 31 86 62 126 16 20 28 42 28 48 0 6 4 11 8 11 8 0 82 95 82 106 0 4 6 12 14 18 21 17 166 214 166 226 0 5 5 10 10 10 6 0 15 10 20 23 6 12 19 36 30 52 76 118 120 216 120 267 0 89 -26 94 -417 88 l-311 -5 -26 -24 c-14 -14 -26 -31 -26 -39 0 -8 -6 -26 -14 -40 -7 -15 -22 -45 -31 -67 -10 -22 -22 -47 -27 -55 -4 -8 -11 -22 -14 -30 -7 -19 -42 -90 -54 -110 -5 -8 -11 -22 -14 -30 -4 -8 -15 -28 -26 -45 -11 -16 -23 -37 -27 -45 -24 -51 -159 -237 -204 -279 -44 -42 -60 -51 -89 -51 -40 1 -58 20 -80 87 -10 34 -12 103 -6 348 8 375 3 405 -84 442 -110 46 -393 58 -550 22z"/> </g> </svg> 