 <svg  version="1.0" xmlns="http://www.w3.org/2000/svg"  width="390.000000pt" height="390.000000pt" viewBox="0 0 390.000000 390.000000"  preserveAspectRatio="xMidYMid meet">  <g transform="translate(0.000000,390.000000) scale(0.100000,-0.100000)" fill="#e1e1e1" stroke="none"> <path d="M658 3223 c-109 -108 -198 -197 -198 -197 0 -1 265 -267 590 -591 l590 -589 2 -701 3 -700 285 0 285 0 5 702 5 703 583 583 c320 320 582 587 582 593 0 15 -377 388 -397 392 -10 3 -201 -181 -539 -519 l-524 -524 -523 523 c-287 287 -529 522 -537 522 -8 0 -104 -89 -212 -197z"/> </g> </svg> 